<?xml version="1.0" encoding="utf-8"?>
<!-- Generator: Adobe Illustrator 26.2.1, SVG Export Plug-In . SVG Version: 6.00 Build 0)  -->
<svg version="1.1" id="Layer_1" xmlns="http://www.w3.org/2000/svg" xmlns:xlink="http://www.w3.org/1999/xlink" x="0px" y="0px"
	 viewBox="0 0 425 194.2" style="enable-background:new 0 0 425 194.2;" xml:space="preserve">
<style type="text/css">
	.st0{enable-background:new    ;}
	.st1{fill:none;stroke:#000000;stroke-linecap:round;stroke-linejoin:round;stroke-miterlimit:10;}
	.st2{fill:#62B5D7;stroke:#000000;stroke-linecap:round;stroke-linejoin:round;stroke-miterlimit:10;}
	.st3{fill:#FFFFFF;stroke:#000000;stroke-linecap:round;stroke-linejoin:round;stroke-miterlimit:10;}
	.st4{fill:none;stroke:#000000;stroke-width:0.35;stroke-linecap:round;stroke-linejoin:round;stroke-miterlimit:10;}
	.st5{fill:#62B5D7;}
	.st6{fill:none;stroke:#000000;stroke-width:0.5;stroke-miterlimit:10;}
</style>
<g>
	<g>
		<g class="st0">
			<path d="M181.3,126.1h-4.2v4.4h-1.3v-10h6.2v1.1h-4.9v3.4h4.2V126.1z"/>
			<path d="M182.9,126.7c0-0.7,0.1-1.4,0.4-2s0.7-1,1.2-1.3s1.1-0.5,1.7-0.5c1,0,1.8,0.3,2.4,1s0.9,1.6,0.9,2.8v0.1
				c0,0.7-0.1,1.4-0.4,1.9c-0.3,0.6-0.7,1-1.2,1.3s-1.1,0.5-1.8,0.5c-1,0-1.8-0.3-2.4-1S182.9,128,182.9,126.7L182.9,126.7z
				 M184.2,126.9c0,0.8,0.2,1.5,0.6,2s0.9,0.7,1.5,0.7c0.6,0,1.2-0.3,1.5-0.8c0.4-0.5,0.6-1.2,0.6-2.1c0-0.8-0.2-1.5-0.6-2
				c-0.4-0.5-0.9-0.8-1.5-0.8c-0.6,0-1.1,0.2-1.5,0.7S184.2,126,184.2,126.9z"/>
			<path d="M194.8,124.2c-0.2,0-0.4,0-0.6,0c-0.8,0-1.4,0.4-1.7,1.1v5.2h-1.3v-7.4h1.2l0,0.9c0.4-0.7,1-1,1.8-1c0.2,0,0.4,0,0.6,0.1
				V124.2z"/>
			<path d="M197.1,123.1l0,0.8c0.5-0.6,1.3-1,2.2-1c1,0,1.7,0.4,2.1,1.2c0.2-0.4,0.6-0.6,1-0.9s0.9-0.3,1.4-0.3
				c1.6,0,2.4,0.9,2.5,2.6v5h-1.3v-4.9c0-0.5-0.1-0.9-0.4-1.2c-0.2-0.3-0.6-0.4-1.2-0.4c-0.5,0-0.9,0.1-1.2,0.4
				c-0.3,0.3-0.5,0.7-0.5,1.1v4.9h-1.3v-4.8c0-1.1-0.5-1.6-1.6-1.6c-0.8,0-1.4,0.4-1.7,1.1v5.4H196v-7.4H197.1z"/>
			<path d="M212.8,130.5c-0.1-0.1-0.1-0.4-0.2-0.8c-0.6,0.6-1.3,0.9-2.1,0.9c-0.7,0-1.3-0.2-1.8-0.6c-0.5-0.4-0.7-0.9-0.7-1.6
				c0-0.8,0.3-1.4,0.9-1.8c0.6-0.4,1.4-0.6,2.5-0.6h1.2v-0.6c0-0.4-0.1-0.8-0.4-1.1c-0.3-0.3-0.7-0.4-1.2-0.4
				c-0.5,0-0.8,0.1-1.1,0.3s-0.5,0.5-0.5,0.8h-1.3c0-0.4,0.1-0.7,0.4-1.1c0.3-0.3,0.6-0.6,1.1-0.8s0.9-0.3,1.5-0.3
				c0.9,0,1.5,0.2,2,0.6c0.5,0.4,0.7,1,0.8,1.8v3.4c0,0.7,0.1,1.2,0.3,1.6v0.1H212.8z M210.7,129.5c0.4,0,0.8-0.1,1.1-0.3
				s0.6-0.5,0.8-0.8v-1.5h-1c-1.5,0-2.3,0.5-2.3,1.4c0,0.4,0.1,0.7,0.4,0.9S210.3,129.5,210.7,129.5z"/>
			<path d="M219,126.7c0-1.2,0.3-2.1,0.8-2.8c0.5-0.7,1.2-1,2.1-1c0.9,0,1.6,0.3,2.1,1l0.1-0.8h1.2v7.2c0,1-0.3,1.7-0.9,2.3
				s-1.3,0.8-2.3,0.8c-0.5,0-1.1-0.1-1.6-0.3c-0.5-0.2-0.9-0.5-1.2-0.9l0.7-0.8c0.5,0.7,1.2,1,2,1c0.6,0,1.1-0.2,1.4-0.5
				c0.3-0.3,0.5-0.8,0.5-1.5v-0.6c-0.5,0.6-1.2,0.9-2.1,0.9c-0.9,0-1.6-0.3-2.1-1C219.3,128.9,219,127.9,219,126.7z M220.3,126.9
				c0,0.8,0.2,1.5,0.5,2c0.3,0.5,0.8,0.7,1.4,0.7c0.8,0,1.4-0.4,1.8-1.1v-3.4c-0.4-0.7-1-1.1-1.7-1.1c-0.6,0-1.1,0.2-1.4,0.7
				C220.5,125.2,220.3,125.9,220.3,126.9z"/>
			<path d="M230.2,130.6c-1,0-1.8-0.3-2.4-1c-0.6-0.7-0.9-1.5-0.9-2.6v-0.2c0-0.7,0.1-1.4,0.4-2c0.3-0.6,0.7-1,1.2-1.4
				c0.5-0.3,1-0.5,1.6-0.5c1,0,1.7,0.3,2.2,1s0.8,1.5,0.8,2.7v0.5h-5c0,0.7,0.2,1.3,0.6,1.8c0.4,0.4,0.9,0.7,1.6,0.7
				c0.4,0,0.8-0.1,1.1-0.3c0.3-0.2,0.6-0.4,0.8-0.7l0.8,0.6C232.4,130.2,231.5,130.6,230.2,130.6z M230.1,124
				c-0.5,0-0.9,0.2-1.3,0.6c-0.3,0.4-0.6,0.9-0.6,1.6h3.7V126c0-0.6-0.2-1.1-0.5-1.5C231,124.2,230.6,124,230.1,124z"/>
			<path d="M235.8,123.1l0,0.9c0.6-0.7,1.3-1.1,2.2-1.1c1.6,0,2.4,0.9,2.4,2.6v4.9h-1.3v-4.9c0-0.5-0.1-0.9-0.4-1.2
				s-0.6-0.4-1.1-0.4c-0.4,0-0.8,0.1-1.1,0.3c-0.3,0.2-0.6,0.5-0.7,0.9v5.3h-1.3v-7.4H235.8z"/>
			<path d="M245.4,130.6c-1,0-1.8-0.3-2.4-1c-0.6-0.7-0.9-1.5-0.9-2.6v-0.2c0-0.7,0.1-1.4,0.4-2c0.3-0.6,0.7-1,1.2-1.4
				c0.5-0.3,1-0.5,1.6-0.5c1,0,1.7,0.3,2.2,1s0.8,1.5,0.8,2.7v0.5h-5c0,0.7,0.2,1.3,0.6,1.8c0.4,0.4,0.9,0.7,1.6,0.7
				c0.4,0,0.8-0.1,1.1-0.3c0.3-0.2,0.6-0.4,0.8-0.7l0.8,0.6C247.5,130.2,246.6,130.6,245.4,130.6z M245.2,124
				c-0.5,0-0.9,0.2-1.3,0.6c-0.3,0.4-0.6,0.9-0.6,1.6h3.7V126c0-0.6-0.2-1.1-0.5-1.5C246.2,124.2,245.7,124,245.2,124z"/>
			<path d="M253.3,124.2c-0.2,0-0.4,0-0.6,0c-0.8,0-1.4,0.4-1.7,1.1v5.2h-1.3v-7.4h1.2l0,0.9c0.4-0.7,1-1,1.8-1c0.2,0,0.4,0,0.6,0.1
				V124.2z"/>
			<path d="M258.8,130.5c-0.1-0.1-0.1-0.4-0.2-0.8c-0.6,0.6-1.3,0.9-2.1,0.9c-0.7,0-1.3-0.2-1.8-0.6c-0.5-0.4-0.7-0.9-0.7-1.6
				c0-0.8,0.3-1.4,0.9-1.8c0.6-0.4,1.4-0.6,2.5-0.6h1.2v-0.6c0-0.4-0.1-0.8-0.4-1.1c-0.3-0.3-0.7-0.4-1.2-0.4
				c-0.5,0-0.8,0.1-1.1,0.3c-0.3,0.2-0.5,0.5-0.5,0.8h-1.3c0-0.4,0.1-0.7,0.4-1.1c0.3-0.3,0.6-0.6,1.1-0.8c0.4-0.2,0.9-0.3,1.5-0.3
				c0.9,0,1.5,0.2,2,0.6c0.5,0.4,0.7,1,0.8,1.8v3.4c0,0.7,0.1,1.2,0.3,1.6v0.1H258.8z M256.7,129.5c0.4,0,0.8-0.1,1.1-0.3
				s0.6-0.5,0.8-0.8v-1.5h-1c-1.5,0-2.3,0.5-2.3,1.4c0,0.4,0.1,0.7,0.4,0.9C255.9,129.4,256.2,129.5,256.7,129.5z"/>
			<path d="M263.2,130.5h-1.3V120h1.3V130.5z"/>
		</g>
		<g class="st0">
			<path d="M154.5,143.5c0-1.1,0.3-2,0.8-2.7c0.5-0.7,1.2-1,2.1-1c0.9,0,1.6,0.3,2.1,0.9v-3.9h1.3v10.5h-1.2l-0.1-0.8
				c-0.5,0.6-1.2,0.9-2.1,0.9c-0.9,0-1.6-0.4-2.1-1.1S154.5,144.8,154.5,143.5L154.5,143.5z M155.8,143.7c0,0.8,0.2,1.5,0.5,2
				s0.8,0.7,1.4,0.7c0.8,0,1.4-0.4,1.8-1.1v-3.4c-0.4-0.7-1-1-1.7-1c-0.6,0-1.1,0.2-1.4,0.7S155.8,142.7,155.8,143.7z"/>
			<path d="M165.8,147.4c-1,0-1.8-0.3-2.4-1c-0.6-0.7-0.9-1.5-0.9-2.6v-0.2c0-0.7,0.1-1.4,0.4-2c0.3-0.6,0.7-1,1.2-1.4
				c0.5-0.3,1-0.5,1.6-0.5c1,0,1.7,0.3,2.2,1s0.8,1.5,0.8,2.7v0.5h-5c0,0.7,0.2,1.3,0.6,1.8c0.4,0.4,0.9,0.7,1.6,0.7
				c0.4,0,0.8-0.1,1.1-0.3s0.6-0.4,0.8-0.7l0.8,0.6C168,147,167,147.4,165.8,147.4z M165.6,140.8c-0.5,0-0.9,0.2-1.3,0.6
				c-0.3,0.4-0.6,0.9-0.6,1.6h3.7v-0.1c0-0.6-0.2-1.1-0.5-1.5C166.6,141,166.2,140.8,165.6,140.8z"/>
			<path d="M178.2,146.6c-0.5,0.6-1.2,0.9-2.2,0.9c-0.8,0-1.4-0.2-1.8-0.7c-0.4-0.5-0.6-1.1-0.6-2v-4.8h1.3v4.8
				c0,1.1,0.5,1.7,1.4,1.7c1,0,1.6-0.4,1.9-1.1v-5.4h1.3v7.4h-1.2L178.2,146.6z"/>
			<path d="M182.5,139.9l0,0.9c0.6-0.7,1.3-1.1,2.2-1.1c1.6,0,2.4,0.9,2.4,2.6v4.9h-1.3v-4.9c0-0.5-0.1-0.9-0.4-1.2
				s-0.6-0.4-1.1-0.4c-0.4,0-0.8,0.1-1.1,0.3s-0.6,0.5-0.7,0.9v5.3h-1.3v-7.4H182.5z"/>
			<path d="M193.7,139.9l0,0.8c0.5-0.6,1.3-1,2.2-1c1,0,1.7,0.4,2.1,1.2c0.2-0.4,0.6-0.6,1-0.9s0.9-0.3,1.4-0.3
				c1.6,0,2.4,0.9,2.5,2.6v5h-1.3v-4.9c0-0.5-0.1-0.9-0.4-1.2c-0.2-0.3-0.6-0.4-1.2-0.4c-0.5,0-0.9,0.1-1.2,0.4
				c-0.3,0.3-0.5,0.7-0.5,1.1v4.9h-1.3v-4.8c0-1.1-0.5-1.6-1.6-1.6c-0.8,0-1.4,0.4-1.7,1.1v5.4h-1.3v-7.4H193.7z"/>
			<path d="M204.5,143.5c0-0.7,0.1-1.4,0.4-2s0.7-1,1.2-1.3s1.1-0.5,1.7-0.5c1,0,1.8,0.3,2.4,1s0.9,1.6,0.9,2.8v0.1
				c0,0.7-0.1,1.4-0.4,1.9c-0.3,0.6-0.7,1-1.2,1.3s-1.1,0.5-1.8,0.5c-1,0-1.8-0.3-2.4-1S204.5,144.8,204.5,143.5L204.5,143.5z
				 M205.7,143.7c0,0.8,0.2,1.5,0.6,2s0.9,0.7,1.5,0.7c0.6,0,1.2-0.3,1.5-0.8c0.4-0.5,0.6-1.2,0.6-2.1c0-0.8-0.2-1.5-0.6-2
				c-0.4-0.5-0.9-0.8-1.5-0.8c-0.6,0-1.1,0.2-1.5,0.7S205.7,142.8,205.7,143.7z"/>
			<path d="M212.5,143.5c0-1.1,0.3-2,0.8-2.7c0.5-0.7,1.2-1,2.1-1c0.9,0,1.6,0.3,2.1,0.9v-3.9h1.3v10.5h-1.2l-0.1-0.8
				c-0.5,0.6-1.2,0.9-2.1,0.9c-0.9,0-1.6-0.4-2.1-1.1S212.5,144.8,212.5,143.5L212.5,143.5z M213.7,143.7c0,0.8,0.2,1.5,0.5,2
				c0.3,0.5,0.8,0.7,1.4,0.7c0.8,0,1.4-0.4,1.8-1.1v-3.4c-0.4-0.7-1-1-1.7-1c-0.6,0-1.1,0.2-1.4,0.7
				C213.9,142,213.7,142.7,213.7,143.7z"/>
			<path d="M223.7,147.4c-1,0-1.8-0.3-2.4-1c-0.6-0.7-0.9-1.5-0.9-2.6v-0.2c0-0.7,0.1-1.4,0.4-2c0.3-0.6,0.7-1,1.2-1.4
				c0.5-0.3,1-0.5,1.6-0.5c1,0,1.7,0.3,2.2,1s0.8,1.5,0.8,2.7v0.5h-5c0,0.7,0.2,1.3,0.6,1.8c0.4,0.4,0.9,0.7,1.6,0.7
				c0.4,0,0.8-0.1,1.1-0.3c0.3-0.2,0.6-0.4,0.8-0.7l0.8,0.6C225.9,147,225,147.4,223.7,147.4z M223.6,140.8c-0.5,0-0.9,0.2-1.3,0.6
				c-0.3,0.4-0.6,0.9-0.6,1.6h3.7v-0.1c0-0.6-0.2-1.1-0.5-1.5C224.5,141,224.1,140.8,223.6,140.8z"/>
			<path d="M229.5,147.3h-1.3v-10.5h1.3V147.3z"/>
			<path d="M231.2,143.5c0-0.7,0.1-1.4,0.4-2c0.3-0.6,0.7-1,1.2-1.3c0.5-0.3,1.1-0.5,1.7-0.5c1,0,1.8,0.3,2.4,1s0.9,1.6,0.9,2.8v0.1
				c0,0.7-0.1,1.4-0.4,1.9c-0.3,0.6-0.7,1-1.2,1.3s-1.1,0.5-1.8,0.5c-1,0-1.8-0.3-2.4-1S231.2,144.8,231.2,143.5L231.2,143.5z
				 M232.4,143.7c0,0.8,0.2,1.5,0.6,2c0.4,0.5,0.9,0.7,1.5,0.7c0.6,0,1.2-0.3,1.5-0.8c0.4-0.5,0.6-1.2,0.6-2.1c0-0.8-0.2-1.5-0.6-2
				c-0.4-0.5-0.9-0.8-1.5-0.8c-0.6,0-1.1,0.2-1.5,0.7S232.4,142.8,232.4,143.7z"/>
			<path d="M247.5,147.3c-0.1-0.1-0.1-0.4-0.2-0.8c-0.6,0.6-1.3,0.9-2.1,0.9c-0.7,0-1.3-0.2-1.8-0.6c-0.5-0.4-0.7-0.9-0.7-1.6
				c0-0.8,0.3-1.4,0.9-1.8c0.6-0.4,1.4-0.6,2.5-0.6h1.2v-0.6c0-0.4-0.1-0.8-0.4-1.1c-0.3-0.3-0.7-0.4-1.2-0.4
				c-0.5,0-0.8,0.1-1.1,0.3c-0.3,0.2-0.5,0.5-0.5,0.8h-1.3c0-0.4,0.1-0.7,0.4-1.1c0.3-0.3,0.6-0.6,1.1-0.8c0.4-0.2,0.9-0.3,1.5-0.3
				c0.9,0,1.5,0.2,2,0.6c0.5,0.4,0.7,1,0.8,1.8v3.4c0,0.7,0.1,1.2,0.3,1.6v0.1H247.5z M245.4,146.3c0.4,0,0.8-0.1,1.1-0.3
				s0.6-0.5,0.8-0.8v-1.5h-1c-1.5,0-2.3,0.5-2.3,1.4c0,0.4,0.1,0.7,0.4,0.9C244.7,146.2,245,146.3,245.4,146.3z"/>
			<path d="M251.8,139.9l0,0.9c0.6-0.7,1.3-1.1,2.2-1.1c1.6,0,2.4,0.9,2.4,2.6v4.9h-1.3v-4.9c0-0.5-0.1-0.9-0.4-1.2
				s-0.6-0.4-1.1-0.4c-0.4,0-0.8,0.1-1.1,0.3c-0.3,0.2-0.6,0.5-0.7,0.9v5.3h-1.3v-7.4H251.8z"/>
			<path d="M260,138.1v1.8h1.4v1H260v4.6c0,0.3,0.1,0.5,0.2,0.7s0.3,0.2,0.6,0.2c0.1,0,0.3,0,0.6-0.1v1c-0.3,0.1-0.7,0.1-1,0.1
				c-0.6,0-1-0.2-1.3-0.5s-0.4-0.8-0.4-1.5v-4.6h-1.3v-1h1.3v-1.8H260z"/>
			<path d="M262.9,137.9c0-0.2,0.1-0.4,0.2-0.5c0.1-0.1,0.3-0.2,0.6-0.2s0.4,0.1,0.6,0.2c0.1,0.1,0.2,0.3,0.2,0.5s-0.1,0.4-0.2,0.5
				c-0.1,0.1-0.3,0.2-0.6,0.2s-0.4-0.1-0.6-0.2C262.9,138.3,262.9,138.1,262.9,137.9z M264.2,147.3H263v-7.4h1.3V147.3z"/>
			<path d="M266,143.5c0-1.2,0.3-2.1,0.8-2.8c0.5-0.7,1.2-1,2.1-1c0.9,0,1.6,0.3,2.1,1l0.1-0.8h1.2v7.2c0,1-0.3,1.7-0.9,2.3
				s-1.3,0.8-2.3,0.8c-0.5,0-1.1-0.1-1.6-0.3c-0.5-0.2-0.9-0.5-1.2-0.9l0.7-0.8c0.5,0.7,1.2,1,2,1c0.6,0,1.1-0.2,1.4-0.5
				c0.3-0.3,0.5-0.8,0.5-1.5v-0.6c-0.5,0.6-1.2,0.9-2.1,0.9c-0.9,0-1.6-0.3-2.1-1C266.2,145.7,266,144.7,266,143.5z M267.2,143.7
				c0,0.8,0.2,1.5,0.5,2c0.3,0.5,0.8,0.7,1.4,0.7c0.8,0,1.4-0.4,1.8-1.1v-3.4c-0.4-0.7-1-1.1-1.7-1.1c-0.6,0-1.1,0.2-1.4,0.7
				C267.4,142,267.2,142.7,267.2,143.7z"/>
			<path d="M278.7,146.6c-0.5,0.6-1.2,0.9-2.2,0.9c-0.8,0-1.4-0.2-1.8-0.7c-0.4-0.5-0.6-1.1-0.6-2v-4.8h1.3v4.8
				c0,1.1,0.5,1.7,1.4,1.7c1,0,1.6-0.4,1.9-1.1v-5.4h1.3v7.4h-1.2L278.7,146.6z"/>
			<path d="M281.5,143.5c0-0.7,0.1-1.4,0.4-2c0.3-0.6,0.7-1,1.2-1.3c0.5-0.3,1.1-0.5,1.7-0.5c1,0,1.8,0.3,2.4,1s0.9,1.6,0.9,2.8v0.1
				c0,0.7-0.1,1.4-0.4,1.9c-0.3,0.6-0.7,1-1.2,1.3s-1.1,0.5-1.8,0.5c-1,0-1.8-0.3-2.4-1S281.5,144.8,281.5,143.5L281.5,143.5z
				 M282.8,143.7c0,0.8,0.2,1.5,0.6,2c0.4,0.5,0.9,0.7,1.5,0.7c0.6,0,1.2-0.3,1.5-0.8c0.4-0.5,0.6-1.2,0.6-2.1c0-0.8-0.2-1.5-0.6-2
				c-0.4-0.5-0.9-0.8-1.5-0.8c-0.6,0-1.1,0.2-1.5,0.7S282.8,142.8,282.8,143.7z"/>
		</g>
		<g class="st0">
			<path d="M156.6,160.3c0-1.1,0.3-2,0.8-2.7c0.5-0.7,1.2-1,2.1-1c0.9,0,1.6,0.3,2.1,0.9v-3.9h1.3v10.5h-1.2l-0.1-0.8
				c-0.5,0.6-1.2,0.9-2.1,0.9c-0.9,0-1.6-0.4-2.1-1.1S156.6,161.6,156.6,160.3L156.6,160.3z M157.9,160.5c0,0.8,0.2,1.5,0.5,2
				c0.3,0.5,0.8,0.7,1.4,0.7c0.8,0,1.4-0.4,1.8-1.1v-3.4c-0.4-0.7-1-1-1.7-1c-0.6,0-1.1,0.2-1.4,0.7
				C158,158.8,157.9,159.5,157.9,160.5z"/>
			<path d="M167.9,164.2c-1,0-1.8-0.3-2.4-1c-0.6-0.7-0.9-1.5-0.9-2.6v-0.2c0-0.7,0.1-1.4,0.4-2c0.3-0.6,0.7-1,1.2-1.4
				c0.5-0.3,1-0.5,1.6-0.5c1,0,1.7,0.3,2.2,1s0.8,1.5,0.8,2.7v0.5h-5c0,0.7,0.2,1.3,0.6,1.8c0.4,0.4,0.9,0.7,1.6,0.7
				c0.4,0,0.8-0.1,1.1-0.3c0.3-0.2,0.6-0.4,0.8-0.7l0.8,0.6C170,163.8,169.1,164.2,167.9,164.2z M167.7,157.6
				c-0.5,0-0.9,0.2-1.3,0.6c-0.3,0.4-0.6,0.9-0.6,1.6h3.7v-0.1c0-0.6-0.2-1.1-0.5-1.5C168.7,157.8,168.2,157.6,167.7,157.6z"/>
			<path d="M182.5,155.2h-3.2v8.9H178v-8.9h-3.2v-1.1h7.7V155.2z"/>
			<path d="M186.2,162.2l1.7-5.5h1.4l-3,8.5c-0.5,1.2-1.2,1.8-2.2,1.8l-0.2,0l-0.5-0.1v-1l0.3,0c0.4,0,0.8-0.1,1-0.3s0.4-0.5,0.6-1
				l0.3-0.8l-2.6-7.3h1.4L186.2,162.2z"/>
			<path d="M194,157.8c-0.2,0-0.4,0-0.6,0c-0.8,0-1.4,0.4-1.7,1.1v5.2h-1.3v-7.4h1.2l0,0.9c0.4-0.7,1-1,1.8-1c0.2,0,0.4,0,0.6,0.1
				V157.8z"/>
			<path d="M199.4,164.1c-0.1-0.1-0.1-0.4-0.2-0.8c-0.6,0.6-1.3,0.9-2.1,0.9c-0.7,0-1.3-0.2-1.8-0.6c-0.5-0.4-0.7-0.9-0.7-1.6
				c0-0.8,0.3-1.4,0.9-1.8c0.6-0.4,1.4-0.6,2.5-0.6h1.2V159c0-0.4-0.1-0.8-0.4-1.1c-0.3-0.3-0.7-0.4-1.2-0.4c-0.5,0-0.8,0.1-1.1,0.3
				c-0.3,0.2-0.5,0.5-0.5,0.8h-1.3c0-0.4,0.1-0.7,0.4-1.1c0.3-0.3,0.6-0.6,1.1-0.8c0.4-0.2,0.9-0.3,1.5-0.3c0.9,0,1.5,0.2,2,0.6
				c0.5,0.4,0.7,1,0.8,1.8v3.4c0,0.7,0.1,1.2,0.3,1.6v0.1H199.4z M197.3,163.1c0.4,0,0.8-0.1,1.1-0.3s0.6-0.5,0.8-0.8v-1.5h-1
				c-1.5,0-2.3,0.5-2.3,1.4c0,0.4,0.1,0.7,0.4,0.9C196.6,163,196.9,163.1,197.3,163.1z"/>
			<path d="M203.7,156.7l0,0.9c0.6-0.7,1.3-1.1,2.2-1.1c1.6,0,2.4,0.9,2.4,2.6v4.9H207v-4.9c0-0.5-0.1-0.9-0.4-1.2s-0.6-0.4-1.1-0.4
				c-0.4,0-0.8,0.1-1.1,0.3c-0.3,0.2-0.6,0.5-0.7,0.9v5.3h-1.3v-7.4H203.7z"/>
			<path d="M211.4,156.7l0,0.9c0.6-0.7,1.3-1.1,2.2-1.1c1.6,0,2.4,0.9,2.4,2.6v4.9h-1.3v-4.9c0-0.5-0.1-0.9-0.4-1.2
				s-0.6-0.4-1.1-0.4c-0.4,0-0.8,0.1-1.1,0.3c-0.3,0.2-0.6,0.5-0.7,0.9v5.3h-1.3v-7.4H211.4z"/>
			<path d="M217.6,160.3c0-0.7,0.1-1.4,0.4-2c0.3-0.6,0.7-1,1.2-1.3c0.5-0.3,1.1-0.5,1.7-0.5c1,0,1.8,0.3,2.4,1s0.9,1.6,0.9,2.8v0.1
				c0,0.7-0.1,1.4-0.4,1.9c-0.3,0.6-0.7,1-1.2,1.3s-1.1,0.5-1.8,0.5c-1,0-1.8-0.3-2.4-1S217.6,161.6,217.6,160.3L217.6,160.3z
				 M218.9,160.5c0,0.8,0.2,1.5,0.6,2c0.4,0.5,0.9,0.7,1.5,0.7c0.6,0,1.2-0.3,1.5-0.8c0.4-0.5,0.6-1.2,0.6-2.1c0-0.8-0.2-1.5-0.6-2
				c-0.4-0.5-0.9-0.8-1.5-0.8c-0.6,0-1.1,0.2-1.5,0.7S218.9,159.6,218.9,160.5z"/>
			<path d="M230.2,162.1c0-0.3-0.1-0.6-0.4-0.8c-0.3-0.2-0.7-0.4-1.3-0.5c-0.6-0.1-1.1-0.3-1.5-0.5s-0.7-0.4-0.8-0.7
				c-0.2-0.3-0.3-0.6-0.3-0.9c0-0.6,0.3-1.1,0.8-1.5s1.2-0.6,2-0.6c0.8,0,1.5,0.2,2,0.6c0.5,0.4,0.8,1,0.8,1.7h-1.3
				c0-0.3-0.1-0.6-0.4-0.9s-0.7-0.4-1.1-0.4c-0.5,0-0.8,0.1-1.1,0.3s-0.4,0.5-0.4,0.8c0,0.3,0.1,0.5,0.4,0.7
				c0.2,0.2,0.7,0.3,1.3,0.4c0.6,0.1,1.1,0.3,1.5,0.5c0.4,0.2,0.7,0.4,0.9,0.7c0.2,0.3,0.3,0.6,0.3,1c0,0.7-0.3,1.2-0.8,1.6
				c-0.5,0.4-1.2,0.6-2.1,0.6c-0.6,0-1.1-0.1-1.6-0.3c-0.5-0.2-0.8-0.5-1.1-0.9c-0.3-0.4-0.4-0.8-0.4-1.2h1.3c0,0.4,0.2,0.8,0.5,1
				c0.3,0.2,0.7,0.4,1.3,0.4c0.5,0,0.9-0.1,1.2-0.3C230.1,162.7,230.2,162.5,230.2,162.1z"/>
			<path d="M237.7,164.1c-0.1-0.1-0.1-0.4-0.2-0.8c-0.6,0.6-1.3,0.9-2.1,0.9c-0.7,0-1.3-0.2-1.8-0.6c-0.5-0.4-0.7-0.9-0.7-1.6
				c0-0.8,0.3-1.4,0.9-1.8c0.6-0.4,1.4-0.6,2.5-0.6h1.2V159c0-0.4-0.1-0.8-0.4-1.1c-0.3-0.3-0.7-0.4-1.2-0.4c-0.5,0-0.8,0.1-1.1,0.3
				c-0.3,0.2-0.5,0.5-0.5,0.8h-1.3c0-0.4,0.1-0.7,0.4-1.1c0.3-0.3,0.6-0.6,1.1-0.8c0.4-0.2,0.9-0.3,1.5-0.3c0.9,0,1.5,0.2,2,0.6
				c0.5,0.4,0.7,1,0.8,1.8v3.4c0,0.7,0.1,1.2,0.3,1.6v0.1H237.7z M235.6,163.1c0.4,0,0.8-0.1,1.1-0.3s0.6-0.5,0.8-0.8v-1.5h-1
				c-1.5,0-2.3,0.5-2.3,1.4c0,0.4,0.1,0.7,0.4,0.9C234.8,163,235.2,163.1,235.6,163.1z"/>
			<path d="M245.3,163.4c-0.5,0.6-1.2,0.9-2.2,0.9c-0.8,0-1.4-0.2-1.8-0.7c-0.4-0.5-0.6-1.1-0.6-2v-4.8h1.3v4.8
				c0,1.1,0.5,1.7,1.4,1.7c1,0,1.6-0.4,1.9-1.1v-5.4h1.3v7.4h-1.2L245.3,163.4z"/>
			<path d="M252,157.8c-0.2,0-0.4,0-0.6,0c-0.8,0-1.4,0.4-1.7,1.1v5.2h-1.3v-7.4h1.2l0,0.9c0.4-0.7,1-1,1.8-1c0.2,0,0.4,0,0.6,0.1
				V157.8z"/>
			<path d="M257.8,163.4c-0.5,0.6-1.2,0.9-2.2,0.9c-0.8,0-1.4-0.2-1.8-0.7c-0.4-0.5-0.6-1.1-0.6-2v-4.8h1.3v4.8
				c0,1.1,0.5,1.7,1.4,1.7c1,0,1.6-0.4,1.9-1.1v-5.4h1.3v7.4h-1.2L257.8,163.4z"/>
			<path d="M265.2,162.1c0-0.3-0.1-0.6-0.4-0.8c-0.3-0.2-0.7-0.4-1.3-0.5c-0.6-0.1-1.1-0.3-1.5-0.5s-0.7-0.4-0.8-0.7
				c-0.2-0.3-0.3-0.6-0.3-0.9c0-0.6,0.3-1.1,0.8-1.5s1.2-0.6,2-0.6c0.8,0,1.5,0.2,2,0.6c0.5,0.4,0.8,1,0.8,1.7h-1.3
				c0-0.3-0.1-0.6-0.4-0.9s-0.7-0.4-1.1-0.4c-0.5,0-0.8,0.1-1.1,0.3s-0.4,0.5-0.4,0.8c0,0.3,0.1,0.5,0.4,0.7
				c0.2,0.2,0.7,0.3,1.3,0.4c0.6,0.1,1.1,0.3,1.5,0.5c0.4,0.2,0.7,0.4,0.9,0.7c0.2,0.3,0.3,0.6,0.3,1c0,0.7-0.3,1.2-0.8,1.6
				c-0.5,0.4-1.2,0.6-2.1,0.6c-0.6,0-1.1-0.1-1.6-0.3c-0.5-0.2-0.8-0.5-1.1-0.9c-0.3-0.4-0.4-0.8-0.4-1.2h1.3c0,0.4,0.2,0.8,0.5,1
				c0.3,0.2,0.7,0.4,1.3,0.4c0.5,0,0.9-0.1,1.2-0.3C265.1,162.7,265.2,162.5,265.2,162.1z"/>
			<path d="M275.2,157.8c-0.2,0-0.4,0-0.6,0c-0.8,0-1.4,0.4-1.7,1.1v5.2h-1.3v-7.4h1.2l0,0.9c0.4-0.7,1-1,1.8-1c0.2,0,0.4,0,0.6,0.1
				V157.8z"/>
			<path d="M279.4,164.2c-1,0-1.8-0.3-2.4-1c-0.6-0.7-0.9-1.5-0.9-2.6v-0.2c0-0.7,0.1-1.4,0.4-2c0.3-0.6,0.7-1,1.2-1.4
				c0.5-0.3,1-0.5,1.6-0.5c1,0,1.7,0.3,2.2,1s0.8,1.5,0.8,2.7v0.5h-5c0,0.7,0.2,1.3,0.6,1.8c0.4,0.4,0.9,0.7,1.6,0.7
				c0.4,0,0.8-0.1,1.1-0.3c0.3-0.2,0.6-0.4,0.8-0.7l0.8,0.6C281.6,163.8,280.6,164.2,279.4,164.2z M279.2,157.6
				c-0.5,0-0.9,0.2-1.3,0.6c-0.3,0.4-0.6,0.9-0.6,1.6h3.7v-0.1c0-0.6-0.2-1.1-0.5-1.5C280.2,157.8,279.8,157.6,279.2,157.6z"/>
			<path d="M286.2,159.4l1.6-2.7h1.5l-2.4,3.7l2.5,3.7H288l-1.7-2.8l-1.7,2.8h-1.5l2.5-3.7l-2.4-3.7h1.5L286.2,159.4z"/>
		</g>
	</g>
	<g>
		<path class="st1" d="M51.8,120.1c0,0-4.1-1.6-4.5-2"/>
		<path class="st2" d="M30.9,130.5c0,0-0.1-0.1-0.4-0.2c-0.8-0.4-2.4-1.5-2.4-2.3c0.1-0.9,0.9-4.3,1-4.5c0.1-0.3,3,0.6,3.3,0.8
			c0.3,0.2,2.9-7.7,2.9-7.7s3.4,0,3.8-0.2s1.4-6.4,1.4-6.4l7.1,0.5c0,0-0.5-2.3-0.7-3.7c-0.3-1.5-0.6-3.6-0.3-4.1
			c0.4-0.5,4-0.9,5.2-0.6s2.9,1.5,3.4,1.3s1.1-2.4,1.1-2.9s-0.5-1.4-0.7-2.7c-0.3-1.4-0.7-2.8,0.2-2.8s11.6,4.3,11.6,4.3
			s2.4-10.6,2.7-10.2c0.4,0.5,7.4,4.8,7.7,4.9c0.4,0.1,4-6.2,4.3-6.3c0.3-0.1,6.9,5.7,7.1,6.6s2.3,4.8,2.4,4.5s4.7-8.3,5.5-7.5
			s4.8,8.1,4.8,8.1s4.1-5,4.6-4.1s3.5,7.7,3.7,8.7c0.3,1,0.5,3.8,0.5,4.1c0,0.3-0.8,2.2-1.3,2.5c-0.2,0.2-1,1.1-1.8,2.2
			c-1.1,1.4-2.3,3-2.3,3l1.6,2.3l0.6-1.3c0,0,1-3.4,0.9-4.2c-0.1-0.8,2.6-1.3,3.2-1.6c0.5-0.4,4.4-6.1,4.8-5.6s2,5.5,2,6
			s4.1-0.7,4.5-0.7c0.5,0,0,3.2-0.2,4.2s-0.7,4.5-0.9,5c-0.2,0.5-5.5,5-5.5,5l3.9,3.4c0,0,1.2-4.8,1.2-5.1c0-0.3,4.7-4.8,4.9-4.5
			c0.2,0.3,0.5,3.3,0.5,3.3l2.6-0.6c0,0-0.5,2.9-0.5,3.6s-4.4,5.6-4.4,5.6l4,1.9l0.1-3.5l2.5-3.2l0.4,3.5l1.8-2c0,0,0.3,2.5,0.3,2.8
			s-1.6,4.1-1.6,4.1l3-0.7c0,0,0-2.4,0.1-2.7c0.1-0.4,0.8-2.4,1-2.1l0.7,2.5l-1.1,2.8l-0.8,1.5c0,0-19,0.5-19.4,0.5
			S77,116.6,77,116.6l-38.3,13.5L30.9,130.5z"/>
		<path class="st3" d="M4.9,130.3c0,0,0.3,0,2.6,0.4c2.4,0.4,16.8,2.3,27.3-2.7s12.1-5.6,16.7-8.3c4.6-2.6,15.9-10.2,29.5-9.4
			c13.6,0.8,25,5.9,28.6,8.4c3.5,2.5,8.5,6.5,10.6,8.6c2.1,2,8,5.3,11,5.7c3,0.5,5,0.5,7.1,0.2s4.8,0.8,7.5,1.1
			c2.6,0.3,4.5,1.3,4.5,2.6c-0.1,1.4-0.8,1-0.8,1s-0.2,0.9-2.1,1.3c-1.9,0.4-1.9,0-2.9,0.8s-3.4,0.1-4.6,0.5
			c-1.3,0.4-1.8,0.9-3.3,1.2s-2,0.2-2.7,0.5s-6.4,1-8.8,1.6c-2.5,0.6-2.7,1-2.3,1.7c0.5,0.7,2.9,4.7,4.2,5.6
			c1.3,0.9,2.2,1.3,2.5,2.7c0.3,1.5,0.4,2,0.3,3.1c-0.1,1.1-0.2,2,0.6,2.9s1.4,1.2,1.9,2.2s1.2,1.5,0.7,2s-1.9-0.5-1.9-0.5
			s-1,0.6-1.8,0.4c-0.8-0.3-2.5-1.2-3.8-1.7s-2.4-1.1-2-1.7c0.4-0.6,0.9-1.4,0.6-2.3c-0.3-0.9-0.5-1.7-1.2-2.1
			c-0.6-0.4-3.5-3.2-4.5-3.3s-2.9-1.5-3.4-2.4c-0.5-0.8-1.7-3.5-1.7-3.5s-2.9,0-3.6,1.5s-0.5,3.8-0.5,4.8s0.2,1.6,0.1,3.2
			c-0.1,1.5-0.9,2.5,0.2,3.4s1.8,1.5,2.9,2s1.4,0.7,2.3,1.5c0.9,0.7,1.8,1.5,1.5,1.7c-0.4,0.3-1.9,0.1-2.2,0
			c-0.3-0.1-1.5-0.2-2.4-0.2s-1.5,0.5-2.8,0.2c-1.3-0.4-2.2,0-2.8-0.7c-0.6-0.7-0.6-1.2-0.8-1.9c-0.2-0.7-2.5-4.5-2.8-6.1
			c-0.3-1.5-1.3-4.7-1.3-5s-0.1-1.5-0.1-1.5s-5.3-1.3-7.2-1.4c-1.9-0.1-4.7-0.2-4.7-0.2s-0.5,2.1-0.5,3.7c0,1.6-0.4,4.4,0,5.7
			c0.4,1.4,0.5,2.1,1.6,3c1.2,0.9,1.1,1.3,2.6,2.1s2.9,2.2,2.9,2.2l-3.6-0.2c0,0-1.3,0.2-1.9,0.2s-3.1,0.3-4-0.1
			c-0.9-0.4-1.5-1.1-2.4-2.7c-0.9-1.6-1.2-1.7-1.1-3.6c0.1-1.9-0.8-3.2-1.5-4.1c-0.6-0.9-1.9-2.8-2.3-4.1s-0.7-2.8-0.7-2.8
			s-4.5,0.2-5.6-0.6c-0.1,0.1-1.2,2.6-2.6,3.5c-1.5,0.8-3.4,0.3-3.5,0.6c-0.1,0.4-2,2.2-2.8,3.1c-0.8,0.9-2,1.3-2,2.5
			s-0.3,1.6,0.3,2.9c0.5,1.3,0.3,1.7,1.5,2.6c1.2,0.9,1.8,1.2,2.1,1.9c0.3,0.7,0.3,1.1,0.3,1.1s-2.5-0.5-3-0.6s-1.2-0.8-1.2-0.8
			s-0.2,0.8-0.9,0.8s-2.6-0.3-3.5-2.4c-0.9-2.1-1.6-5.2-1.5-5.9c0.2-0.7,1.2-1.5,1.7-2.6c0.5-1.2,1.7-3.6,1.7-3.6s0.3,0.1,0.6-1.2
			c0.4-1.3,1.5-2.9,2.4-3.9c0.8-1,1.4-1.4,1.7-2.1c0.4-0.7,1.5-1.3,0.7-1.9c-0.8-0.6-1-0.6-2-1.2c-1-0.5-3-4.1-3-4.1
			s-33.4,3.7-46.1-1.5C0.5,128.6,4.9,130.3,4.9,130.3z"/>
		<path class="st3" d="M21,132.1c0,0-5.6-9-6.8-13.2c0.2-0.4,9.1,12.1,9.1,12.1S22.7,133,21,132.1z"/>
		<path class="st3" d="M23.9,130.9c0,0,0.8-9.2-0.4-12.2c0-0.2,3.2,5.7,2.6,11.9C26,130.6,23.9,130.9,23.9,130.9z"/>
		<path class="st3" d="M16,131c0,0,0.2,1.3-0.9,1.4c-1.1,0.1-1.9,0.2-2-0.5s-4.6-7.8-4.8-10.3s1.4,1.6,2.5,3.4
			C11.8,126.7,16,131,16,131z"/>
		<path class="st3" d="M17,131.3c0,0,2.2-6.8-0.2-13.1c0.4,0.5,2.3,3.8,2.4,6.3s-0.4,6.8-0.4,6.8H17z"/>
		<path class="st4" d="M62.2,126.2c0.1,1.6,1.2,2.9,2.4,4s2.5,2,3.5,3.2c0.8,1,1.3,2.1,1.9,3.1c2.3,3.9,6,7,8,11.1"/>
		<path class="st4" d="M72.2,146.9c-0.6-0.5-1.1-1-1.7-1.5c-0.3-0.2-0.6-0.5-0.8-0.8c-0.3-0.4-0.4-0.9-0.6-1.4
			c-0.4-0.8-1-1.4-1.9-1.7c-0.4-0.1-0.8-0.2-1.1-0.6"/>
		<path class="st4" d="M63.4,133.4c0.2,1,1,1.8,1.8,2.4c1.4,1.1,2.8,2.2,4.2,3.4c0.3,0.3,0.7,0.5,0.9,0.9c0.5,0.7,0.7,1.5,1,2.4
			c0.7,2.2,2,4.4,4.2,4.9"/>
		<path class="st4" d="M76.7,147c-0.1,0.1-0.3,0-0.5-0.1c-1.1-1-2-2.4-2.6-3.8"/>
		<path class="st4" d="M58.4,129.6c0,1.6,0.9,3.2,2.2,4.2c0.6,0.4,1.3,0.7,2,0.5"/>
		<path class="st4" d="M57.5,131.3c0.2,0.5,0.2,1,0.4,1.5c0.4,1,1.4,1.6,2.3,2.1c0-0.1,0-0.2,0-0.3"/>
		<path class="st4" d="M60,130.2c0.4,0.6,0.9,1.1,1.5,1.6c0.4,0.3,0.8,0.6,1.1,1s0.5,0.9,0.3,1.4"/>
		<path class="st4" d="M63,132.1c-0.5-1.1-1.1-2.1-1.7-3.1"/>
		<path class="st4" d="M101.4,142c0.1-0.4,0.2-0.7,0.3-1.1c0.1-0.5,0.3-0.9,0.6-1.3c0.3-0.3,0.6-0.6,1-0.8c0.5-0.3,0.9-0.6,1.5-0.8
			c0.3-0.1,0.6-0.1,0.9-0.2c0.8-0.1,1.7-0.3,2.5-0.1c0.8,0.1,1.7,0.6,2.1,1.3c-0.1-0.1-0.2-0.1-0.3-0.1"/>
		<path class="st4" d="M101.7,143.5c0.1,0,0.1,0.2,0,0.2s-0.2,0-0.3,0c-0.6-0.3-0.9-1-1-1.6c-0.3-1.5,0-3.1,0.9-4.3
			c0.6-0.8,1.4-1.4,2.1-2.1c0.7-0.7,1.4-1.5,1.5-2.5"/>
		<path class="st4" d="M102.5,133c-0.9,1.4-1.8,2.9-2.7,4.3c-0.3,0.5-0.6,1-0.8,1.5c-0.2,0.5-0.2,1.1-0.1,1.7
			c0.1,1.7,0.9,3.4,2.4,4.3"/>
		<path class="st4" d="M93.2,148.2c0.5-1.1,0.7-2.3,0.3-3.5c-0.6-1.9-2.5-3.2-2.8-5.2c-0.2-1.2,0.1-2.7-0.7-3.5"/>
		<path class="st4" d="M88.8,147.8c0.6-2.1,0.7-4.4,0.1-6.5c-0.2-0.9-0.5-1.7-0.6-2.6c0-0.6,0.1-1.3,0.1-1.9
			c-0.1-1.5-0.9-2.7-1.3-4.1c-0.4-1.3-0.4-2.7-0.8-4c-0.3-1.3-0.9-2.3-0.9-3.7c0-1.6,0.5-3.1,1.3-4.5"/>
		<path class="st4" d="M85.8,119.8c-0.4,0.4-0.6,1-0.8,1.5c-0.4,2-0.1,4.2,0.9,6"/>
		<path class="st4" d="M87.3,132.3c-0.3-0.9-0.4-1.8-0.4-2.7c-0.1-1.5,0.2-2.9,0.4-4.3c0.1-0.4,0.1-0.7,0.2-1.1"/>
		<path class="st4" d="M88.3,128.8c-0.1,1.8-0.2,3.5-0.3,5.3"/>
		<path class="st4" d="M64.9,137.9c1.3,1.1,3.1,1.7,3.8,3.2c0.3,0.7,0.4,1.4,0.8,2"/>
		<path class="st4" d="M66,144.2c0.5,0.2,1,0.7,1.2,1.2c0.2,0.4,0.2,0.9,0.4,1.3c0.3,0.7,0.8,1.4,1.6,1.7"/>
		<path class="st4" d="M63.8,147.9c0.3,1.2,1.2,2.3,2.3,2.7"/>
		<path class="st4" d="M63,149.4c0.5,0.8,1.1,1.5,1.9,2.1c0.1,0,0.2,0,0.1-0.1"/>
		<path class="st4" d="M59.5,159.6c0-0.1,0.1-0.1,0.2,0c0,0.1,0,0.1,0,0.2c0,1.4,1.4,2.3,1.8,3.6c0,0.1-0.1,0.2-0.1,0.1"/>
		<path class="st4" d="M87.8,162c0.2,0,0.4,0.1,0.6,0.2c1.2,0.7,2.3,1.6,3.1,2.7"/>
		<path class="st4" d="M108.5,163.7c1.1-0.1,2.2,0.3,2.9,1"/>
		<path class="st4" d="M111.3,162.6c1.1,0.3,2,1.1,2.5,2.1c0-0.1,0-0.2,0-0.3"/>
		<path class="st4" d="M128,160.5c1,0.7,1.8,1.7,2.3,2.8c0,0.1,0.1,0.2,0,0.2c0,0.1-0.2,0-0.1-0.1"/>
		<path class="st4" d="M124.3,158.9c0.9,0.3,1.8,0.4,2.7,0.4c0.4,0,1-0.1,1.1-0.5"/>
		<path class="st4" d="M124.5,157.9c1,0.4,2.1,0.4,3.1,0.1"/>
		<path class="st4" d="M126.7,156.2c-0.5,0.1-0.8,0.4-1.3,0.6c-0.7,0.3-1.5,0.2-2.1-0.1"/>
		<path class="st4" d="M113,146.6c0.9-0.2,1.6-0.7,2.2-1.4c0.1-0.1,0.2-0.3,0.4-0.4c0.1-0.1,0.3-0.2,0.4-0.2c0.9-0.3,1.8-0.1,2.7,0
			c0.8,0,1.5,0,2.3-0.1c0.2,0,0.5-0.1,0.7-0.3s0.3-0.4,0.2-0.7"/>
		<path class="st4" d="M113,139.1c0.5,0.9,0.6,2.1,0.1,3.1c-0.4,0.7-1,1.2-1.4,1.9c-0.4,0.5-0.7,1.1-1,1.7"/>
		<path class="st4" d="M101.6,151.1c-0.3-0.6,0-1.3,0.4-1.8c0.6-0.8,1.6-1.3,2.6-1.3"/>
		<path class="st4" d="M103.7,146.9c-1.3,0.1-2.4,1.2-2.6,2.4c-0.1-0.7-0.2-1.5-0.1-2.2c0.4-1.9,0.8-3.8,1.2-5.7"/>
		<path class="st4" d="M116.8,140c0.3,0.9-0.1,1.9-0.5,2.7c-0.5,0.8-1.1,1.6-1.3,2.5"/>
		<path class="st4" d="M116.3,144.2c0.1-0.2,0.1-0.4,0.1-0.6c0.3,0.1,0.6-0.2,0.8-0.4c0.9-1,1.4-2.5,1.3-3.9"/>
		<path class="st4" d="M118.5,143.4c1.3-0.8,2.2-2.3,2.3-3.8"/>
		<path class="st4" d="M138.7,135.1c0.5,0.1,1.1,0.2,1.5-0.1c0.1-0.1,0.2-0.2,0.3-0.2c0.5-0.4,1.3-0.3,1.8,0.2
			c0.2,0.2,0.3,0.5,0.2,0.8s-0.6,0.4-0.9,0.2s-0.4-0.6-0.3-1"/>
		<path class="st4" d="M146.7,135.8c0.5,0,1,0.2,1.4,0.5"/>
		<path class="st4" d="M139.2,138.9c0.7,0,1.4-0.1,2.1-0.3c0.4-0.1,0.8-0.3,1.2-0.5c1.4-0.5,2.8-0.5,4.3-0.5c0.6,0,1.3,0,1.9,0.2"/>
		<path class="st4" d="M138.6,138.2c0.1-0.1,0.2-0.3,0.2-0.5C138.8,137.9,138.8,138.1,138.6,138.2"/>
		<path class="st4" d="M138.4,136.5c0.1,1.4,0.1,2.7-0.2,4.1c0-0.1-0.1-0.2-0.1-0.3"/>
		<path class="st4" d="M137.3,137.3c0.4,1.1,0.4,2.4-0.2,3.5l0,0"/>
		<path class="st4" d="M136.1,137.4c0.1,0.8,0.2,1.5,0.2,2.3c0,0.6-0.1,1.4-0.7,1.6"/>
		<path class="st4" d="M132.3,139.5c0.2,0.8,0,1.6-0.6,2.2"/>
		<path class="st4" d="M67.6,98.7c0.2,2.4-0.5,4.9-2,6.9c-0.1,0.2-0.3,0.4-0.3,0.6c-0.2,0.7,0.6,1.2,1.2,1.5c1.6,0.9,3.3,2,3.9,3.7
			c0-0.2,0-0.4,0-0.5"/>
		<path class="st4" d="M78,94C78.1,94,78,93.8,78,94c-0.2,0-0.1,0.2,0,0.2c1.9,2.1,3.8,4.2,5.7,6.3c0.4,0.5,0.9,1,0.9,1.7
			c0,0.3-0.1,0.6-0.2,0.8c-1,2.3-1.9,4.7-2.9,7c0-0.2,0-0.4,0-0.6"/>
		<path class="st4" d="M71.3,92.2c0.6,2.6,1.2,5.1,1.9,7.7c0.7,2.9,1.4,5.8,1.7,8.7c0-0.2,0.1-0.3,0.1-0.5"/>
		<path class="st4" d="M70.6,98.1c1.3,3.9,2.6,7.8,3.6,11.8c0-0.1,0-0.2,0-0.4"/>
		<path class="st4" d="M70.1,101.8c0.5,1.5,1,2.9,1.6,4.3c0.7,1.4,1.5,2.7,1.6,4.2c0-0.1,0-0.2,0-0.4"/>
		<path class="st4" d="M68.5,104.5c-0.1,0.2,0,0.4,0.1,0.6c0.8,1.4,1.5,2.9,2.3,4.3c0.3,0.5,0.6,1.1,1.2,1.1"/>
		<path class="st4" d="M76.3,110.1c0.3-2.7,0.5-5.4,0.5-8.1"/>
		<path class="st4" d="M78.3,99.3c0.3,3.8,0.1,7.6-0.8,11.3c0-0.2,0-0.4,0-0.5"/>
		<path class="st4" d="M74.7,99.1c0.3,0.8,0.4,1.6,0.4,2.4c0.1,1.9,0.2,3.8,0.3,5.8"/>
		<path class="st4" d="M80.2,100.3c-0.3,3.2-0.8,6.4-1.6,9.5c0-0.1,0.1-0.2,0.1-0.3"/>
		<path class="st4" d="M81.8,102.3c0.1,0.4,0,0.8-0.1,1.2c-0.5,2.1-1.1,4.2-1.6,6.3"/>
		<path class="st4" d="M91.6,98.8c-0.1-0.1-0.3,0.1-0.4,0.2c-0.8,1.9-2.1,3.7-3.6,5.1c-0.3,0.2-0.5,0.5-0.6,0.8c0,0.1,0,0.3,0.1,0.4
			c0.5,1.9,0.9,3.8,1.4,5.7c0,0.1,0.3,0.3,0.3,0.1"/>
		<path class="st4" d="M102,99.3c1.8,3.2,2.9,6.8,3,10.4c-2,1.2-3.8,2.7-5.4,4.5c-0.1-0.3,0-0.5,0.1-0.8"/>
		<path class="st4" d="M111.2,113c-0.7,2-1.4,3.9-2.1,5.9c0-0.3,0.1-0.6,0.3-0.8"/>
		<path class="st4" d="M118.2,111.7c0,1.8-0.1,3.6-0.1,5.4c0,0.5,0,1-0.3,1.3c-0.2,0.3-0.5,0.4-0.9,0.6c-1.1,0.6-2.2,1.3-3.1,2.1
			c0-0.2,0-0.3,0-0.5"/>
		<path class="st4" d="M112.3,120.2c1.8-2.5,3.7-5.1,4.6-8"/>
		<path class="st4" d="M116,110.1c-1,3.2-2.4,6.2-4.1,9.1"/>
		<path class="st4" d="M114.1,111.1c-1.1,2.5-2.1,4.9-3.3,7.3"/>
		<path class="st4" d="M109.4,115.3c-0.3,0.6-0.5,1.3-0.5,2"/>
		<path class="st4" d="M118.5,119.8c-0.7,0.9-1.5,1.8-2.5,2.4"/>
		<path class="st4" d="M127.2,121.3c-0.4,0.2-0.5,0.7-0.5,1.2c0,1.2,0,2.5-0.1,3.7c-0.5,0-0.9,0.3-1.3,0.6c-0.7,0.5-1.5,1-2,1.7
			c-0.1,0.1-0.2,0.2-0.3,0.2s-0.1-0.3,0-0.2"/>
		<path class="st4" d="M123,122.8c-0.7,1.4-1.1,2.9-1.3,4.4"/>
		<path class="st4" d="M124.1,123c-0.8,1.6-1.5,3.2-2.1,4.9"/>
		<path class="st4" d="M125.4,124.1c-0.9,1.3-1.8,2.7-2.7,4"/>
		<path class="st4" d="M55,103.4c1.6,0.8,3.1,1.7,4.7,2.4c1,0.5,2,0.9,3.1,1.1c-1,2.1-0.3,4.7-1,7c0,0.1-0.1,0.2-0.2,0.2
			c-0.1,0,0-0.2,0-0.1"/>
		<path class="st4" d="M47.5,110.7c0-0.1-0.1-0.1-0.2,0c-0.1,0.1-0.1,0.1-0.1,0.2c0,2.3-0.4,4.5-0.9,6.7c0.5,0.3,1,0.5,1.5,0.6"/>
		<path class="st4" d="M39.8,116.3c0.4,0.4,1,0.6,1.5,0.9c1.1,0.5,2.2,0.9,3.3,1.4c-0.1,1.3-0.2,2.6-0.4,4c0,0.1,0,0.2-0.1,0.2
			s-0.1-0.2,0-0.1"/>
		<path class="st4" d="M33.3,124.1c0-0.2-0.3,0-0.3,0.1c0,0.3,0.3,0.4,0.5,0.6c1.1,0.7,2.2,1.4,3.5,1.8c-0.1-0.1-0.2-0.2-0.3-0.3"/>
		<path class="st4" d="M34.2,122.2c1,1.1,2,2.2,3.1,3.2c0.2,0.2,0.4,0.3,0.6,0.3c0-0.1,0-0.2,0-0.4"/>
		<path class="st4" d="M35.5,119.9c0,0.2,0,0.3,0.1,0.5c0.6,1.4,1.4,2.6,2.4,3.6c0.2,0.2,0.5,0.4,0.7,0.4c0-0.1,0-0.2,0-0.3"/>
		<path class="st4" d="M36.6,118.2c0.8,2,1.7,3.9,2.9,5.7c0.2,0.2,0.4,0.5,0.6,0.5c0-0.4-0.1-0.8-0.2-1.2"/>
		<path class="st4" d="M38.8,118.1c0.7,1.9,1.4,3.8,2.3,5.6c0-0.2,0-0.5,0-0.7"/>
		<path class="st4" d="M41.9,113.2c0.9,1.5,2.5,2.5,3.3,4"/>
		<path class="st4" d="M49.1,110.8c1.2,1.1,2.3,2.3,3.4,3.5c0.4,0.4,0.7,0.8,1,1.3c0.2,0.4,0.4,0.7,0.6,1.1"/>
		<path class="st4" d="M48.2,113.7c0.3,0.4,0.7,0.7,1.1,1c1.2,1,2.5,2,3.7,3c0.1,0.1,0.3,0.3,0.2,0.4"/>
		<path class="st4" d="M47.8,116.1c0.9,0.7,1.8,1.3,2.7,2c0.5,0.4,1,0.7,1.6,1c0.1-0.1,0.2-0.2,0.2-0.4"/>
		<path class="st4" d="M49.4,106.6c0.2,0.4,0.5,0.7,0.7,1.1c2.3,2.5,4.7,5,6.1,8.1c0-0.2,0-0.3,0.1-0.5"/>
		<path class="st4" d="M51.7,104.7c2.3,2,4,4.6,4.9,7.5c0.4,1.2,0.7,2.6,1.5,3.6"/>
		<path class="st4" d="M57.3,106.8c1.1,2.4,1.9,5.1,2.1,7.8c0-0.2,0.1-0.4,0.1-0.5"/>
		<path class="st4" d="M58.9,100.4c0.4,1.3,0.9,2.5,1.6,3.6c0.2,0.3,0.4,0.6,0.8,0.6"/>
		<path class="st4" d="M61.4,99c1.2,4.2,2.5,8.4,4,12.6"/>
		<path class="st4" d="M63.1,107.7c0.4,1.6,0.9,3.2,1.4,4.8c0-0.2,0-0.3,0-0.5"/>
		<path class="st4" d="M65.9,108.7c0.3,1.1,0.6,2.1,1,3.1"/>
		<path class="st4" d="M63.4,99.5c0.6,1.7,1.2,3.5,1.8,5.2"/>
		<path class="st4" d="M86.3,95.9c0.1,3.2,0,6.5-0.4,9.7c-0.2,1.5-0.4,3.1-0.3,4.6c-0.3-0.1-0.6-0.1-0.9,0c0-1.9,0.1-3.9,0.1-5.8"/>
		<path class="st4" d="M84.7,95.6c0,1.5,0.1,3,0.1,4.5"/>
		<path class="st4" d="M82,92.8c0.3,2,0.7,4,1,6"/>
		<path class="st4" d="M92.9,100c0.5,4.2,0.5,8.5-0.2,12.6c0-0.2,0-0.4,0-0.5"/>
		<path class="st4" d="M90.4,103.1c0.2,2.4,0.4,4.8,0.6,7.2c0,0.5,0.1,1,0.1,1.5"/>
		<path class="st4" d="M94.7,112.7c1.5-5,2.4-10.1,2.7-15.3"/>
		<path class="st4" d="M95.8,99.7c0,2.4-0.1,4.9-0.4,7.3c-0.1,0.8-0.2,1.5-0.5,2.2"/>
		<path class="st4" d="M99,100.3c0,4.3-0.8,8.6-2.4,12.6"/>
		<path class="st4" d="M98.1,113.3c1.3-2.7,2.4-5.5,3.2-8.4"/>
		<path class="st4" d="M103,105.2c-0.3,2.1-1.1,4.1-2.3,5.8"/>
		<path class="st4" d="M106.4,102.3c-0.2,0.9-0.3,1.9-0.5,2.8"/>
		<path class="st4" d="M108.5,105.1c-1.1,2.3-2.3,4.7-3.5,6.9c-0.5,0.9-1,1.8-1.8,2.4"/>
		<path class="st4" d="M103.9,111.2c-0.6,1.1-1.2,2.3-1.8,3.4"/>
		<path class="st4" d="M121.6,115.6c-0.7,1.6-1.4,3.1-2.2,4.6"/>
	</g>
	<g>
		<path class="st2" d="M171.3,32.9c0-0.2-0.8-1.5-0.3-2.9c0.5-1.3,1.6-2.7,2.3-3.2s1.4-0.7,2.1-0.6c0.7,0.1,2,0.2,2.4,0.2
			s2.1,0.2,2.7,0.2c0.6,0,0.8,0.4,1.8,0s1.6-0.8,2.2-1.1c0.6-0.2,2.2,0.4,2.8,0.8c0.7,0.4,1.2,0.7,1.8,0.7s2,0.6,2.8,1.9
			s0.9,0.8,1.5,1.1c0.6,0.3,1.1,0.6,1.4,1.2c0.3,0.6,0.5,1.6,0.4,2.1s0.8,2.5,1.9,3.4c1.1,0.9,5,2.9,6.3,3.3
			c1.3,0.4,1.8,1.2,2.5,1.4c0.8,0.2,0.9,0,1.8,0.3c0.9,0.2,2.5,0.2,5.3,2.2c2.8,1.9,5.4,3.6,6.7,4.6c1.3,1.1,1.6,1.6,2.9,2.3
			c1.3,0.7,3,1.5,4.1,1.8c1.1,0.4,4.3,3.1,6,5.7c1.6,2.6,1.3,4.4,3.2,6.2c1.9,1.7,3.9,5.4,4.4,7.7c0.5,2.3,0.7,3.3,1.3,5.8
			s0.7,4.7,1.6,7.5c0.9,2.8,2.3,7.7,3.1,9.4c0.9,1.7,2.5,5.4,5.8,6s7-1.1,7.2-0.5s-3.8,3.8-8.2,4c-4.5,0.2-12.1-5.4-16.8-15.1
			s-8-9.5-8-9.5s-0.4,1.3,0.1,1.8s2.4,1,3.4,1.8c0.9,0.7,2.1,1.5,2.6,3.4c0.5,1.8,0.5,2.4,1.4,4.1c0.9,1.8,1.9,2.5,2.4,3
			c0.6,0.5,1.1,0.6,1.1,1.6c0,0.9,0.1,0.7-0.3,2.2c-0.4,1.5-0.6,2.4-0.5,4s0.4,2.7,0.1,3.6c-0.3,0.9-1.1,1.9-1.1,2.4
			s0.2,0.7-0.3,0.9c-0.6,0.1-2.3,0.4-2.8,0.5s-0.9-0.5-0.9-0.5s-1.5,0.1-2.2,0.1c-0.7,0.1-1.4-0.1-1.6,0.2c-0.3,0.3-1.5,0.3-1.5,0.3
			V108c0,0-2.1-0.1-2.4,0.4s0.8-2.1,1.9-2.5c1.1-0.4,2.7-0.3,3.4-0.8c0.7-0.4,2.3-1.7,2.6-3.5s0.3-3.2,0.2-3.7s0-1,0-1.5
			s-0.5-1.2-0.9-1.5c-0.5-0.3-10-8.5-11-9c-0.9-0.5-1.3-0.4-1.6-1.6c-0.2-1.3-1-3.5-1.3-4.4s-0.7-2.3-0.7-2.5
			c-0.1-0.2-2,1.2-3.7,1.8c-1.7,0.6-3.5,0.8-3.8,1.5c-0.4,0.7-0.8,2.2,0.2,3.2c0.9,1,1.4,2.2,1.3,3.6c-0.1,1.4-0.1,2.9-0.4,4.1
			c-0.3,1.2-0.4,2.5-0.2,3.5s0.3,2,0.5,3c0.2,0.9,0,2-0.4,2.3c-0.4,0.4-0.9,0.8-1,1.1c-0.1,0.3,0,0.7,0,1.7s0,1.2-0.5,1.9
			c-0.5,0.6-1.1,1.3-1.1,1.3l-0.5-3.4c0,0-0.3-0.5-1.4,1.4c-1,1.9-0.6,1.9-1.1,2.6c-0.5,0.8-3.3,1-4.3,1s-4.3,0.1-4.3,0.1
			s-1.3,0.3-2,0.4c-0.6,0.1-1.4,0.1-1.4,0.1l0.8-1.1l-2.2,0.7c0,0,0.6-1.2,1.1-1.9c0.6-0.7,1.6-1.2,2.6-1.2c1.1,0,2.8,0.1,3.5-0.3
			c0.6-0.4,1.7-1.1,2.7-1.9s1.3-0.6,2-1.6c0.7-0.9,1-1.6,1-1.6c0.5-1.5,0.4-1,0.5-2.4s0.4-1.8-0.9-5.8c-1.3-4-2-6.3-2.1-7.2
			c-0.1-0.8,0.3-0.6,0-1.5s-0.8-1.4-0.8-2.6s0.7-2.1,1.3-3.1c0.6-1.1,1.8-3.5,2.6-4.9s2.3-4.3,2.3-4.3s-5.5-3.5-7.3-5.6
			c-1.8-2.2-2.5-2.9-3.1-3.5S194,57,194,57s-0.5,0.9-1.1,1.4c-0.6,0.6-3.4,0.1-3.9,0s-1.8-0.4-2.5-0.3c-0.7,0.1-0.7,0.1-1.4,0.8
			c-0.7,0.8-1.1,1.4-1.1,1.4l-0.3-0.9c0,0-0.9,1.1-0.7,0.5c0.1-0.5,0.7-1.2,1.1-1.9c0.5-0.7,0.6-1.1,1.5-1.4
			c0.9-0.4,1.3-0.3,1.8-0.3c0.5,0.1,1.1,0.1,1.1,0.1s1.2,0.1,2,0s1-0.7,0.7-0.9c-0.3-0.3-0.7-0.4-0.9-0.3c-0.2,0.1-0.5,0.6-0.5,0.6
			s0-0.7-0.2-0.6c-0.2,0.1-0.8,0.5-0.9,0.7c-0.2,0.1-0.6,0-0.1-0.8s0.7-1.3,1.2-1.6s0.5-0.5,0.9-0.4c0.4,0,0.8,0.1,0.8,0.1
			s0.3-0.8,0.4-1.3c0.1-0.5,0.4-1.1,0.3-1.3c-0.1-0.2-2.8-3.4-3.5-4.9s-1.1-2.3-1.8-2.1s-1.8-0.3-2.7,0.3c-1,0.6-1.2,0.8-2,0.6
			c-0.7-0.1-1.6-0.5-1.8-0.8c-0.1-0.3-1.3-0.3-1.7-0.2c-0.4,0.2-2.4,0-3.2-0.9s-1.2-1.9-1.2-2.4s0.1-1.5,0.5-1.1s0.9,0.5,0.9,0.5
			s-0.5-1.3,0-1.1c0.5,0.3,1,0.8,1.1,0.6s-0.3-1.3,0.3-0.9c0.6,0.4,0.8,0.5,0.8,0.5s-0.3-1.2,0-1s0.5,0.3,0.7,0.4s-0.1-0.8,0.2-0.9
			c0.3-0.1,0.4,0,0.7,0.2c0.3,0.3,0.5-0.6,0.5-0.6s-0.6-0.3-1-0.4c-0.5-0.1-0.6-0.4-0.8-0.6c-0.2-0.2-0.8-0.6-0.8-0.2
			c0,0.4-0.9,0.5-0.9,0.1s-0.3-0.3-0.5,0c-0.3,0.3-0.7,1-0.8,0.3s-0.5-1.4-0.5-0.8c-0.1,0.6-0.4,1.2-0.5,0.7s-0.4-1-0.4-1L173,35
			l-0.3-0.8c0,0-0.5,0.7-0.5,0.5s-0.2-1.2-0.2-1.2l-0.4,0.7L171.3,32.9z"/>
		<path class="st4" d="M176.1,40c1.2-0.3,2.3-0.7,3.4-1.3c0.9-0.5,1.7-1.1,2.6-1.4c0.7-0.3,1.4-0.4,2-0.7s1.1-0.9,1.7-1.2
			c0.9-0.4,2-0.4,2.6-1.2c0-0.1,0.1-0.1,0.1-0.2c0-0.2-0.2-0.2-0.4-0.2c-0.9,0.1-1.8,0.4-2.6,0.3c-1.4-0.1-2.7-0.9-4.1-1
			c-1.2-0.1-2.4,0.5-3.5,0c-0.5-0.2-0.9-0.5-1.3-0.8c-0.8-0.5-1.8-0.8-2.7-0.9c-0.8-0.1-1.8,0.2-2.1,0.9c-0.1,0.3,0,0.7,0.3,0.8"/>
		<path class="st4" d="M172.8,32.2c-0.1,0.4,0.1,0.9,0.6,1c0.1-0.3,0.2-0.6,0.4-0.9"/>
		<path class="st4" d="M173.9,32.5c-0.1,0.4,0,0.7,0.3,1c0.3-0.3,0.5-0.7,0.7-1.1c0,0.4,0.1,0.9,0.5,1.2c0.3-0.3,0.5-0.7,0.6-1.1
			c0.1,0.4,0.2,0.8,0.3,1.1c0,0.2,0.2,0.4,0.4,0.3c0.1,0,0.1-0.1,0.1-0.2c0.1-0.2,0.2-0.5,0.3-0.7c0,0.5,0,1.1,0.5,1.3
			c0.1-0.3,0.2-0.6,0.3-0.9c0,0.5,0.2,1,0.5,1.4c0.3-0.3,0.4-0.7,0.3-1.1c0.2,0.3,0.1,0.8,0.4,0.9c0.2,0.1,0.4-0.1,0.5-0.3
			s0-0.4,0-0.6c0,0.4,0.3,0.8,0.6,0.9c0.2-0.3,0.2-0.7,0.2-1c0.2,0.2,0.3,0.4,0.5,0.6c0.2-0.1,0.3-0.3,0.4-0.6
			c0.1,0.2,0.2,0.3,0.2,0.5c0.1-0.2,0.3-0.3,0.4-0.5c0,0.2,0.2,0.5,0.4,0.4c0.2,0,0.4-0.3,0.3-0.5c0,0.3,0.1,0.6,0.3,0.9
			c0.2-0.2,0.4-0.4,0.6-0.7c0.1,0.3,0.2,0.6,0.2,0.9c0.2-0.1,0.4-0.3,0.5-0.6c0,0.3,0.2,0.7,0.4,0.8c0-0.1,0.1-0.3,0.2-0.4
			c0.1,0.1,0.1,0.3,0.2,0.4c0.2-0.3,0.3-0.6,0.2-0.9"/>
		<path class="st4" d="M180.1,38.2c0-0.5,0.3-1,0.7-1.3c0.1,0.3,0.2,0.5,0.4,0.8c0-0.4,0-0.7,0.2-1c0-0.1,0.1-0.1,0.1-0.1
			c0.1,0,0.2,0.1,0.2,0.2c0.1,0.2,0.2,0.4,0.2,0.6c-0.1-0.4,0-0.7,0.1-1.1c0-0.1,0.1-0.2,0.2-0.1c0.1,0,0.1,0.1,0.1,0.1
			c0.2,0.3,0.3,0.5,0.5,0.8c-0.1-0.4,0-0.9,0.1-1.3c0.4,0,0.5,0.4,0.6,0.8c0-0.4,0.1-0.8,0.3-1.1c0.1,0,0.2,0.1,0.3,0.3
			c0,0.1,0.1,0.3,0.2,0.3c0-0.1,0.1-0.2,0.1-0.1"/>
		<path class="st4" d="M174.2,27.6c-0.4,0.4-0.8,0.8-1.1,1.3c-0.1,0.2-0.2,0.4-0.1,0.5"/>
		<path class="st4" d="M183.4,28.5c0.3-0.6,0.8-1.2,1.4-1.6c0.2-0.2,0.5-0.3,0.7-0.3c0.3,0,0.5,0.1,0.8,0.3c0.4,0.3,0.7,0.8,0.9,1.3
			c0.1,0.3,0.1,0.8-0.1,1c-0.1,0.1-0.3,0.2-0.4,0.3c-0.2,0.1-0.5,0.2-0.7,0.3c-0.2,0.1-0.4,0.1-0.5,0.1c-0.2,0-0.4-0.1-0.4-0.3"/>
		<path class="st4" d="M184.1,28.5c0.6-0.4,1.4-0.5,2.1-0.3c0,0.2,0,0.4,0,0.7"/>
		<path class="st4" d="M184.7,28.1c0-0.3,0.3-0.6,0.7-0.5c0,0.2,0,0.4,0.1,0.6"/>
		<path class="st4" d="M183.8,28.7c0,0.4,0,0.7,0.2,1.1c0.2,0.3,0.5,0.6,0.9,0.5"/>
		<path class="st4" d="M183.9,30.4c0.2,0.2,0.5,0.3,0.8,0.3c0.7,0.1,1.3-0.1,2-0.3c0.5-0.2,1.1-0.4,1.4-0.9c0.3-0.5,0.2-1.1,0.1-1.7
			"/>
		<path class="st4" d="M188.9,30.4c-0.6,1.2-2,2-3.3,1.8"/>
		<path class="st4" d="M180.2,43.1c1,0.1,2.1-0.3,3-0.8s1.8-1.1,2.7-1.5c0.5-0.2,1-0.3,1.5-0.5c0.8-0.3,1.5-0.8,2-1.5
			c0.3-0.4,0.6-0.9,0.5-1.4"/>
		<path class="st4" d="M185.4,37.7c-0.7,0.6-1.5,1.1-2.3,1.5s-1.7,0.7-2.7,0.7"/>
		<path class="st4" d="M188.2,38.2c0.2,0.7-0.1,1.4-0.6,1.9c-0.1,0-0.1-0.1-0.1-0.2"/>
		<path class="st4" d="M188.8,37.8c0.1,0.3,0.2,0.7,0.1,1.1c0,0.2-0.2,0.5-0.4,0.5"/>
		<path class="st4" d="M190.7,33c0.4-0.1,0.7-0.3,0.9-0.5c0.1-0.1,0.2-0.3,0.3-0.4c0.3-0.4,1-0.5,1.4-0.2"/>
		<path class="st4" d="M194.8,31.9c1,1.2,0.3,2.8-0.8,3.5"/>
		<path class="st4" d="M194.7,33.1c-0.5,1.3-1.7,2.4-3.1,2.7"/>
		<path class="st4" d="M194.3,37.3c-0.3,0.7-0.7,1.3-1.2,1.9c-0.5,0.5-1,0.8-1.6,1.2c-0.1,0.1-0.3,0.2-0.4,0.3
			c-0.7,0.4-1.4,0.9-1.8,1.6"/>
		<path class="st4" d="M191.2,41.9c0.4-0.3,0.8-0.6,1.2-0.9c1.2-0.8,2.4-1.7,2.9-3"/>
		<path class="st4" d="M195.9,37.6c0.2,0.9,0.1,1.8-0.3,2.6c-0.4,0.8-1,1.5-1.8,1.9"/>
		<path class="st4" d="M197.1,40.2c-0.1,1.1-0.6,2.2-1.4,3"/>
		<path class="st4" d="M196.9,47.9c-0.8,2-0.6,4.3-0.8,6.5c0,0.2-0.1,0.5-0.3,0.6c-0.2,0.2-0.6,0-0.8-0.1c-0.6-0.4-1.2-1-1.9-1.2
			c-0.6-0.2-1.3-0.2-1.6-0.8"/>
		<path class="st4" d="M191.7,55.4c0.5,0.2,0.9,0.3,1.4,0.5c1.4,0.5,2.8,1,4,1.8c0.5,0.4,1.1,0.8,1.8,0.7c0.5-0.1,1-0.5,1.2-1
			s0.3-1.1,0.4-1.6c0.2-1.1,0.5-2.3,1-3.3c0.3-0.6,0.6-1.1,0.9-1.7c0.5-1.3,0.2-2.8-0.6-3.9"/>
		<path class="st4" d="M202.8,47.9c0.4,0.8,0.2,1.7,0,2.6c-0.1,0.6-0.3,1.1-0.6,1.6s-0.8,0.9-1.4,0.9"/>
		<path class="st4" d="M203.7,49.8c0.1,0.4,0,0.8-0.1,1.1c-0.2,0.7-0.5,1.4-1,1.9c-0.5,0.6-1.1,1-1.8,1.1"/>
		<path class="st4" d="M198.2,42.6c-0.4,1.3-1.4,2.3-2.6,2.8"/>
		<path class="st4" d="M198,44.6c-0.3,0.6-0.9,1.1-1.5,1.4"/>
		<path class="st4" d="M199.8,41.5c0.1,0.5,0,1-0.2,1.4"/>
		<path class="st4" d="M202.5,43.1c0.9-0.9,2.2-1.4,3.5-1.3"/>
		<path class="st4" d="M202.8,42.2c0.4-0.3,0.9-0.6,1.4-0.8s1-0.3,1.5-0.2"/>
		<path class="st4" d="M203.6,41.1c0.2-0.3,0.6-0.4,0.9-0.3"/>
		<path class="st4" d="M207.4,67.9c0.7,0.3,1.4,0.5,2.1,0.8c0.4,0.1,0.7,0.3,1.1,0.5c1.8,1.3,1.1,4.4,2.8,5.8
			c0.7,0.6,1.4,0.5,2.2,0.8c0.7,0.2,0.8,0.7,1.2,1.2"/>
		<path class="st4" d="M216.6,76.1c-0.4-1.8-0.8-3.5-1.2-5.3c-0.1-0.5-0.2-1-0.4-1.5c-0.7-1.5-2.1-2.6-2.8-4.1"/>
		<path class="st4" d="M214.8,68.9c-0.3-1-1-1.7-1.2-2.7c-0.1-0.6-0.1-1.3-0.2-1.9"/>
		<path class="st4" d="M215,69.4c-0.5-2.2-0.5-4.6,0-6.8"/>
		<path class="st4" d="M215.8,65.8c-0.1-0.3-0.1-0.7,0-1.1c0.4-2,1-4.2,0.4-6.2"/>
		<path class="st4" d="M217.2,58.5c0.1,1.2,0.2,2.4,0.3,3.6"/>
		<path class="st4" d="M219.9,62.1c1.1,4.4,1.5,9,0.9,13.5c-0.1,1.1-0.4,2.2-0.2,3.4c0.1,0.5,0.2,0.9,0.2,1.4s-0.3,1-0.8,1.1"/>
		<path class="st4" d="M218.9,79.8c0.2,0.4,0.5,0.7,0.8,1c0.1,0.1,0.2,0.1,0.4,0.1c0.1,0,0.3-0.1,0.2-0.3"/>
		<path class="st4" d="M219.3,79.3c0.2,0.4,0.7,0.8,1.1,0.9c0-0.1,0-0.2,0-0.2"/>
		<path class="st4" d="M219.7,78.7c0.2,0.1,0.3,0.3,0.5,0.4"/>
		<path class="st4" d="M219,82.1c0,0.8,0.3,1.6,0.9,2.2c0.3,0.3,0.8,0.6,1.2,0.4c0.1-0.1,0.2-0.2,0.4-0.2c0.2-0.1,0.4,0,0.6,0.1
			c0.2,0.1,0.3,0.3,0.4,0.4"/>
		<path class="st4" d="M219.8,82.9c0,0.7,0.3,1.3,0.9,1.7c0-0.1,0.1-0.1,0.1-0.2"/>
		<path class="st4" d="M221.2,83.5c0.2,0.3,0.3,0.6,0.5,1"/>
		<path class="st4" d="M224.6,82.6c-0.4-0.7-0.5-1.4-0.4-2.2c0.1-0.8,0.3-1.5,0.5-2.2"/>
		<path class="st4" d="M225.1,79.4c0.1-0.6,0.3-1.2,0.4-1.9c0.1-0.7,0.3-1.3,0.3-2s-0.2-1.3-0.3-2c-0.4-2.2-0.5-4.4-0.2-6.6"/>
		<path class="st4" d="M225.5,71.9c0.2-1.7,1.4-3.3,1.4-5c0-1.1-0.4-2.1-0.2-3.2c0.1-0.4,0.2-0.8,0.3-1.2c0.3-1.2,0.1-2.6-0.6-3.6"
			/>
		<path class="st4" d="M226.6,79.4c-0.1-1.4,0.6-2.7,1.2-3.9c1.2-2.6,2-5.4,2.1-8.3c0-0.4,0-0.8,0.2-1.2c0.1-0.2,0.2-0.5,0.3-0.7
			c1-1.9,1-4.2,0-6.1"/>
		<path class="st4" d="M207.7,83.1c-0.2-0.5-0.3-1.1-0.2-1.6c0.1-0.4,0.3-0.8,0.6-1.2c0.2-0.2,0.4-0.5,0.7-0.6
			c0.9-0.6,2.1-0.2,3-0.7"/>
		<path class="st4" d="M201.8,80.7c0,0.5,0.1,1,0.3,1.4c0.1,0.2,0.2,0.3,0.3,0.4s0.3,0.1,0.4,0.2c0.3,0.2,0.3,0.5,0.4,0.8
			c0.3,1.4,1,2.8,2.1,3.7"/>
		<path class="st4" d="M208.6,85c0.7,0.9,0.8,2.2,0.2,3.1c-0.3,0.4-0.6,0.7-0.7,1.2c0,0.2,0,0.4,0,0.6c0.1,1.3,0.1,2.6,0.2,3.8"/>
		<path class="st4" d="M205,88.9c0,0.4,0.2,0.8,0.4,1.1c0.7,1.4,1.2,2.8,1.5,4.3"/>
		<path class="st4" d="M207.3,96.9c0.2,0.9-0.2,1.8-0.2,2.7c0,0.2,0,0.4,0,0.6s-0.1,0.3-0.2,0.5c-0.2,0.4-0.2,0.9,0,1.3"/>
		<path class="st4" d="M204.4,101.7c-1.2,0.6-1.7,2.1-3,2.6c-0.3,0.1-0.6,0.2-0.9,0.2c-0.7,0.1-1.4,0.3-2-0.1"/>
		<path class="st4" d="M193.6,107.3c0.4-0.5,0.9-0.8,1.4-1.1c0.4-0.2,0.8-0.4,1.2-0.3"/>
		<path class="st4" d="M194.9,106.6c0.4,0.2,0.7,0.7,0.7,1.1"/>
		<path class="st4" d="M192.7,106c0.4,0.2,0.8,0.5,1,0.9"/>
		<path class="st4" d="M226.6,107.7c0.4-0.9,1.4-1.6,2.4-1.7"/>
		<path class="st4" d="M225.7,105.8c0.5,0.2,0.9,0.6,1.1,1.1"/>
		<path class="st4" d="M227.8,106.9c0.3,0.4,0.5,0.9,0.5,1.4"/>
		<path class="st4" d="M232.3,108.1c-0.3-0.7,0.1-1.6,0.8-1.9c0.2-0.1,0.5-0.1,0.7-0.3c0.1-0.1,0.2-0.3,0.3-0.5
			c0.6-1.9,0.9-3.9,0.7-5.9"/>
		<path class="st4" d="M233.8,99.6c-0.1,0.7-0.3,1.4-0.4,2.2c-0.1,0.4-0.1,0.7-0.3,1.1c-0.1,0.4-0.3,0.8-0.5,1.2
			c-0.3,0.6-0.6,1.2-1.1,1.6"/>
		<path class="st4" d="M225.8,83.3c1.6,0.9,3.2,1.8,4.5,3c1.4,1.2,2.5,2.7,3,4.4"/>
		<path class="st4" d="M229.9,83.4c0.5,0.7,0.7,1.5,0.5,2.3"/>
		<path class="st4" d="M231.4,84.6c0.1,0.5,0.1,0.9,0,1.4"/>
		<path class="st4" d="M231.8,85.4c0.1,0.4,0.1,0.7-0.1,1.1"/>
		<path class="st4" d="M232.2,86.6c0,0.1-0.1,0.2-0.1,0.3"/>
		<path class="st4" d="M229.4,83.5c0.1,0.4,0.1,0.8,0.2,1.2"/>
		<path class="st4" d="M225.6,87.3c0.4,0.6,0.8,1.1,1.4,1.4c1.6,1.2,3.8,1.4,5.2,2.8c0.4,0.4,0.8,1,1.4,1.1"/>
		<path class="st4" d="M229.9,88.3c0.2,0.6-0.2,1.2-0.7,1.4"/>
		<path class="st4" d="M230.8,88.9c-0.1,0.3-0.2,0.5-0.4,0.7s-0.5,0.4-0.7,0.3"/>
		<path class="st4" d="M231.6,89.8c-0.2,0.1-0.3,0.3-0.4,0.5c-0.1,0.2-0.3,0.3-0.5,0.3c0-0.1,0-0.2,0-0.2"/>
		<path class="st4" d="M232.2,91.1c-0.1,0.1-0.1,0.1-0.2,0.2"/>
		<path class="st4" d="M232.7,91.6L232.7,91.6"/>
		<path class="st4" d="M230.8,92.7c0.6,0.5,1.3,0.9,1.9,1.4c0.2,0.1,0.4,0.3,0.5,0.5c0.4,0.5,0.6,1.1,0.7,1.7"/>
		<path class="st4" d="M234.1,94.5c0.2,0.8,0.9,1.4,1.7,1.5"/>
		<path class="st4" d="M235.6,94.3c0.4,0.2,0.8,0.5,0.9,1c0.1,0.4,0.1,0.9-0.2,1.3"/>
		<path class="st4" d="M232.5,68.4c2.9,2.5,5.2,5.8,6.6,9.4c0.3,0.7,0.5,1.5,0.6,2.2c0.1,0.8,0.1,1.6,0.2,2.4
			c0.2,1.1,0.7,2.2,1.2,3.2"/>
		<path class="st4" d="M235.7,64c0.5,1.5,0.7,3.1,0.5,4.6"/>
		<path class="st4" d="M236.6,65.3c0.4,0.8,0.8,1.8,0.5,2.6"/>
		<path class="st4" d="M237.7,66.4c0.4,0.7,0.3,1.6-0.2,2.2"/>
		<path class="st4" d="M238.4,67.7c0.2,0.2,0.1,0.6,0,0.8c-0.2,0.4-0.5,0.8-0.8,1"/>
		<path class="st4" d="M239,68.5c0.1,0.6-0.2,1.3-0.7,1.6"/>
		<path class="st4" d="M239.3,70.1c0,0.3-0.1,0.5-0.3,0.7"/>
		<path class="st4" d="M239.7,70.7c-0.1,0.3-0.2,0.7-0.5,0.9"/>
		<path class="st4" d="M228.8,76.1c0.6,0.1,1.2,0.4,1.7,0.8c1.5,1.1,2.8,2.4,3.8,4"/>
		<path class="st4" d="M227.8,77.1L227.8,77.1C227.8,77,227.9,77,227.8,77.1c0.7,0,1.3,0.3,1.6,0.9"/>
		<path class="st4" d="M251,100.5c0-0.1,0-0.2,0-0.4"/>
		<path class="st4" d="M251.7,100.6c0.3,0.2,0.5,0.5,0.7,0.8c0.1,0.2,0.1,0.4,0.1,0.7c-0.1,0.2-0.2,0.4-0.5,0.4"/>
		<path class="st4" d="M252.7,101.2c0.2,0.4,0.3,0.8,0.2,1.2"/>
		<path class="st4" d="M253.7,101.4c0.2,0,0.2,0.3,0.2,0.5"/>
		<path class="st4" d="M254.6,101.6c0,0.1,0,0.2,0,0.3"/>
	</g>
	<g>
		<path class="st3" d="M285.2,85.9c0,0-1.9-1.6-1.5-3s2.8-3.1,4.6-3.8c1.8-0.7,4.4-1.8,4.8-2c0.3-0.1,4.2-1.4,7-0.1
			c2.8,1.2,4.6,2.6,5.2,4.8c0.7,2.2,1.9,4.7,2.3,5.8c0.4,1.1,1.6,2.8,2.3,3.1c0.7,0.3,5.6,1,7.7,2.3s13.4,7,16.5,8.4s9.6,6.3,11,6.8
			s6.4,5.1,8.1,6.7s10.5,10.8,13.5,13.9s19.4,12.9,23.6,15.5s11.8,5,29.9,6.1c0.3,0,3.1,0.7-0.1,1.7s-28.7,2-42.7-2.4
			s-22.7-6-24.2-6c-1.6,0-3.2-0.3-3.7,0.5s0,1.4,0.8,2.5c0.9,1.1,2.1,1.9,2.2,3.2c0.1,1.2,0,1.2,0,2.6c0.1,1.4,0.1,2.3,0.4,3.5
			s0.7,2-0.2,3c-0.9,1-0.9,1.7-1.5,2.1c-0.5,0.4-1,0.5-1.4,0.9s-1.3,1.4-1.3,1.1c0-0.3,0-1.7,0-1.7s-1.6,0.5-1.9,0.4s-1.3,1-1.3,1
			s-0.8-1.5-0.4-2c0.3-0.5,0.5-1.5,1.1-2.1s0.8-1.3,1.4-2.2c0.5-0.9,0.4-2.4,0.1-3.2c-0.4-0.8-4.6-5.1-5.4-6.1s-4.3-4.8-4.3-4.8
			l-7.3-2.7c0,0,0.3,5.1,0.2,6.5c0,1.4,0.3,1.6,0.7,2.5c0.4,0.9,1,1.3,0.5,2.1s-0.7,1.1-1,2s-0.1,1.9-0.2,2.7s0.2,1.6-0.7,2.4
			s-1.6,1.2-2.1,1.4c-0.4,0.1-0.9,0.6-1.3,1.3s-2.6,0.6-2.6,0.6l0.1-1.9c0,0-0.7-0.6-1.4,0.1c-0.6,0.7-2.4,1.6-2.4,1.6
			s0-2.5,0.9-3.2s2.2-1.6,3.2-2.2c1-0.6,2.2-1.4,2.4-2.4c0.2-1-0.2-3.4-1-5.4s-2.4-6.5-3.1-7.9c-0.8-1.4-1.1-4.5-0.9-5.9
			c-0.1-0.2-5.2-7.8-3.8-5.2c0.2,0.4-2.5-4.5-3.6-5.4c-0.9-0.7-4.9-5.5-4.9-5.5s-2.8,0.8-3.7,1.7c-0.9,0.8-1.4,1.7-1.6,2.5
			s-0.5,3-0.5,3l-0.9-2.6c0,0-1.7,1.7-2.7,2.3c-1,0.6,0.2-1.3,0.2-1.3l-1.5,0.9c0,0-0.6,0.9-1.8,1.8c-1.2,0.9-2,2-2,1.2
			c0.1-0.8-0.6-2-0.6-2s-1.1,1-0.9,0c0.2-0.9,1.6-3.8,1.6-3.8s0.4-1.3,0.2-1.9c-0.1-0.7-0.7-3-0.7-3s1,2.1,2.1,2s2,0.1,2.9-0.5
			s1.5-2,1.5-2l-1-2.4c0,0,1.2,2.1,2.1,1.5s1.4-0.9,2-1.4c0.5-0.5,1.4-0.8-0.1-1.7c-1.5-0.9-4.3-4.3-5-5.3s-0.8-2.2-0.9-3.2
			s0.1-3.6,0-4.6s-0.9-1.7-1.5-2.2s-1-1.5-1.2-2.7s-0.1-1.2-1.1-1.9c-1.1-0.6-0.5-0.3-1.5-1.7c-1-1.4-0.8-2.5-1.2-3.3
			c-0.4-0.9-0.6-1.3-1.4-1.4s-1.8-0.4-2.2-0.3c-0.3,0-1.6,0.5-1.6,0.5L285.2,85.9z"/>
		<path class="st5" d="M309.2,117.4c0.4,0.3,0.8,0,1.3-0.1c2.1-0.9,4.1-2,5.8-3.4c0.7-0.6,1.5-1.4,1.4-2.4c0-0.5-0.3-1-0.7-1.4
			c-0.7-1-1.5-1.9-2.4-2.6c-0.4-0.4-0.9-0.7-1.2-1.2c-0.4-0.7-0.5-1.6-0.1-2.3c0,0-1-3.1-2.5-3.8c-1.4-0.7-7.2,1.8-7.5,3.6
			s0.9,4.2,2.6,5.2s3.8,1.5,3.7,2.3c-0.1,0.8-1.8,1.6-2.3,2.1c-0.6,0.6-1.8-0.3-1.8-0.3l-4.2,3c0,0-1.2,2.7-2,2.5
			c-0.9-0.2-2.9,0.4-3.4,0s-1.6-2.5-1.1-1c0.4,1.3,0.6,3.2,0.4,3.7c-0.1,0.5-1.4,2.2-1.5,3.6c-0.1,1,0.9,0.3,0.9,0.3
			s0.1,0.6,0.2,1.4c0.2,0.9,0.6,1.1,1,0.7c1-0.9,3.2-2.9,3.6-3.1s0.1,1.2,0.6,0.9c0.4-0.3,2.8-2.8,2.8-2.8l1,2.6
			c0,0,0.5-3.4,1.1-4.1s0.4-1.4,1.5-1.7c1.1-0.3,0,0,0,0L309.2,117.4"/>
		<path class="st4" d="M303.6,106.1c0,0,0,0.8,1.7,2.2c1.7,1.4,3,1.9,4,2.5s0.4,1.2-1,1.9s-2,1.1-2.9,1.7s-0.9,0.7-1.6,1.2
			s-1.5,0.3-1.5,0.3"/>
		<path class="st4" d="M290.9,86c1.4-0.1,2.7-0.1,4.1,0c0.8,0.1,1.8,0.2,2.5-0.3c0.4-0.3,0.7-0.9,0.7-1.4s-0.2-1.1-0.5-1.5"/>
		<path class="st4" d="M293.7,82.9c-0.6,0.2-1.3,0.3-2,0.2c-1-0.1-2.1-0.6-3.1-0.4c-0.5,0.1-0.9,0.4-1.4,0.7
			c-0.7,0.4-1.5,0.7-2.2,0.9c-0.2,0-0.4,0-0.4-0.2"/>
		<path class="st4" d="M285.1,81.9c0.1,0.1,0.1,0.3,0,0.5s-0.2,0.3-0.2,0.5s0.3,0.2,0.4,0.1"/>
		<path class="st4" d="M294.6,84.7c0.2,0,0.4,0,0.7,0c0.5,0,1-0.1,1.4-0.3c0.4-0.3,0.6-0.9,0.2-1.2"/>
		<path class="st4" d="M293.8,79.6c-0.6-0.2-1.3-0.3-1.9-0.2"/>
		<path class="st4" d="M291.8,79.9c0.5,0.2,1,0.4,1.5,0.4s1.1-0.3,1.2-0.8"/>
		<path class="st4" d="M295.2,79.2c0.6,0.6,1.1,1.1,1.7,1.7"/>
		<path class="st4" d="M298.8,84c0.1,0.8,0,1.7-0.3,2.5c-0.3,0.7-0.6,1.3-0.9,2s-0.4,1.4-0.1,2.1"/>
		<path class="st4" d="M296.4,88.3c-0.3,1.5,0,3.2,0.2,4.7c0.1,0.5,0.2,1,0.3,1.5c0.1,0.5,0.2,1,0.5,1.5"/>
		<path class="st4" d="M303.4,95.9c1.5-0.6,2.5-1.6,3.8-2.4c0.4-0.3,1-0.3,1.4-0.5c0.7-0.4,1-1.2,1.4-1.8"/>
		<path class="st4" d="M354.5,125.6c0.2,0.6,0.1,1.3-0.1,2c-0.7,3.2-2.6,6.1-5.2,8.1c-0.5,0.4-1.1,0.8-1.4,1.4
			c-0.4,0.7-0.3,1.5-0.3,2.2c0.2,1.8,0.7,3.6,1.4,5.2"/>
		<path class="st4" d="M337.5,141.4c-1.9-2-3.7-4.4-3.9-7.2c-0.3-3.1,1.4-6.2,0.8-9.3c-0.2-0.9-0.6-1.9-0.5-2.8
			c0-0.9,0.5-1.7,0.9-2.5c0.8-1.4,1.5-2.8,2.8-3.9"/>
		<path class="st4" d="M336.3,113.1c-0.4,1-0.9,1.9-1.2,2.9c-0.2,0.6-0.3,1.1-0.4,1.7c-0.2,0.8-0.3,1.7-0.5,2.5s-0.3,1.6-0.3,2.4"/>
		<path class="st4" d="M334.5,113.3c-1.9,3.7-2.1,8.2-0.5,12"/>
		<path class="st4" d="M348.2,121.9c0,0.1-0.1,0.1-0.1,0.2c1.2,1.9,0.5,4.3-0.5,6.3c-0.4,0.7-0.8,1.4-1.3,2
			c-0.4,0.4-0.8,0.7-1.2,1.2c-1.2,1.5-1,3.7-0.6,5.6"/>
		<path class="st4" d="M345.4,133.6c0-0.6,0.4-1.2,0.9-1.6c0.5-0.4,1.1-0.7,1.6-1c0.8-0.4,1.5-1,2-1.7s0.8-1.7,0.6-2.5"/>
		<path class="st4" d="M348,126.2c1.2-0.2,2.2-1.3,2.3-2.5"/>
		<path class="st4" d="M324.4,159.5c-0.1-0.6,0.4-1.1,0.8-1.5c0.5-0.4,1-0.7,1.2-1.3"/>
		<path class="st4" d="M326,158.8c-0.1,0,0-0.1,0-0.1c0.5-0.1,1.2,0.3,1.2,0.8"/>
		<path class="st4" d="M327.2,157.6c0.6,0.1,1.2,0.7,1.2,1.3c0,0.1,0,0.1-0.1,0.2c-0.1,0-0.1-0.1,0-0.1"/>
		<path class="st4" d="M328.3,156.1c0.7,0.3,1.3,0.8,1.7,1.5"/>
		<path class="st4" d="M348.8,161.6c0-1.3,0.5-2.6,1.5-3.4"/>
		<path class="st4" d="M350.2,159.7c0.5,0,1,0.3,1.2,0.7"/>
		<path class="st4" d="M351.2,158.5c0.6,0.1,1.1,0.6,1.1,1.2"/>
		<path class="st4" d="M350.8,156.1c0.9-0.1,1.8,0.4,2.1,1.2"/>
		<path class="st4" d="M350,143.7c-0.8-1.4-0.6-3.4,0.5-4.6"/>
		<path class="st4" d="M351.5,144c0-1.2,0.2-2.3,0.7-3.4"/>
		<path class="st4" d="M350.8,143.9c0,0.1,0,0.2-0.1,0.2c0-1.1,0.1-2.2,0.4-3.2"/>
		<path class="st4" d="M352.6,144.2c0.1-0.9,0.3-1.9,0.8-2.7"/>
		<path class="st4" d="M357.3,138.6c0.5-1,1.3-1.8,2.3-2.2"/>
		<path class="st4" d="M359,139.3c0.4-1.1,1.3-2,2.4-2.5"/>
		<path class="st4" d="M373.7,134.1c-0.9,1.1-1.6,2.4-2,3.7"/>
		<path class="st4" d="M375.6,134.9c-0.1,0.8-0.4,1.6-0.9,2.3"/>
		<path class="st4" d="M378.2,136.6c0.2,0.6,0.1,1.4-0.4,1.9"/>
		<path class="st4" d="M351,118.2c1.3,0.9,2.2,2.5,2.2,4.1"/>
		<path class="st4" d="M340.5,112.8c0.5-0.3,1.1-0.4,1.7-0.4c0.4,0,0.7,0,1.1,0.1c1.1,0.2,1.8,1.2,2.9,1.5"/>
		<path class="st4" d="M336.5,110.1c3.1-0.7,6.4-0.1,9,1.6c0.5,0.3,1,0.8,1.1,1.4"/>
		<path class="st4" d="M335.8,109.5c0.2-0.4,0.7-0.6,1.2-0.8c1.2-0.4,2.5-0.3,3.7,0.2"/>
		<path class="st4" d="M319.7,112.3c1-0.3,2.1-0.1,3.2-0.1s2.3-0.2,2.9-1.1"/>
		<path class="st4" d="M313.3,103.8c-0.4,0.7-0.4,1.6,0.1,2.3c0.3,0.5,0.8,0.8,1.2,1.2c0.9,0.8,1.7,1.7,2.4,2.6
			c0.3,0.4,0.6,0.9,0.7,1.4c0.1,1-0.7,1.8-1.4,2.4c-1.8,1.4-3.7,2.6-5.8,3.4c-0.5,0.2-1,0.3-1.4,0.1"/>
		<path class="st4" d="M306.4,111.3c-0.1,0.5-0.1,1,0,1.5"/>
		<path class="st4" d="M304.7,111.5c0.4,0.8,1.1,1.5,1.9,1.9"/>
		<path class="st4" d="M307.5,111c0,0.3-0.1,0.6-0.1,0.9"/>
		<path class="st4" d="M314.2,106.7c0.9-1.1,1.7-2.4,2.4-3.7"/>
		<path class="st4" d="M314.2,107.2c1.2-1.2,2.3-2.5,3.2-3.9"/>
		<path class="st4" d="M315,107.6c1.6-0.8,2.9-2,4.1-3.3"/>
		<path class="st4" d="M312,101c0.6,1.4,1,2.9,1.2,4.4"/>
		<path class="st4" d="M312.8,100.9c0.2-0.1,0.3,0.1,0.4,0.3c0.7,1.5,0.7,3.2,0.3,4.8"/>
		<path class="st4" d="M361.4,142.9c-0.1,0.5-0.2,1.1-0.2,1.6c0,0.1,0.1,0.3,0.2,0.2"/>
		<path class="st4" d="M359.5,142.5c-0.2,0.5-0.3,1-0.4,1.5"/>
		<path class="st4" d="M360.8,142.8c-0.2,0.3-0.3,0.6-0.2,0.9c0-0.3,0.1-0.5,0.1-0.8"/>
		<path class="st4" d="M363.6,143c-0.3,0.3-0.5,0.8-0.3,1.2"/>
		<path class="st4" d="M365.6,144c0.1,0.5,0.4,0.9,0.7,1.3"/>
		<path class="st4" d="M362.8,143c-0.2,0.1-0.2,0.3-0.2,0.5C362.6,143.3,362.7,143.2,362.8,143"/>
		<path class="st4" d="M365.1,144.5c-0.1,0.3-0.1,0.5,0,0.8"/>
		<path class="st4" d="M367.7,144.9c0.1,0.4,0.4,0.8,0.8,0.9"/>
		<path class="st4" d="M370.3,145.4c0.2,0.6,0.7,1.1,1.3,1.3"/>
		<path class="st4" d="M373.9,146.3c-0.1,0.2-0.2,0.4-0.1,0.6"/>
		<path class="st4" d="M376.2,147.4c0,0.1,0,0.2,0,0.4c0.1,0.1,0.2,0.1,0.4,0.1"/>
		<path class="st4" d="M378.5,147.7c0.1,0.1,0.1,0.2,0.2,0.3"/>
		<path class="st4" d="M381,148.6c0.1,0,0.1,0,0.2,0"/>
		<path class="st4" d="M299.3,118.8c-1.2,1-2.3,2.2-3.1,3.6c1.1,0.3,2-1.1,3.1-1c-0.8,1-1.6,2-2.4,3c1-0.3,1.9-1.2,3-1.1
			c0,0.4,0.1,0.7,0,1.1"/>
		<path class="st4" d="M302,106.1c0.4,0.5,0.8,1.1,1.2,1.6c0.5,0.7,1.1,1.5,1.9,1.9c0.8,0.5,1.8,0.7,2.6,0.2"/>
		<path class="st4" d="M305.7,117.1c0.1,0.6,0.1,1.3,0,1.9"/>
		<path class="st4" d="M306.8,117.2c0.1,0.6,0,1.2-0.2,1.7"/>
		<path class="st4" d="M307.9,116.6c0,0.4,0,0.8,0,1.2"/>
		<path class="st4" d="M308.8,116.5c0.2,0.4,0.2,0.8,0.2,1.2"/>
		<path class="st4" d="M309.9,116.9c0,0.1,0,0.2,0,0.3"/>
		<path class="st4" d="M311,117.6c0,0.9,0.3,1.8,0.8,2.5"/>
		<path class="st4" d="M327,137.2c1,1.1,2.3,1.9,3.6,2.4c0.1,0,0.3-0.1,0.2-0.1"/>
		<path class="st4" d="M322.2,129.9c0.7,1.4,1.5,2.8,2.7,3.9c0.3,0.3,0.7,0.6,1,0.9c0.3,0.3,0.6,0.5,1,0.8c1.3,1.1,2.6,2.2,4,3.3
			c0.5,0.4,1.1,0.9,1.7,0.9"/>
		<path class="st4" d="M334.1,140.9c0.5-0.6,0.8-1.4,0.8-2.3"/>
		<path class="st4" d="M336,139.7c-0.2,0.6-0.4,1.2-0.7,1.8"/>
		<path class="st4" d="M334,137c0.1,0.5-0.2,1-0.5,1.5"/>
		<path class="st4" d="M332.2,135.3c-0.1,0.4-0.1,0.7-0.2,1.1"/>
		<path class="st4" d="M328.8,134.3c0,0.3,0,0.5,0,0.8C328.8,134.8,328.8,134.6,328.8,134.3"/>
		<path class="st4" d="M330.6,131.4c0.1,0.2,0.2,0.4,0.3,0.7"/>
		<path class="st4" d="M332.5,130.5c0,0.2,0,0.4,0,0.7C332.5,130.9,332.5,130.7,332.5,130.5"/>
		<path class="st4" d="M329.8,120.1c1,3.3,2.6,6.4,4.7,9.1"/>
		<path class="st4" d="M330.4,125.2c0.9,1.8,2,3.6,3.4,5.1c0.1,0.1,0.2,0.2,0.3,0.1c0.1-0.1-0.1-0.2-0.1-0.1"/>
		<path class="st4" d="M355.3,129.9c-1.3,3.2-3.8,5.8-6.8,7.4c-0.4,0.2-0.9,0.4-1.1,0.9"/>
		<path class="st4" d="M383,146.9c-0.1,0.8,0,1.6,0.4,2.4"/>
		<path class="st4" d="M385,146.6c0,0.9-0.1,1.7-0.1,2.6"/>
		<path class="st4" d="M386.6,148.6c0,0.4,0,0.7,0.1,1.1"/>
		<path class="st4" d="M389.1,149.9c0,0.3,0,0.6,0.2,0.9"/>
		<path class="st4" d="M391.1,149.5c0,0.5,0.2,1,0.5,1.4"/>
		<path class="st4" d="M392.5,150.2c0,0.3,0.1,0.6,0.4,0.7"/>
		<path class="st4" d="M394.4,151.3c0,0.1,0.1,0.3,0.1,0.4"/>
		<path class="st4" d="M396.7,151.1v0.1"/>
		<path class="st4" d="M293,79c0.5-0.2,1,0.1,1.4,0.5"/>
	</g>
	<path class="st6" d="M123.2,79.6c0,0,0.4,15.2-14,21.8"/>
	<g>
		<g class="st0">
			<path d="M78.8,35.9v3.9h-1.3v-10h3.7c1.1,0,1.9,0.3,2.6,0.8s0.9,1.3,0.9,2.2c0,1-0.3,1.7-0.9,2.2c-0.6,0.5-1.5,0.8-2.6,0.8H78.8z
				 M78.8,34.8h2.4c0.7,0,1.2-0.2,1.6-0.5s0.6-0.8,0.6-1.4c0-0.6-0.2-1.1-0.6-1.4s-0.9-0.5-1.5-0.6h-2.4V34.8z"/>
			<path d="M87.5,39.8h-1.3V29.3h1.3V39.8z"/>
			<path d="M94.1,39.8c-0.1-0.1-0.1-0.4-0.2-0.8c-0.6,0.6-1.3,0.9-2.1,0.9c-0.7,0-1.3-0.2-1.8-0.6c-0.5-0.4-0.7-0.9-0.7-1.6
				c0-0.8,0.3-1.4,0.9-1.8c0.6-0.4,1.4-0.6,2.5-0.6h1.2v-0.6c0-0.4-0.1-0.8-0.4-1.1c-0.3-0.3-0.7-0.4-1.2-0.4
				c-0.5,0-0.8,0.1-1.1,0.3s-0.5,0.5-0.5,0.8h-1.3c0-0.4,0.1-0.7,0.4-1.1c0.3-0.3,0.6-0.6,1.1-0.8s0.9-0.3,1.5-0.3
				c0.9,0,1.5,0.2,2,0.6c0.5,0.4,0.7,1,0.8,1.8v3.4c0,0.7,0.1,1.2,0.3,1.6v0.1H94.1z M92,38.8c0.4,0,0.8-0.1,1.1-0.3
				s0.6-0.5,0.8-0.8v-1.5h-1c-1.5,0-2.3,0.5-2.3,1.4c0,0.4,0.1,0.7,0.4,0.9S91.6,38.8,92,38.8z"/>
			<path d="M100.1,38.9c0.5,0,0.8-0.1,1.2-0.4s0.5-0.6,0.6-1h1.2c0,0.4-0.2,0.8-0.4,1.2s-0.6,0.7-1.1,0.9s-0.9,0.3-1.4,0.3
				c-1,0-1.8-0.3-2.4-1c-0.6-0.7-0.9-1.6-0.9-2.8V36c0-0.7,0.1-1.4,0.4-1.9s0.6-1,1.1-1.3s1.1-0.5,1.8-0.5c0.8,0,1.5,0.2,2.1,0.7
				s0.8,1.1,0.9,1.9h-1.2c0-0.5-0.2-0.9-0.5-1.2c-0.3-0.3-0.7-0.5-1.2-0.5c-0.6,0-1.1,0.2-1.5,0.7c-0.4,0.5-0.5,1.1-0.5,2v0.2
				c0,0.9,0.2,1.5,0.5,2S99.5,38.9,100.1,38.9z"/>
			<path d="M109.1,39.8c-0.1-0.1-0.1-0.4-0.2-0.8c-0.6,0.6-1.3,0.9-2.1,0.9c-0.7,0-1.3-0.2-1.8-0.6c-0.5-0.4-0.7-0.9-0.7-1.6
				c0-0.8,0.3-1.4,0.9-1.8c0.6-0.4,1.4-0.6,2.5-0.6h1.2v-0.6c0-0.4-0.1-0.8-0.4-1.1c-0.3-0.3-0.7-0.4-1.2-0.4
				c-0.5,0-0.8,0.1-1.1,0.3s-0.5,0.5-0.5,0.8h-1.3c0-0.4,0.1-0.7,0.4-1.1c0.3-0.3,0.6-0.6,1.1-0.8s0.9-0.3,1.5-0.3
				c0.9,0,1.5,0.2,2,0.6c0.5,0.4,0.7,1,0.8,1.8v3.4c0,0.7,0.1,1.2,0.3,1.6v0.1H109.1z M107,38.8c0.4,0,0.8-0.1,1.1-0.3
				s0.6-0.5,0.8-0.8v-1.5h-1c-1.5,0-2.3,0.5-2.3,1.4c0,0.4,0.1,0.7,0.4,0.9S106.6,38.8,107,38.8z"/>
			<path d="M116.4,37.8c0-0.3-0.1-0.6-0.4-0.8c-0.3-0.2-0.7-0.4-1.3-0.5s-1.1-0.3-1.5-0.5s-0.7-0.4-0.8-0.7s-0.3-0.6-0.3-0.9
				c0-0.6,0.3-1.1,0.8-1.5s1.2-0.6,2-0.6c0.8,0,1.5,0.2,2,0.6s0.8,1,0.8,1.7h-1.3c0-0.3-0.1-0.6-0.4-0.9s-0.7-0.4-1.1-0.4
				c-0.5,0-0.8,0.1-1.1,0.3s-0.4,0.5-0.4,0.8c0,0.3,0.1,0.5,0.4,0.7s0.7,0.3,1.3,0.4s1.1,0.3,1.5,0.5s0.7,0.4,0.9,0.7
				c0.2,0.3,0.3,0.6,0.3,1c0,0.7-0.3,1.2-0.8,1.6c-0.5,0.4-1.2,0.6-2.1,0.6c-0.6,0-1.1-0.1-1.6-0.3s-0.8-0.5-1.1-0.9
				c-0.3-0.4-0.4-0.8-0.4-1.2h1.3c0,0.4,0.2,0.8,0.5,1c0.3,0.2,0.7,0.4,1.3,0.4c0.5,0,0.9-0.1,1.2-0.3
				C116.3,38.4,116.4,38.2,116.4,37.8z"/>
		</g>
		<g class="st0">
			<path d="M52.4,52.8c0-1.1,0.3-2,0.8-2.7c0.5-0.7,1.2-1,2.1-1c0.9,0,1.6,0.3,2.1,0.9v-3.9h1.3v10.5h-1.2l-0.1-0.8
				c-0.5,0.6-1.2,0.9-2.1,0.9c-0.9,0-1.6-0.4-2.1-1.1S52.4,54.1,52.4,52.8L52.4,52.8z M53.7,53c0,0.8,0.2,1.5,0.5,2s0.8,0.7,1.4,0.7
				c0.8,0,1.4-0.4,1.8-1.1v-3.4c-0.4-0.7-1-1-1.7-1c-0.6,0-1.1,0.2-1.4,0.7S53.7,52,53.7,53z"/>
			<path d="M60.3,52.8c0-0.7,0.1-1.4,0.4-2s0.7-1,1.2-1.3s1.1-0.5,1.7-0.5c1,0,1.8,0.3,2.4,1s0.9,1.6,0.9,2.8V53
				c0,0.7-0.1,1.4-0.4,1.9c-0.3,0.6-0.7,1-1.2,1.3s-1.1,0.5-1.8,0.5c-1,0-1.8-0.3-2.4-1S60.3,54.1,60.3,52.8L60.3,52.8z M61.6,53
				c0,0.8,0.2,1.5,0.6,2s0.9,0.7,1.5,0.7c0.6,0,1.2-0.3,1.5-0.8c0.4-0.5,0.6-1.2,0.6-2.1c0-0.8-0.2-1.5-0.6-2
				c-0.4-0.5-0.9-0.8-1.5-0.8c-0.6,0-1.1,0.2-1.5,0.7S61.6,52.1,61.6,53z"/>
			<path d="M72.2,50.3c-0.2,0-0.4,0-0.6,0c-0.8,0-1.4,0.4-1.7,1.1v5.2h-1.3v-7.4h1.2l0,0.9c0.4-0.7,1-1,1.8-1c0.2,0,0.4,0,0.6,0.1
				V50.3z"/>
			<path d="M77.7,54.6c0-0.3-0.1-0.6-0.4-0.8c-0.3-0.2-0.7-0.4-1.3-0.5s-1.1-0.3-1.5-0.5s-0.7-0.4-0.8-0.7s-0.3-0.6-0.3-0.9
				c0-0.6,0.3-1.1,0.8-1.5s1.2-0.6,2-0.6c0.8,0,1.5,0.2,2,0.6s0.8,1,0.8,1.7h-1.3c0-0.3-0.1-0.6-0.4-0.9s-0.7-0.4-1.1-0.4
				c-0.5,0-0.8,0.1-1.1,0.3s-0.4,0.5-0.4,0.8c0,0.3,0.1,0.5,0.4,0.7s0.7,0.3,1.3,0.4s1.1,0.3,1.5,0.5s0.7,0.4,0.9,0.7
				c0.2,0.3,0.3,0.6,0.3,1c0,0.7-0.3,1.2-0.8,1.6c-0.5,0.4-1.2,0.6-2.1,0.6c-0.6,0-1.1-0.1-1.6-0.3s-0.8-0.5-1.1-0.9
				c-0.3-0.4-0.4-0.8-0.4-1.2h1.3c0,0.4,0.2,0.8,0.5,1c0.3,0.2,0.7,0.4,1.3,0.4c0.5,0,0.9-0.1,1.2-0.3C77.5,55.2,77.7,55,77.7,54.6z
				"/>
			<path d="M85.1,56.6c-0.1-0.1-0.1-0.4-0.2-0.8c-0.6,0.6-1.3,0.9-2.1,0.9c-0.7,0-1.3-0.2-1.8-0.6c-0.5-0.4-0.7-0.9-0.7-1.6
				c0-0.8,0.3-1.4,0.9-1.8c0.6-0.4,1.4-0.6,2.5-0.6h1.2v-0.6c0-0.4-0.1-0.8-0.4-1.1c-0.3-0.3-0.7-0.4-1.2-0.4
				c-0.5,0-0.8,0.1-1.1,0.3s-0.5,0.5-0.5,0.8h-1.3c0-0.4,0.1-0.7,0.4-1.1c0.3-0.3,0.6-0.6,1.1-0.8s0.9-0.3,1.5-0.3
				c0.9,0,1.5,0.2,2,0.6c0.5,0.4,0.7,1,0.8,1.8v3.4c0,0.7,0.1,1.2,0.3,1.6v0.1H85.1z M83,55.6c0.4,0,0.8-0.1,1.1-0.3
				s0.6-0.5,0.8-0.8V53h-1c-1.5,0-2.3,0.5-2.3,1.4c0,0.4,0.1,0.7,0.4,0.9S82.6,55.6,83,55.6z"/>
			<path d="M89.6,56.6h-1.3V46.1h1.3V56.6z"/>
			<path d="M94.6,56.7c-1,0-1.8-0.3-2.4-1c-0.6-0.7-0.9-1.5-0.9-2.6v-0.2c0-0.7,0.1-1.4,0.4-2c0.3-0.6,0.7-1,1.2-1.4
				c0.5-0.3,1-0.5,1.6-0.5c1,0,1.7,0.3,2.2,1s0.8,1.5,0.8,2.7v0.5h-5c0,0.7,0.2,1.3,0.6,1.8c0.4,0.4,0.9,0.7,1.6,0.7
				c0.4,0,0.8-0.1,1.1-0.3s0.6-0.4,0.8-0.7l0.8,0.6C96.8,56.3,95.9,56.7,94.6,56.7z M94.5,50.1c-0.5,0-0.9,0.2-1.3,0.6
				c-0.3,0.4-0.6,0.9-0.6,1.6h3.7v-0.1c0-0.6-0.2-1.1-0.5-1.5C95.4,50.3,95,50.1,94.5,50.1z"/>
			<path d="M103.3,54.6c0-0.3-0.1-0.6-0.4-0.8c-0.3-0.2-0.7-0.4-1.3-0.5s-1.1-0.3-1.5-0.5s-0.7-0.4-0.8-0.7s-0.3-0.6-0.3-0.9
				c0-0.6,0.3-1.1,0.8-1.5s1.2-0.6,2-0.6c0.8,0,1.5,0.2,2,0.6s0.8,1,0.8,1.7h-1.3c0-0.3-0.1-0.6-0.4-0.9s-0.7-0.4-1.1-0.4
				c-0.5,0-0.8,0.1-1.1,0.3s-0.4,0.5-0.4,0.8c0,0.3,0.1,0.5,0.4,0.7s0.7,0.3,1.3,0.4s1.1,0.3,1.5,0.5s0.7,0.4,0.9,0.7
				c0.2,0.3,0.3,0.6,0.3,1c0,0.7-0.3,1.2-0.8,1.6c-0.5,0.4-1.2,0.6-2.1,0.6c-0.6,0-1.1-0.1-1.6-0.3s-0.8-0.5-1.1-0.9
				c-0.3-0.4-0.4-0.8-0.4-1.2h1.3c0,0.4,0.2,0.8,0.5,1c0.3,0.2,0.7,0.4,1.3,0.4c0.5,0,0.9-0.1,1.2-0.3
				C103.2,55.2,103.3,55,103.3,54.6z"/>
			<path d="M109.4,52.8c0-1.1,0.3-2,0.8-2.7c0.5-0.7,1.2-1,2.1-1c0.9,0,1.6,0.3,2.1,0.9v-3.9h1.3v10.5h-1.2l-0.1-0.8
				c-0.5,0.6-1.2,0.9-2.1,0.9c-0.9,0-1.6-0.4-2.1-1.1S109.4,54.1,109.4,52.8L109.4,52.8z M110.6,53c0,0.8,0.2,1.5,0.5,2
				s0.8,0.7,1.4,0.7c0.8,0,1.4-0.4,1.8-1.1v-3.4c-0.4-0.7-1-1-1.7-1c-0.6,0-1.1,0.2-1.4,0.7S110.6,52,110.6,53z"/>
			<path d="M120.6,56.7c-1,0-1.8-0.3-2.4-1c-0.6-0.7-0.9-1.5-0.9-2.6v-0.2c0-0.7,0.1-1.4,0.4-2c0.3-0.6,0.7-1,1.2-1.4
				c0.5-0.3,1-0.5,1.6-0.5c1,0,1.7,0.3,2.2,1s0.8,1.5,0.8,2.7v0.5h-5c0,0.7,0.2,1.3,0.6,1.8c0.4,0.4,0.9,0.7,1.6,0.7
				c0.4,0,0.8-0.1,1.1-0.3s0.6-0.4,0.8-0.7l0.8,0.6C122.8,56.3,121.9,56.7,120.6,56.7z M120.5,50.1c-0.5,0-0.9,0.2-1.3,0.6
				c-0.3,0.4-0.6,0.9-0.6,1.6h3.7v-0.1c0-0.6-0.2-1.1-0.5-1.5C121.4,50.3,121,50.1,120.5,50.1z"/>
			<path d="M133,55.9c-0.5,0.6-1.2,0.9-2.2,0.9c-0.8,0-1.4-0.2-1.8-0.7c-0.4-0.5-0.6-1.1-0.6-2v-4.8h1.3V54c0,1.1,0.5,1.7,1.4,1.7
				c1,0,1.6-0.4,1.9-1.1v-5.4h1.3v7.4h-1.2L133,55.9z"/>
			<path d="M137.4,49.2l0,0.9c0.6-0.7,1.3-1.1,2.2-1.1c1.6,0,2.4,0.9,2.4,2.6v4.9h-1.3v-4.9c0-0.5-0.1-0.9-0.4-1.2s-0.6-0.4-1.1-0.4
				c-0.4,0-0.8,0.1-1.1,0.3s-0.6,0.5-0.7,0.9v5.3h-1.3v-7.4H137.4z"/>
		</g>
		<g class="st0">
			<path d="M63.4,68.8H59v3.5h5v1.1h-6.3v-10H64v1.1H59v3.2h4.3V68.8z"/>
			<path d="M69.8,71.4c0-0.3-0.1-0.6-0.4-0.8c-0.3-0.2-0.7-0.4-1.3-0.5s-1.1-0.3-1.5-0.5s-0.7-0.4-0.8-0.7s-0.3-0.6-0.3-0.9
				c0-0.6,0.3-1.1,0.8-1.5s1.2-0.6,2-0.6c0.8,0,1.5,0.2,2,0.6s0.8,1,0.8,1.7h-1.3c0-0.3-0.1-0.6-0.4-0.9s-0.7-0.4-1.1-0.4
				c-0.5,0-0.8,0.1-1.1,0.3s-0.4,0.5-0.4,0.8c0,0.3,0.1,0.5,0.4,0.7s0.7,0.3,1.3,0.4s1.1,0.3,1.5,0.5s0.7,0.4,0.9,0.7
				c0.2,0.3,0.3,0.6,0.3,1c0,0.7-0.3,1.2-0.8,1.6c-0.5,0.4-1.2,0.6-2.1,0.6c-0.6,0-1.1-0.1-1.6-0.3s-0.8-0.5-1.1-0.9
				c-0.3-0.4-0.4-0.8-0.4-1.2h1.3c0,0.4,0.2,0.8,0.5,1c0.3,0.2,0.7,0.4,1.3,0.4c0.5,0,0.9-0.1,1.2-0.3C69.7,72,69.8,71.8,69.8,71.4z
				"/>
			<path d="M74.4,64.2V66h1.4v1h-1.4v4.6c0,0.3,0.1,0.5,0.2,0.7s0.3,0.2,0.6,0.2c0.1,0,0.3,0,0.6-0.1v1c-0.3,0.1-0.7,0.1-1,0.1
				c-0.6,0-1-0.2-1.3-0.5s-0.4-0.8-0.4-1.5V67h-1.3v-1h1.3v-1.8H74.4z"/>
			<path d="M80.3,73.5c-1,0-1.8-0.3-2.4-1C77.3,71.9,77,71,77,69.9v-0.2c0-0.7,0.1-1.4,0.4-2c0.3-0.6,0.7-1,1.2-1.4
				c0.5-0.3,1-0.5,1.6-0.5c1,0,1.7,0.3,2.2,1s0.8,1.5,0.8,2.7v0.5h-5c0,0.7,0.2,1.3,0.6,1.8c0.4,0.4,0.9,0.7,1.6,0.7
				c0.4,0,0.8-0.1,1.1-0.3s0.6-0.4,0.8-0.7l0.8,0.6C82.5,73.1,81.6,73.5,80.3,73.5z M80.2,66.9c-0.5,0-0.9,0.2-1.3,0.6
				c-0.3,0.4-0.6,0.9-0.6,1.6H82v-0.1c0-0.6-0.2-1.1-0.5-1.5C81.1,67.1,80.7,66.9,80.2,66.9z"/>
			<path d="M84.4,69.6c0-1.2,0.3-2.1,0.8-2.8c0.5-0.7,1.2-1,2.1-1c0.9,0,1.6,0.3,2.1,1l0.1-0.8h1.2v7.2c0,1-0.3,1.7-0.9,2.3
				s-1.3,0.8-2.3,0.8c-0.5,0-1.1-0.1-1.6-0.3S85,75.4,84.8,75l0.7-0.8c0.5,0.7,1.2,1,2,1c0.6,0,1.1-0.2,1.4-0.5s0.5-0.8,0.5-1.5
				v-0.6c-0.5,0.6-1.2,0.9-2.1,0.9c-0.9,0-1.6-0.3-2.1-1S84.4,70.8,84.4,69.6z M85.7,69.8c0,0.8,0.2,1.5,0.5,2
				c0.3,0.5,0.8,0.7,1.4,0.7c0.8,0,1.4-0.4,1.8-1.1V68c-0.4-0.7-1-1.1-1.7-1.1c-0.6,0-1.1,0.2-1.4,0.7S85.7,68.8,85.7,69.8z"/>
			<path d="M92.2,69.6c0-0.7,0.1-1.4,0.4-2s0.7-1,1.2-1.3s1.1-0.5,1.7-0.5c1,0,1.8,0.3,2.4,1s0.9,1.6,0.9,2.8v0.1
				c0,0.7-0.1,1.4-0.4,1.9c-0.3,0.6-0.7,1-1.2,1.3s-1.1,0.5-1.8,0.5c-1,0-1.8-0.3-2.4-1S92.2,70.9,92.2,69.6L92.2,69.6z M93.5,69.8
				c0,0.8,0.2,1.5,0.6,2s0.9,0.7,1.5,0.7c0.6,0,1.2-0.3,1.5-0.8c0.4-0.5,0.6-1.2,0.6-2.1c0-0.8-0.2-1.5-0.6-2
				c-0.4-0.5-0.9-0.8-1.5-0.8c-0.6,0-1.1,0.2-1.5,0.7S93.5,68.9,93.5,69.8z"/>
			<path d="M104.8,71.4c0-0.3-0.1-0.6-0.4-0.8c-0.3-0.2-0.7-0.4-1.3-0.5s-1.1-0.3-1.5-0.5s-0.7-0.4-0.8-0.7s-0.3-0.6-0.3-0.9
				c0-0.6,0.3-1.1,0.8-1.5s1.2-0.6,2-0.6c0.8,0,1.5,0.2,2,0.6s0.8,1,0.8,1.7h-1.3c0-0.3-0.1-0.6-0.4-0.9s-0.7-0.4-1.1-0.4
				c-0.5,0-0.8,0.1-1.1,0.3s-0.4,0.5-0.4,0.8c0,0.3,0.1,0.5,0.4,0.7s0.7,0.3,1.3,0.4s1.1,0.3,1.5,0.5s0.7,0.4,0.9,0.7
				c0.2,0.3,0.3,0.6,0.3,1c0,0.7-0.3,1.2-0.8,1.6c-0.5,0.4-1.2,0.6-2.1,0.6c-0.6,0-1.1-0.1-1.6-0.3s-0.8-0.5-1.1-0.9
				c-0.3-0.4-0.4-0.8-0.4-1.2h1.3c0,0.4,0.2,0.8,0.5,1c0.3,0.2,0.7,0.4,1.3,0.4c0.5,0,0.9-0.1,1.2-0.3
				C104.7,72,104.8,71.8,104.8,71.4z"/>
			<path d="M112.3,73.4c-0.1-0.1-0.1-0.4-0.2-0.8c-0.6,0.6-1.3,0.9-2.1,0.9c-0.7,0-1.3-0.2-1.8-0.6c-0.5-0.4-0.7-0.9-0.7-1.6
				c0-0.8,0.3-1.4,0.9-1.8c0.6-0.4,1.4-0.6,2.5-0.6h1.2v-0.6c0-0.4-0.1-0.8-0.4-1.1c-0.3-0.3-0.7-0.4-1.2-0.4
				c-0.5,0-0.8,0.1-1.1,0.3S109,67.7,109,68h-1.3c0-0.4,0.1-0.7,0.4-1.1c0.3-0.3,0.6-0.6,1.1-0.8s0.9-0.3,1.5-0.3
				c0.9,0,1.5,0.2,2,0.6c0.5,0.4,0.7,1,0.8,1.8v3.4c0,0.7,0.1,1.2,0.3,1.6v0.1H112.3z M110.2,72.4c0.4,0,0.8-0.1,1.1-0.3
				s0.6-0.5,0.8-0.8v-1.5h-1c-1.5,0-2.3,0.5-2.3,1.4c0,0.4,0.1,0.7,0.4,0.9S109.8,72.4,110.2,72.4z"/>
			<path d="M119.9,72.7c-0.5,0.6-1.2,0.9-2.2,0.9c-0.8,0-1.4-0.2-1.8-0.7c-0.4-0.5-0.6-1.1-0.6-2V66h1.3v4.8c0,1.1,0.5,1.7,1.4,1.7
				c1,0,1.6-0.4,1.9-1.1V66h1.3v7.4H120L119.9,72.7z"/>
			<path d="M126.7,67.1c-0.2,0-0.4,0-0.6,0c-0.8,0-1.4,0.4-1.7,1.1v5.2h-1.3V66h1.2l0,0.9c0.4-0.7,1-1,1.8-1c0.2,0,0.4,0,0.6,0.1
				V67.1z"/>
			<path d="M127.8,64c0-0.2,0.1-0.4,0.2-0.5s0.3-0.2,0.6-0.2s0.4,0.1,0.6,0.2s0.2,0.3,0.2,0.5s-0.1,0.4-0.2,0.5s-0.3,0.2-0.6,0.2
				s-0.4-0.1-0.6-0.2S127.8,64.2,127.8,64z M129.2,73.4h-1.3V66h1.3V73.4z"/>
			<path d="M130.9,69.6c0-0.7,0.1-1.4,0.4-2s0.7-1,1.2-1.3s1.1-0.5,1.7-0.5c1,0,1.8,0.3,2.4,1s0.9,1.6,0.9,2.8v0.1
				c0,0.7-0.1,1.4-0.4,1.9c-0.3,0.6-0.7,1-1.2,1.3s-1.1,0.5-1.8,0.5c-1,0-1.8-0.3-2.4-1S130.9,70.9,130.9,69.6L130.9,69.6z
				 M132.2,69.8c0,0.8,0.2,1.5,0.6,2s0.9,0.7,1.5,0.7c0.6,0,1.2-0.3,1.5-0.8c0.4-0.5,0.6-1.2,0.6-2.1c0-0.8-0.2-1.5-0.6-2
				c-0.4-0.5-0.9-0.8-1.5-0.8c-0.6,0-1.1,0.2-1.5,0.7S132.2,68.9,132.2,69.8z"/>
		</g>
	</g>
	<g>
		<g class="st0">
			<path d="M308.2,35.9v-10h3.3c1.1,0,1.9,0.2,2.4,0.7c0.5,0.4,0.8,1.1,0.8,2c0,0.5-0.1,0.9-0.4,1.2c-0.3,0.4-0.6,0.6-1.1,0.8
				c0.5,0.2,1,0.4,1.3,0.9c0.3,0.4,0.5,0.9,0.5,1.5c0,0.9-0.3,1.6-0.9,2.1c-0.6,0.5-1.4,0.8-2.5,0.8H308.2z M309.5,30.2h2
				c0.6,0,1-0.1,1.4-0.4c0.3-0.3,0.5-0.7,0.5-1.2c0-0.5-0.2-0.9-0.5-1.2c-0.3-0.2-0.8-0.4-1.5-0.4h-1.9V30.2z M309.5,31.2v3.6h2.2
				c0.6,0,1.1-0.2,1.4-0.5c0.4-0.3,0.5-0.8,0.5-1.3c0-1.2-0.7-1.8-2-1.8H309.5z"/>
			<path d="M320.3,29.6c-0.2,0-0.4,0-0.6,0c-0.8,0-1.4,0.4-1.7,1.1v5.2h-1.3v-7.4h1.2l0,0.9c0.4-0.7,1-1,1.8-1c0.2,0,0.4,0,0.6,0.1
				V29.6z"/>
			<path d="M325.8,35.9c-0.1-0.1-0.1-0.4-0.2-0.8c-0.6,0.6-1.3,0.9-2.1,0.9c-0.7,0-1.3-0.2-1.8-0.6c-0.5-0.4-0.7-0.9-0.7-1.6
				c0-0.8,0.3-1.4,0.9-1.8c0.6-0.4,1.4-0.6,2.5-0.6h1.2v-0.6c0-0.4-0.1-0.8-0.4-1.1c-0.3-0.3-0.7-0.4-1.2-0.4
				c-0.5,0-0.8,0.1-1.1,0.3c-0.3,0.2-0.5,0.5-0.5,0.8h-1.3c0-0.4,0.1-0.7,0.4-1.1c0.3-0.3,0.6-0.6,1.1-0.8c0.4-0.2,0.9-0.3,1.5-0.3
				c0.9,0,1.5,0.2,2,0.6c0.5,0.4,0.7,1,0.8,1.8v3.4c0,0.7,0.1,1.2,0.3,1.6v0.1H325.8z M323.7,34.9c0.4,0,0.8-0.1,1.1-0.3
				s0.6-0.5,0.8-0.8v-1.5h-1c-1.5,0-2.3,0.5-2.3,1.4c0,0.4,0.1,0.7,0.4,0.9C322.9,34.8,323.3,34.9,323.7,34.9z"/>
			<path d="M330,34.8h4.3v1h-5.9V35l4.1-5.4h-4v-1h5.6v0.9L330,34.8z"/>
			<path d="M335.3,32.1c0-0.7,0.1-1.4,0.4-2c0.3-0.6,0.7-1,1.2-1.3c0.5-0.3,1.1-0.5,1.7-0.5c1,0,1.8,0.3,2.4,1s0.9,1.6,0.9,2.8v0.1
				c0,0.7-0.1,1.4-0.4,1.9c-0.3,0.6-0.7,1-1.2,1.3s-1.1,0.5-1.8,0.5c-1,0-1.8-0.3-2.4-1S335.3,33.4,335.3,32.1L335.3,32.1z
				 M336.6,32.3c0,0.8,0.2,1.5,0.6,2c0.4,0.5,0.9,0.7,1.5,0.7c0.6,0,1.2-0.3,1.5-0.8c0.4-0.5,0.6-1.2,0.6-2.1c0-0.8-0.2-1.5-0.6-2
				c-0.4-0.5-0.9-0.8-1.5-0.8c-0.6,0-1.1,0.2-1.5,0.7S336.6,31.3,336.6,32.3z"/>
			<path d="M347.9,33.9c0-0.3-0.1-0.6-0.4-0.8c-0.3-0.2-0.7-0.4-1.3-0.5c-0.6-0.1-1.1-0.3-1.5-0.5s-0.7-0.4-0.8-0.7
				c-0.2-0.3-0.3-0.6-0.3-0.9c0-0.6,0.3-1.1,0.8-1.5s1.2-0.6,2-0.6c0.8,0,1.5,0.2,2,0.6c0.5,0.4,0.8,1,0.8,1.7h-1.3
				c0-0.3-0.1-0.6-0.4-0.9s-0.7-0.4-1.1-0.4c-0.5,0-0.8,0.1-1.1,0.3s-0.4,0.5-0.4,0.8c0,0.3,0.1,0.5,0.4,0.7
				c0.2,0.2,0.7,0.3,1.3,0.4c0.6,0.1,1.1,0.3,1.5,0.5c0.4,0.2,0.7,0.4,0.9,0.7c0.2,0.3,0.3,0.6,0.3,1c0,0.7-0.3,1.2-0.8,1.6
				c-0.5,0.4-1.2,0.6-2.1,0.6c-0.6,0-1.1-0.1-1.6-0.3c-0.5-0.2-0.8-0.5-1.1-0.9c-0.3-0.4-0.4-0.8-0.4-1.2h1.3c0,0.4,0.2,0.8,0.5,1
				c0.3,0.2,0.7,0.4,1.3,0.4c0.5,0,0.9-0.1,1.2-0.3C347.8,34.5,347.9,34.2,347.9,33.9z"/>
			<path d="M355.7,35.9h-1.3V25.4h1.3V35.9z"/>
			<path d="M362.3,35.9c-0.1-0.1-0.1-0.4-0.2-0.8c-0.6,0.6-1.3,0.9-2.1,0.9c-0.7,0-1.3-0.2-1.8-0.6c-0.5-0.4-0.7-0.9-0.7-1.6
				c0-0.8,0.3-1.4,0.9-1.8c0.6-0.4,1.4-0.6,2.5-0.6h1.2v-0.6c0-0.4-0.1-0.8-0.4-1.1c-0.3-0.3-0.7-0.4-1.2-0.4
				c-0.5,0-0.8,0.1-1.1,0.3c-0.3,0.2-0.5,0.5-0.5,0.8h-1.3c0-0.4,0.1-0.7,0.4-1.1c0.3-0.3,0.6-0.6,1.1-0.8c0.4-0.2,0.9-0.3,1.5-0.3
				c0.9,0,1.5,0.2,2,0.6c0.5,0.4,0.7,1,0.8,1.8v3.4c0,0.7,0.1,1.2,0.3,1.6v0.1H362.3z M360.2,34.9c0.4,0,0.8-0.1,1.1-0.3
				s0.6-0.5,0.8-0.8v-1.5h-1c-1.5,0-2.3,0.5-2.3,1.4c0,0.4,0.1,0.7,0.4,0.9C359.4,34.8,359.8,34.9,360.2,34.9z"/>
			<path d="M368.9,29.6c-0.2,0-0.4,0-0.6,0c-0.8,0-1.4,0.4-1.7,1.1v5.2h-1.3v-7.4h1.2l0,0.9c0.4-0.7,1-1,1.8-1c0.2,0,0.4,0,0.6,0.1
				V29.6z"/>
			<path d="M369.8,32.1c0-1.2,0.3-2.1,0.8-2.8c0.5-0.7,1.2-1,2.1-1c0.9,0,1.6,0.3,2.1,1l0.1-0.8h1.2v7.2c0,1-0.3,1.7-0.9,2.3
				s-1.3,0.8-2.3,0.8c-0.5,0-1.1-0.1-1.6-0.3c-0.5-0.2-0.9-0.5-1.2-0.9l0.7-0.8c0.5,0.7,1.2,1,2,1c0.6,0,1.1-0.2,1.4-0.5
				c0.3-0.3,0.5-0.8,0.5-1.5v-0.6c-0.5,0.6-1.2,0.9-2.1,0.9c-0.9,0-1.6-0.3-2.1-1C370,34.3,369.8,33.3,369.8,32.1z M371,32.3
				c0,0.8,0.2,1.5,0.5,2c0.3,0.5,0.8,0.7,1.4,0.7c0.8,0,1.4-0.4,1.8-1.1v-3.4c-0.4-0.7-1-1.1-1.7-1.1c-0.6,0-1.1,0.2-1.4,0.7
				C371.2,30.6,371,31.3,371,32.3z"/>
			<path d="M377.6,32.1c0-0.7,0.1-1.4,0.4-2c0.3-0.6,0.7-1,1.2-1.3c0.5-0.3,1.1-0.5,1.7-0.5c1,0,1.8,0.3,2.4,1s0.9,1.6,0.9,2.8v0.1
				c0,0.7-0.1,1.4-0.4,1.9c-0.3,0.6-0.7,1-1.2,1.3S381.6,36,381,36c-1,0-1.8-0.3-2.4-1S377.6,33.4,377.6,32.1L377.6,32.1z
				 M378.9,32.3c0,0.8,0.2,1.5,0.6,2c0.4,0.5,0.9,0.7,1.5,0.7c0.6,0,1.2-0.3,1.5-0.8c0.4-0.5,0.6-1.2,0.6-2.1c0-0.8-0.2-1.5-0.6-2
				c-0.4-0.5-0.9-0.8-1.5-0.8c-0.6,0-1.1,0.2-1.5,0.7S378.9,31.3,378.9,32.3z"/>
			<path d="M390.2,33.9c0-0.3-0.1-0.6-0.4-0.8c-0.3-0.2-0.7-0.4-1.3-0.5c-0.6-0.1-1.1-0.3-1.5-0.5s-0.7-0.4-0.8-0.7
				c-0.2-0.3-0.3-0.6-0.3-0.9c0-0.6,0.3-1.1,0.8-1.5s1.2-0.6,2-0.6c0.8,0,1.5,0.2,2,0.6c0.5,0.4,0.8,1,0.8,1.7h-1.3
				c0-0.3-0.1-0.6-0.4-0.9s-0.7-0.4-1.1-0.4c-0.5,0-0.8,0.1-1.1,0.3s-0.4,0.5-0.4,0.8c0,0.3,0.1,0.5,0.4,0.7
				c0.2,0.2,0.7,0.3,1.3,0.4c0.6,0.1,1.1,0.3,1.5,0.5c0.4,0.2,0.7,0.4,0.9,0.7c0.2,0.3,0.3,0.6,0.3,1c0,0.7-0.3,1.2-0.8,1.6
				c-0.5,0.4-1.2,0.6-2.1,0.6c-0.6,0-1.1-0.1-1.6-0.3c-0.5-0.2-0.8-0.5-1.1-0.9c-0.3-0.4-0.4-0.8-0.4-1.2h1.3c0,0.4,0.2,0.8,0.5,1
				c0.3,0.2,0.7,0.4,1.3,0.4c0.5,0,0.9-0.1,1.2-0.3C390.1,34.5,390.2,34.2,390.2,33.9z"/>
		</g>
		<g class="st0">
			<path d="M333.3,48.9c0-1.1,0.3-2,0.8-2.7c0.5-0.7,1.2-1,2.1-1c0.9,0,1.6,0.3,2.1,0.9v-3.9h1.3v10.5h-1.2l-0.1-0.8
				c-0.5,0.6-1.2,0.9-2.1,0.9c-0.9,0-1.6-0.4-2.1-1.1S333.3,50.1,333.3,48.9L333.3,48.9z M334.6,49.1c0,0.8,0.2,1.5,0.5,2
				c0.3,0.5,0.8,0.7,1.4,0.7c0.8,0,1.4-0.4,1.8-1.1v-3.4c-0.4-0.7-1-1-1.7-1c-0.6,0-1.1,0.2-1.4,0.7
				C334.8,47.4,334.6,48.1,334.6,49.1z"/>
			<path d="M344.6,52.8c-1,0-1.8-0.3-2.4-1c-0.6-0.7-0.9-1.5-0.9-2.6V49c0-0.7,0.1-1.4,0.4-2c0.3-0.6,0.7-1,1.2-1.4
				c0.5-0.3,1-0.5,1.6-0.5c1,0,1.7,0.3,2.2,1s0.8,1.5,0.8,2.7v0.5h-5c0,0.7,0.2,1.3,0.6,1.8c0.4,0.4,0.9,0.7,1.6,0.7
				c0.4,0,0.8-0.1,1.1-0.3c0.3-0.2,0.6-0.4,0.8-0.7l0.8,0.6C346.8,52.3,345.8,52.8,344.6,52.8z M344.4,46.2c-0.5,0-0.9,0.2-1.3,0.6
				c-0.3,0.4-0.6,0.9-0.6,1.6h3.7v-0.1c0-0.6-0.2-1.1-0.5-1.5C345.4,46.4,345,46.2,344.4,46.2z"/>
			<path d="M357,51.9c-0.5,0.6-1.2,0.9-2.2,0.9c-0.8,0-1.4-0.2-1.8-0.7c-0.4-0.5-0.6-1.1-0.6-2v-4.8h1.3v4.8c0,1.1,0.5,1.7,1.4,1.7
				c1,0,1.6-0.4,1.9-1.1v-5.4h1.3v7.4H357L357,51.9z"/>
			<path d="M361.3,45.3l0,0.9c0.6-0.7,1.3-1.1,2.2-1.1c1.6,0,2.4,0.9,2.4,2.6v4.9h-1.3v-4.9c0-0.5-0.1-0.9-0.4-1.2s-0.6-0.4-1.1-0.4
				c-0.4,0-0.8,0.1-1.1,0.3c-0.3,0.2-0.6,0.5-0.7,0.9v5.3h-1.3v-7.4H361.3z"/>
		</g>
		<g class="st0">
			<path d="M320.9,69.5h-1.3v-10h1.3V69.5z"/>
			<path d="M322.8,65.7c0-1.2,0.3-2.1,0.8-2.8c0.5-0.7,1.2-1,2.1-1c0.9,0,1.6,0.3,2.1,1l0.1-0.8h1.2v7.2c0,1-0.3,1.7-0.9,2.3
				s-1.3,0.8-2.3,0.8c-0.5,0-1.1-0.1-1.6-0.3c-0.5-0.2-0.9-0.5-1.2-0.9l0.7-0.8c0.5,0.7,1.2,1,2,1c0.6,0,1.1-0.2,1.4-0.5
				c0.3-0.3,0.5-0.8,0.5-1.5v-0.6c-0.5,0.6-1.2,0.9-2.1,0.9c-0.9,0-1.6-0.3-2.1-1C323.1,67.9,322.8,66.9,322.8,65.7z M324.1,65.9
				c0,0.8,0.2,1.5,0.5,2c0.3,0.5,0.8,0.7,1.4,0.7c0.8,0,1.4-0.4,1.8-1.1v-3.4c-0.4-0.7-1-1.1-1.7-1.1c-0.6,0-1.1,0.2-1.4,0.7
				C324.3,64.2,324.1,64.9,324.1,65.9z"/>
			<path d="M335.6,68.7c-0.5,0.6-1.2,0.9-2.2,0.9c-0.8,0-1.4-0.2-1.8-0.7c-0.4-0.5-0.6-1.1-0.6-2v-4.8h1.3v4.8
				c0,1.1,0.5,1.7,1.4,1.7c1,0,1.6-0.4,1.9-1.1v-5.4h1.3v7.4h-1.2L335.6,68.7z"/>
			<path d="M343.3,69.5c-0.1-0.1-0.1-0.4-0.2-0.8c-0.6,0.6-1.3,0.9-2.1,0.9c-0.7,0-1.3-0.2-1.8-0.6c-0.5-0.4-0.7-0.9-0.7-1.6
				c0-0.8,0.3-1.4,0.9-1.8c0.6-0.4,1.4-0.6,2.5-0.6h1.2v-0.6c0-0.4-0.1-0.8-0.4-1.1c-0.3-0.3-0.7-0.4-1.2-0.4
				c-0.5,0-0.8,0.1-1.1,0.3c-0.3,0.2-0.5,0.5-0.5,0.8h-1.3c0-0.4,0.1-0.7,0.4-1.1c0.3-0.3,0.6-0.6,1.1-0.8c0.4-0.2,0.9-0.3,1.5-0.3
				c0.9,0,1.5,0.2,2,0.6c0.5,0.4,0.7,1,0.8,1.8v3.4c0,0.7,0.1,1.2,0.3,1.6v0.1H343.3z M341.2,68.5c0.4,0,0.8-0.1,1.1-0.3
				s0.6-0.5,0.8-0.8v-1.5h-1c-1.5,0-2.3,0.5-2.3,1.4c0,0.4,0.1,0.7,0.4,0.9C340.4,68.4,340.8,68.5,341.2,68.5z"/>
			<path d="M347.5,62.1l0,0.9c0.6-0.7,1.3-1.1,2.2-1.1c1.6,0,2.4,0.9,2.4,2.6v4.9h-1.3v-4.9c0-0.5-0.1-0.9-0.4-1.2s-0.6-0.4-1.1-0.4
				c-0.4,0-0.8,0.1-1.1,0.3c-0.3,0.2-0.6,0.5-0.7,0.9v5.3h-1.3v-7.4H347.5z"/>
			<path d="M353.7,65.7c0-0.7,0.1-1.4,0.4-2c0.3-0.6,0.7-1,1.2-1.3c0.5-0.3,1.1-0.5,1.7-0.5c1,0,1.8,0.3,2.4,1s0.9,1.6,0.9,2.8v0.1
				c0,0.7-0.1,1.4-0.4,1.9c-0.3,0.6-0.7,1-1.2,1.3s-1.1,0.5-1.8,0.5c-1,0-1.8-0.3-2.4-1S353.7,67,353.7,65.7L353.7,65.7z M355,65.9
				c0,0.8,0.2,1.5,0.6,2c0.4,0.5,0.9,0.7,1.5,0.7c0.6,0,1.2-0.3,1.5-0.8c0.4-0.5,0.6-1.2,0.6-2.1c0-0.8-0.2-1.5-0.6-2
				c-0.4-0.5-0.9-0.8-1.5-0.8c-0.6,0-1.1,0.2-1.5,0.7S355,64.9,355,65.9z"/>
			<path d="M361.7,65.7c0-1.1,0.3-2,0.8-2.7c0.5-0.7,1.2-1,2.1-1c0.9,0,1.6,0.3,2.1,0.9V59h1.3v10.5h-1.2l-0.1-0.8
				c-0.5,0.6-1.2,0.9-2.1,0.9c-0.9,0-1.6-0.4-2.1-1.1S361.7,66.9,361.7,65.7L361.7,65.7z M363,65.9c0,0.8,0.2,1.5,0.5,2
				c0.3,0.5,0.8,0.7,1.4,0.7c0.8,0,1.4-0.4,1.8-1.1v-3.4c-0.4-0.7-1-1-1.7-1c-0.6,0-1.1,0.2-1.4,0.7C363.2,64.2,363,64.9,363,65.9z"
				/>
			<path d="M369.6,65.7c0-0.7,0.1-1.4,0.4-2c0.3-0.6,0.7-1,1.2-1.3c0.5-0.3,1.1-0.5,1.7-0.5c1,0,1.8,0.3,2.4,1s0.9,1.6,0.9,2.8v0.1
				c0,0.7-0.1,1.4-0.4,1.9c-0.3,0.6-0.7,1-1.2,1.3s-1.1,0.5-1.8,0.5c-1,0-1.8-0.3-2.4-1S369.6,67,369.6,65.7L369.6,65.7z
				 M370.9,65.9c0,0.8,0.2,1.5,0.6,2c0.4,0.5,0.9,0.7,1.5,0.7c0.6,0,1.2-0.3,1.5-0.8c0.4-0.5,0.6-1.2,0.6-2.1c0-0.8-0.2-1.5-0.6-2
				c-0.4-0.5-0.9-0.8-1.5-0.8c-0.6,0-1.1,0.2-1.5,0.7S370.9,64.9,370.9,65.9z"/>
			<path d="M379.1,62.1l0,0.9c0.6-0.7,1.3-1.1,2.2-1.1c1.6,0,2.4,0.9,2.4,2.6v4.9h-1.3v-4.9c0-0.5-0.1-0.9-0.4-1.2S381.5,63,381,63
				c-0.4,0-0.8,0.1-1.1,0.3c-0.3,0.2-0.6,0.5-0.7,0.9v5.3h-1.3v-7.4H379.1z"/>
		</g>
	</g>
</g>
<path class="st6" d="M337.3,79.6c0,0-3,22.2-20.3,30.5"/>
</svg>
