<?xml version="1.0" encoding="utf-8"?>
<!-- Generator: Adobe Illustrator 26.2.1, SVG Export Plug-In . SVG Version: 6.00 Build 0)  -->
<svg version="1.1" id="Layer_1" xmlns="http://www.w3.org/2000/svg" xmlns:xlink="http://www.w3.org/1999/xlink" x="0px" y="0px"
	 viewBox="0 0 1200 862.9" style="enable-background:new 0 0 1200 862.9;" xml:space="preserve">
<style type="text/css">
	.st0{clip-path:url(#SVGID_00000005968914646401179230000003803417683203880109_);}
	.st1{fill:none;}
	.st2{fill:none;stroke:#62B5D7;stroke-width:0.5;stroke-miterlimit:10;}
	.st3{opacity:0.8;clip-path:url(#SVGID_00000053505545844545622480000007398965158760384430_);enable-background:new    ;}
	.st4{clip-path:url(#SVGID_00000023976102442138769850000015831939833437049482_);}
	.st5{clip-path:url(#SVGID_00000075164934600889762720000017656583251655836067_);}
	.st6{opacity:0.5;clip-path:url(#SVGID_00000168835145394499620770000008640724855178421170_);enable-background:new    ;}
	.st7{clip-path:url(#SVGID_00000021835779296417975620000008687772579340297384_);}
	.st8{clip-path:url(#SVGID_00000075885410317097089410000014598310118323144104_);fill:#FFFFFF;}
	
		.st9{clip-path:url(#SVGID_00000075885410317097089410000014598310118323144104_);fill:none;stroke:#FFFFFF;stroke-width:5.5046;stroke-linecap:round;stroke-linejoin:round;stroke-miterlimit:10;}
	.st10{fill:none;stroke:#62B5D7;stroke-width:1.1009;stroke-miterlimit:10;}
	.st11{enable-background:new    ;}
	.st12{fill:#58595B;}
	.st13{fill:none;stroke:#000000;stroke-width:0.5;stroke-miterlimit:10;}
	.st14{fill:none;stroke:#58595B;stroke-width:0.5;stroke-miterlimit:10;}
	.st15{fill:#62B5D7;}
</style>
<g>
	<defs>
		<rect id="SVGID_1_" width="1200" height="862.9"/>
	</defs>
	<clipPath id="SVGID_00000121249981391656485430000010175722584000637864_">
		<use xlink:href="#SVGID_1_"  style="overflow:visible;"/>
	</clipPath>
	<g style="clip-path:url(#SVGID_00000121249981391656485430000010175722584000637864_);">
		<rect x="6.8" y="167.4" class="st1" width="110" height="109"/>
		<rect x="1071.9" y="291.2" class="st1" width="110" height="109"/>
		<line class="st2" x1="580.4" y1="216.6" x2="695.8" y2="216.6"/>
		<g>
			<defs>
				<rect id="SVGID_00000139291255181066699560000003919490950726737818_" x="407.3" y="118.6" width="841" height="713.3"/>
			</defs>
			<clipPath id="SVGID_00000067924185494311986520000006995459267061670795_">
				<use xlink:href="#SVGID_00000139291255181066699560000003919490950726737818_"  style="overflow:visible;"/>
			</clipPath>
			<g style="opacity:0.8;clip-path:url(#SVGID_00000067924185494311986520000006995459267061670795_);enable-background:new    ;">
				<g>
					<defs>
						<rect id="SVGID_00000134944218077935644770000005410227528398721936_" x="406.8" y="118.1" width="842.1" height="714.1"/>
					</defs>
					<clipPath id="SVGID_00000111154192629063915340000009152932923102545030_">
						<use xlink:href="#SVGID_00000134944218077935644770000005410227528398721936_"  style="overflow:visible;"/>
					</clipPath>
					<g style="clip-path:url(#SVGID_00000111154192629063915340000009152932923102545030_);">
						<defs>
							<rect id="SVGID_00000147906394898859522210000014811901216220027046_" x="406.8" y="118.1" width="842.1" height="714.1"/>
						</defs>
						<clipPath id="SVGID_00000131358177911939152700000009525526966806390455_">
							<use xlink:href="#SVGID_00000147906394898859522210000014811901216220027046_"  style="overflow:visible;"/>
						</clipPath>
						<g style="clip-path:url(#SVGID_00000131358177911939152700000009525526966806390455_);">
							<defs>
								<rect id="SVGID_00000135665610606922678220000003996239449920604551_" x="407.3" y="118.6" width="841" height="713.2"/>
							</defs>
							<clipPath id="SVGID_00000140716525833102043520000000231219755073513151_">
								<use xlink:href="#SVGID_00000135665610606922678220000003996239449920604551_"  style="overflow:visible;"/>
							</clipPath>
							
								<g transform="matrix(1 0 0 1 -1.220703e-04 0)" style="clip-path:url(#SVGID_00000140716525833102043520000000231219755073513151_);">
								
									<image style="overflow:visible;" width="1500" height="1272" xlink:href="A8BF1F544F09EAE6.png"  transform="matrix(-0.5607 0 0 0.5607 1248.2611 118.633)">
								</image>
							</g>
						</g>
					</g>
				</g>
			</g>
		</g>
		<g>
			<defs>
				<rect id="SVGID_00000061438170281726383490000004687765451130869182_" x="20.2" y="45.7" width="1054.3" height="780.2"/>
			</defs>
			<clipPath id="SVGID_00000111914067958681632210000008951452328202792379_">
				<use xlink:href="#SVGID_00000061438170281726383490000004687765451130869182_"  style="overflow:visible;"/>
			</clipPath>
			<g style="clip-path:url(#SVGID_00000111914067958681632210000008951452328202792379_);">
				
					<image style="overflow:visible;" width="1500" height="1110" xlink:href="A8BF1F544F09EAE1.png"  transform="matrix(0.7028 0 0 0.7028 20.2121 45.6702)">
				</image>
			</g>
		</g>
		<g>
			<defs>
				<rect id="SVGID_00000014623871503092467400000016338267262367241902_" x="528.2" y="215.3" width="223.7" height="577.7"/>
			</defs>
			<clipPath id="SVGID_00000047752672904790002380000014117143515101980583_">
				<use xlink:href="#SVGID_00000014623871503092467400000016338267262367241902_"  style="overflow:visible;"/>
			</clipPath>
			<g style="opacity:0.5;clip-path:url(#SVGID_00000047752672904790002380000014117143515101980583_);enable-background:new    ;">
				<g>
					<defs>
						<rect id="SVGID_00000097466489767143785840000000789487667475910284_" x="525.2" y="213" width="229.9" height="582.6"/>
					</defs>
					<clipPath id="SVGID_00000072965360758894867830000015396734405372780983_">
						<use xlink:href="#SVGID_00000097466489767143785840000000789487667475910284_"  style="overflow:visible;"/>
					</clipPath>
					<g style="clip-path:url(#SVGID_00000072965360758894867830000015396734405372780983_);">
						<defs>
							<rect id="SVGID_00000062888297557451266000000008598641000945441719_" x="527.8" y="214.8" width="224.7" height="579.1"/>
						</defs>
						<clipPath id="SVGID_00000126291840942106255330000004688096407065617283_">
							<use xlink:href="#SVGID_00000062888297557451266000000008598641000945441719_"  style="overflow:visible;"/>
						</clipPath>
						<path style="clip-path:url(#SVGID_00000126291840942106255330000004688096407065617283_);fill:#FFFFFF;" d="M635.5,337.3
							c-0.4,0.5-1.9,1.7-2.3,2.2c-0.4,0.5-1,1.7-1.1,2.1c-0.1,0.4-1.1,0.4-1-0.1c0.1-0.5-0.2-5.3-0.2-5.9c0-0.6,0.3-4.6,0.1-5.9
							c-0.2-1.3-0.9-2.1-0.9-2.1s-0.5-1.5-0.6-1.8l3.9,0.3c0,0,0.6,1.5,0.6,1.9c0,0.4,0.8,2.2,0.8,3c0,0.8,0.1,2.9,0.2,3.4
							c0.1,0.5,0.9,1.1,0.9,1.4C635.9,336.1,635.9,336.8,635.5,337.3z M627.6,316.9l6.9,2.4l0.3,1.5l-1.6,1.4l-4.6-0.1L627.6,316.9z
							 M749.5,790.6v-26.4h-2v-1.6h-25.3L711.6,738l-2.2-2v-3.3c0.9-0.1,2.6-0.9,2.6-3.8c0-3-2.6-3.1-2.6-3.1v-5.7h2l3-2.1v-11.7
							h-5.2v8.7H704v-12.8l-3.8-5.5v-14.5h2.3v-2.6h-3c0,0-1.8-18-1.8-23c0-5.1,0-18.2,0-18.2l0.7-0.7v-2.3h2.1v-2.2h-2.5v-4.9h2.5
							v-1.8h4.6v-4.7h-3.9v-7.9h1.7v-5.2h-4.8v-1.2h-1.6v-3.8h-1.7V595h2.7v-7.1l-8.6-3.7h-2.7v-13.9c0,0-4.8-0.4-4.8,0l-0.9-0.2
							c0,0,0.1-0.7-0.4-1c-0.5-0.3-2.5-1.2-2.5-1.2s-1.1-2.9-1.6-3.8s-0.8-29.5-0.8-29.5s0.2-2.9,1-3.6c0.8-0.7,0.8-3.2,0.8-3.5
							c0-0.3,0.7-0.6,1-0.7c0.3-0.1,1.9-0.3,2-0.6c0.1-0.3,0.3-4.3,0.1-5.2c-0.2-0.9-0.5-4.2-0.6-5c-0.1-0.8-0.3-12.2-0.3-12.2
							s0.7-1.5,0.9-2.3c0.2-0.8,0.1-1.8-0.1-2.4c-0.2-0.6-0.5-3.8-0.5-4.7c0-0.9,2.3-2.3,2.8-3.4c0.5-1.1,0.6-10.6,0.5-11.7
							c-0.1-1.1-0.4-4.8-0.2-6.1c0.2-1.3-0.1-13.8-0.5-16.3c-0.4-2.5-1.4-9.3-1.5-10.3c-0.1-1,0.1-1.8,0.1-1.8s1.3-0.3,1.9-0.6
							c0.6-0.3,1.5-1.9,1.6-2.5c0.1-0.6,0.7-2.6,1.1-3.6c0.4-1,1-5.5,1-5.5l7.6,4.6l11-18.3c0,0,1.6,0,2-0.5
							c0.4-0.5,1.2-0.6,1.7-1.1c0.5-0.5,1.1-1.9,1.1-1.9s1.2,0.5,1.5-0.6c0.3-1.1,0.3-1.9,0.7-2.4c0.4-0.5,1-1.2,1.5-2.3
							c0.5-1.1,0.6-3.1,0.5-3.7s-0.7-2.8-0.8-3.5c-0.1-0.7,0.4-2.4,0.8-3c0.4-0.6,3-4.8,3-4.8l0.9-4.2l-22.8-12.2L680.9,403
							c0,0-1.1-3.5-1.4-4.3c-0.3-0.8-1.2-3.8-1.9-5.2c-0.7-1.4-1.9-2.7-2.3-4.4s-0.6-8.4-1-10.1c-0.4-1.7-0.8-1.8-0.8-2.4
							c0-0.6,0-4.1-0.6-5.9c-0.6-1.8-2.8-4.7-3.2-5.6c-0.4-0.9-2.6-3.3-2.8-4s-1-3.7-1.2-5c-0.2-1.3-0.4-4.2,0.3-5.7
							c0.7-1.5,1.3-3.2,1.4-5.2c0.1-2-0.8-3.3-0.8-4.5c0-1.2-0.4-5-0.3-6c0.1-1,0.5-4.9,0.9-5.7c0.4-0.8,0.7-2.4,0.7-2.4l18.7-1.5
							v-1.3l-19.1,0.2c0,0-0.1-2.2-0.9-3.6l16.4-8.5l-0.2-0.9l-18.4,5.6c0,0-1.9-1.7-2.7-2.3l9.8-11.2l-1-0.5l-13.8,9.8l-2.9-0.3
							l-2.4-14.5H650l-2.6,14.5l-3.2,0.2l-13.8-9.8l-0.7,0.6l10,11.2c0,0-2.4,1.2-3.4,2.8l-9.2-3.2c0,0-0.5-6.1-0.9-9
							c-0.4-2.8-1.5-9.8-1.8-11.6c-0.3-1.8-0.6-11.1-0.5-11.9c0.1-0.8,0.4-1.9,0.7-2.8c0.3-0.9,0.2-5.4,0.4-7.5c0.2-2,0-3.1-0.4-4.1
							c-0.4-1-1-2.7-1.4-3.2c-0.4-0.5-1.2-1-1-1.6s0.9-2.1,1-3c0.1-0.9,0-2,0.2-2.7c0.2-0.7,0.6-1.5,0.9-1.8
							c0.3-0.3,1.4-0.4,1.4-0.4l0.8-0.8h2.6V252h1.1v-1.6h-1.2v-4.6l1-0.7v-1.2h-8.2v-5.5c0,0,1.8-1.8,2.3-4.7
							c0.5-2.9-0.4-4.5-1-6.1c-0.6-1.6-2.7-5.9-2.8-8.9c0,0-1.1,4.9-2.7,5.8c-1.6,0.9-1.5,0.4-1.7-0.9c-0.2-1.2-0.6-1.8-0.6-1.8
							s-2.3,0.5-2.5,3.2c-0.1,2.7,0.5,3.4,0,4.3c-0.5,0.9-1.4,0.9-1.4,0.9s-0.5,3.6,0.5,5.4c1,1.8,2.3,2.7,2.3,2.7v5.5h-7.9v1.2
							l0.6,0.6v4.7h-1.3v1.6h1.5l0.4,1h2.3l0.1,0.7h1.7v4.3h1.1v2.7c0,0-1.4-0.2-1.5,1c-0.1,1.2,0.1,2.3,0.1,2.3s-1.1,0.2-1.4,1.2
							c-0.2,1,0,2.6,0,2.6s-1.1,0.7-1,1.7c0.1,1,1.5,2.6,1.5,2.6s-0.4,3.6,0.2,4.9c0.6,1.4,1.7,3.3,1.7,3.3v13.3
							c0,0-0.7,1.4-0.9,2.7c-0.1,1.4-0.7,8-0.9,10.2c-0.1,2.2-0.2,4.4,0,6.4c0.2,2,1.7,7.3,2,8.6c0.2,1.4-0.2,6.8-0.2,6.8
							s-1.6,3-3.3,4.9c-1.7,2-6,9-6.8,11.8c-0.7,2.8-0.5,7,0.2,8.3c0.7,1.2,2.1,2.7,2.1,2.7s-1,3.4-0.5,4.7c0.5,1.2,2.6,1.7,2.6,1.7
							s1.7,1.4,1.7,2.7c0,1.4-0.5,8.4-0.6,9.7c-0.1,1.4,0,3.3,0.1,3.9c0.1,0.6-1.2,1.7-1.1,3c0.1,1.2,1.4,3.3,1.4,3.7
							c0,0.4,0.7,2.8,1.4,4.2c0.6,1.4,0.7,3.6,0.6,4.9c-0.1,1.4,0,15.2,0,15.2s-3.9,4.6-4.3,6.3c-0.4,1.7-0.4,3.8,1.8,5.2
							c2.2,1.4,4.9,0.1,5.5,0.6c0.6,0.5,1.4,1.8,1.4,1.8l-0.1,8.4c0,0-5.2,8.5-6,9.9c-0.9,1.4-2.1,2.6-1.7,5.8s3.6,3.4,3.6,3.4
							s0.4,5.8,0.7,7.4c0.4,1.6,0.7,3.4,0.9,5.7c0.1,2.2,0.1,10.1,0.2,13.1c0.1,3,0.2,7.4,0.1,8.1c-0.1,0.7-2.2,2.3-2.2,4.2
							c0,1.8,0.1,2.6,0.6,3.3c0.5,0.7,0.5,2.1,0.5,2.8s-0.2,5.8-0.4,6.9c-0.1,1.1-1.6,4.4-1.6,6.7c0,2.2,0.1,9.5,0.1,11.7
							c0,2.2,0.5,8,0.5,9.5s-0.6,4.1-0.5,6.4c0.1,2.3-0.1,4.6,0.1,5.8c0.2,1.2,0.1,3.7,0,4.4c-0.1,0.7-1.5,0.2-1.7,1.6
							c-0.2,1.4-0.6,5.9-0.6,5.9s-2.3,2.3-3,3.3c-0.6,1-2.3,3.1-3,4.4s-1.5,3.1-1.8,3.8c-0.4,0.7-0.1,2.2-0.4,2.6
							c-0.2,0.4-0.4,1.8-0.4,1.5c0-0.4-4.8,0-4.8,0v13.9h-2.7l-8.6,3.7v7.1h2.7v8.6h-1.7v3.8H582v1.2h-4.8v5.2h1.7v7.9H575v4.7h4.6
							v1.8h2.5v4.9h-2.5v2.2h2.1v2.3l0.7,0.7c0,0,0,13.1,0,18.2c0,5.1-1.8,23-1.8,23h-3v2.6h2.3v14.5l-3.8,5.5v12.8H571v-8.7h-5.2
							v11.7l3,2.1h2v5.7c0,0-2.6,0.1-2.6,3.1c0,3,1.7,3.7,2.6,3.8v3.3l-2.2,2l-10.7,24.6h-25.3v1.6h-2v26.4"/>
						
							<path style="clip-path:url(#SVGID_00000126291840942106255330000004688096407065617283_);fill:none;stroke:#FFFFFF;stroke-width:5.5046;stroke-linecap:round;stroke-linejoin:round;stroke-miterlimit:10;" d="
							M635.5,337.3c-0.4,0.5-1.9,1.7-2.3,2.2c-0.4,0.5-1,1.7-1.1,2.1c-0.1,0.4-1.1,0.4-1-0.1c0.1-0.5-0.2-5.3-0.2-5.9
							c0-0.6,0.3-4.6,0.1-5.9c-0.2-1.3-0.9-2.1-0.9-2.1s-0.5-1.5-0.6-1.8l3.9,0.3c0,0,0.6,1.5,0.6,1.9c0,0.4,0.8,2.2,0.8,3
							s0.1,2.9,0.2,3.4c0.1,0.5,0.9,1.1,0.9,1.4C635.9,336.1,635.9,336.8,635.5,337.3z M627.6,316.9l6.9,2.4l0.3,1.5l-1.6,1.4
							l-4.6-0.1L627.6,316.9z M749.5,790.6v-26.4h-2v-1.6h-25.3L711.6,738l-2.2-2v-3.3c0.9-0.1,2.6-0.9,2.6-3.8c0-3-2.6-3.1-2.6-3.1
							v-5.7h2l3-2.1v-11.7h-5.2v8.7H704v-12.8l-3.8-5.5v-14.5h2.3v-2.6h-3c0,0-1.8-18-1.8-23c0-5.1,0-18.2,0-18.2l0.7-0.7v-2.3h2.1
							v-2.2h-2.5v-4.9h2.5v-1.8h4.6v-4.7h-3.9v-7.9h1.7v-5.2h-4.8v-1.2h-1.6v-3.8h-1.7V595h2.7v-7.1l-8.6-3.7h-2.7v-13.9
							c0,0-4.8-0.4-4.8,0l-0.9-0.2c0,0,0.1-0.7-0.4-1c-0.5-0.3-2.5-1.2-2.5-1.2s-1.1-2.9-1.6-3.8c-0.5-0.9-0.8-29.5-0.8-29.5
							s0.2-2.9,1-3.6c0.8-0.7,0.8-3.2,0.8-3.5c0-0.3,0.7-0.6,1-0.7s1.9-0.3,2-0.6c0.1-0.3,0.3-4.3,0.1-5.2c-0.2-0.9-0.5-4.2-0.6-5
							c-0.1-0.8-0.3-12.2-0.3-12.2s0.7-1.5,0.9-2.3c0.2-0.8,0.1-1.8-0.1-2.4c-0.2-0.6-0.5-3.8-0.5-4.7c0-0.9,2.3-2.3,2.8-3.4
							c0.5-1.1,0.6-10.6,0.5-11.7c-0.1-1.1-0.4-4.8-0.2-6.1c0.2-1.3-0.1-13.8-0.5-16.3c-0.4-2.5-1.4-9.3-1.5-10.3
							c-0.1-1,0.1-1.8,0.1-1.8s1.3-0.3,1.9-0.6c0.6-0.3,1.5-1.9,1.6-2.5c0.1-0.6,0.7-2.6,1.1-3.6c0.4-1,1-5.5,1-5.5l7.6,4.6l11-18.3
							c0,0,1.6,0,2-0.5c0.4-0.5,1.2-0.6,1.7-1.1c0.5-0.5,1.1-1.9,1.1-1.9s1.2,0.5,1.5-0.6c0.3-1.1,0.3-1.9,0.7-2.4
							c0.4-0.5,1-1.2,1.5-2.3c0.5-1.1,0.6-3.1,0.5-3.7c-0.1-0.6-0.7-2.8-0.8-3.5c-0.1-0.7,0.4-2.4,0.8-3c0.4-0.6,3-4.8,3-4.8
							l0.9-4.2l-22.8-12.2L680.9,403c0,0-1.1-3.5-1.4-4.3c-0.3-0.8-1.2-3.8-1.9-5.2c-0.7-1.4-1.9-2.7-2.3-4.4
							c-0.4-1.7-0.6-8.4-1-10.1c-0.4-1.7-0.8-1.8-0.8-2.4c0-0.6,0-4.1-0.6-5.9c-0.6-1.8-2.8-4.7-3.2-5.6s-2.6-3.3-2.8-4
							c-0.2-0.7-1-3.7-1.2-5c-0.2-1.3-0.4-4.2,0.3-5.7c0.7-1.5,1.3-3.2,1.4-5.2c0.1-2-0.8-3.3-0.8-4.5c0-1.2-0.4-5-0.3-6
							c0.1-1,0.5-4.9,0.9-5.7c0.4-0.8,0.7-2.4,0.7-2.4l18.7-1.5v-1.3l-19.1,0.2c0,0-0.1-2.2-0.9-3.6l16.4-8.5l-0.2-0.9l-18.4,5.6
							c0,0-1.9-1.7-2.7-2.3l9.8-11.2l-1-0.5l-13.8,9.8l-2.9-0.3l-2.4-14.5H650l-2.6,14.5l-3.2,0.2l-13.8-9.8l-0.7,0.6l10,11.2
							c0,0-2.4,1.2-3.4,2.8l-9.2-3.2c0,0-0.5-6.1-0.9-9c-0.4-2.8-1.5-9.8-1.8-11.6c-0.3-1.8-0.6-11.1-0.5-11.9
							c0.1-0.8,0.4-1.9,0.7-2.8c0.3-0.9,0.2-5.4,0.4-7.5c0.2-2,0-3.1-0.4-4.1c-0.4-1-1-2.7-1.4-3.2c-0.4-0.5-1.2-1-1-1.6
							c0.2-0.6,0.9-2.1,1-3c0.1-0.9,0-2,0.2-2.7c0.2-0.7,0.6-1.5,0.9-1.8s1.4-0.4,1.4-0.4l0.8-0.8h2.6V252h1.1v-1.6h-1.2v-4.6l1-0.7
							v-1.2h-8.2v-5.5c0,0,1.8-1.8,2.3-4.7c0.5-2.9-0.4-4.5-1-6.1s-2.7-5.9-2.8-8.9c0,0-1.1,4.9-2.7,5.8c-1.6,0.9-1.5,0.4-1.7-0.9
							c-0.2-1.2-0.6-1.8-0.6-1.8s-2.3,0.5-2.5,3.2c-0.1,2.7,0.5,3.4,0,4.3c-0.5,0.9-1.4,0.9-1.4,0.9s-0.5,3.6,0.5,5.4
							c1,1.8,2.3,2.7,2.3,2.7v5.5h-7.9v1.2l0.6,0.6v4.7h-1.3v1.6h1.5l0.4,1h2.3l0.1,0.7h1.7v4.3h1.1v2.7c0,0-1.4-0.2-1.5,1
							c-0.1,1.2,0.1,2.3,0.1,2.3s-1.1,0.2-1.4,1.2c-0.2,1,0,2.6,0,2.6s-1.1,0.7-1,1.7c0.1,1,1.5,2.6,1.5,2.6s-0.4,3.6,0.2,4.9
							c0.6,1.4,1.7,3.3,1.7,3.3v13.3c0,0-0.7,1.4-0.9,2.7c-0.1,1.4-0.7,8-0.9,10.2c-0.1,2.2-0.2,4.4,0,6.4c0.2,2,1.7,7.3,2,8.6
							c0.2,1.4-0.2,6.8-0.2,6.8s-1.6,3-3.3,4.9c-1.7,2-6,9-6.8,11.8c-0.7,2.8-0.5,7,0.2,8.3c0.7,1.2,2.1,2.7,2.1,2.7s-1,3.4-0.5,4.7
							c0.5,1.2,2.6,1.7,2.6,1.7s1.7,1.4,1.7,2.7c0,1.4-0.5,8.4-0.6,9.7c-0.1,1.4,0,3.3,0.1,3.9c0.1,0.6-1.2,1.7-1.1,3
							c0.1,1.2,1.4,3.3,1.4,3.7c0,0.4,0.7,2.8,1.4,4.2c0.6,1.4,0.7,3.6,0.6,4.9c-0.1,1.4,0,15.2,0,15.2s-3.9,4.6-4.3,6.3
							c-0.4,1.7-0.4,3.8,1.8,5.2c2.2,1.4,4.9,0.1,5.5,0.6c0.6,0.5,1.4,1.8,1.4,1.8l-0.1,8.4c0,0-5.2,8.5-6,9.9s-2.1,2.6-1.7,5.8
							c0.4,3.2,3.6,3.4,3.6,3.4s0.4,5.8,0.7,7.4c0.4,1.6,0.7,3.4,0.9,5.7c0.1,2.2,0.1,10.1,0.2,13.1c0.1,3,0.2,7.4,0.1,8.1
							c-0.1,0.7-2.2,2.3-2.2,4.2c0,1.8,0.1,2.6,0.6,3.3c0.5,0.7,0.5,2.1,0.5,2.8s-0.2,5.8-0.4,6.9c-0.1,1.1-1.6,4.4-1.6,6.7
							c0,2.2,0.1,9.5,0.1,11.7c0,2.2,0.5,8,0.5,9.5c0,1.5-0.6,4.1-0.5,6.4c0.1,2.3-0.1,4.6,0.1,5.8c0.2,1.2,0.1,3.7,0,4.4
							c-0.1,0.7-1.5,0.2-1.7,1.6c-0.2,1.4-0.6,5.9-0.6,5.9s-2.3,2.3-3,3.3c-0.6,1-2.3,3.1-3,4.4c-0.6,1.4-1.5,3.1-1.8,3.8
							c-0.4,0.7-0.1,2.2-0.4,2.6c-0.2,0.4-0.4,1.8-0.4,1.5s-4.8,0-4.8,0v13.9h-2.7l-8.6,3.7v7.1h2.7v8.6h-1.7v3.8H582v1.2h-4.8v5.2
							h1.7v7.9H575v4.7h4.6v1.8h2.5v4.9h-2.5v2.2h2.1v2.3l0.7,0.7c0,0,0,13.1,0,18.2c0,5.1-1.8,23-1.8,23h-3v2.6h2.3v14.5l-3.8,5.5
							v12.8H571v-8.7h-5.2v11.7l3,2.1h2v5.7c0,0-2.6,0.1-2.6,3.1c0,3,1.7,3.7,2.6,3.8v3.3l-2.2,2l-10.7,24.6h-25.3v1.6h-2v26.4"/>
					</g>
				</g>
			</g>
		</g>
		<path class="st10" d="M635.5,337.3c-0.4,0.5-1.9,1.7-2.3,2.2c-0.4,0.5-1,1.7-1.1,2.1c-0.1,0.4-1.1,0.4-1-0.1
			c0.1-0.5-0.2-5.3-0.2-5.9c0-0.6,0.3-4.6,0.1-5.9c-0.2-1.3-0.9-2.1-0.9-2.1s-0.5-1.5-0.6-1.8l3.9,0.3c0,0,0.6,1.5,0.6,1.9
			c0,0.4,0.8,2.2,0.8,3s0.1,2.9,0.2,3.4c0.1,0.5,0.9,1.1,0.9,1.4C635.9,336.1,635.9,336.8,635.5,337.3z M627.6,316.9l6.9,2.4
			l0.3,1.5l-1.6,1.4l-4.6-0.1L627.6,316.9z M749.5,790.6v-26.4h-2v-1.6h-25.3L711.6,738l-2.2-2v-3.3c0.9-0.1,2.6-0.9,2.6-3.8
			c0-3-2.6-3.1-2.6-3.1v-5.7h2l3-2.1v-11.7h-5.2v8.7H704v-12.8l-3.8-5.5v-14.5h2.3v-2.6h-3c0,0-1.8-18-1.8-23c0-5.1,0-18.2,0-18.2
			l0.7-0.7v-2.3h2.1v-2.2h-2.5v-4.9h2.5v-1.8h4.6v-4.7h-3.9v-7.9h1.7v-5.2h-4.8v-1.2h-1.6v-3.8h-1.7V595h2.7v-7.1l-8.6-3.7h-2.7
			v-13.9c0,0-4.8-0.4-4.8,0l-0.9-0.2c0,0,0.1-0.7-0.4-1c-0.5-0.3-2.5-1.2-2.5-1.2s-1.1-2.9-1.6-3.8c-0.5-0.9-0.8-29.5-0.8-29.5
			s0.2-2.9,1-3.6c0.8-0.7,0.8-3.2,0.8-3.5c0-0.3,0.7-0.6,1-0.7s1.9-0.3,2-0.6c0.1-0.3,0.3-4.3,0.1-5.2c-0.2-0.9-0.5-4.2-0.6-5
			c-0.1-0.8-0.3-12.2-0.3-12.2s0.7-1.5,0.9-2.3c0.2-0.8,0.1-1.8-0.1-2.4c-0.2-0.6-0.5-3.8-0.5-4.7c0-0.9,2.3-2.3,2.8-3.4
			c0.5-1.1,0.6-10.6,0.5-11.7c-0.1-1.1-0.4-4.8-0.2-6.1c0.2-1.3-0.1-13.8-0.5-16.3c-0.4-2.5-1.4-9.3-1.5-10.3
			c-0.1-1,0.1-1.8,0.1-1.8s1.3-0.3,1.9-0.6c0.6-0.3,1.5-1.9,1.6-2.5c0.1-0.6,0.7-2.6,1.1-3.6c0.4-1,1-5.5,1-5.5l7.6,4.6l11-18.3
			c0,0,1.6,0,2-0.5c0.4-0.5,1.2-0.6,1.7-1.1c0.5-0.5,1.1-1.9,1.1-1.9s1.2,0.5,1.5-0.6c0.3-1.1,0.3-1.9,0.7-2.4
			c0.4-0.5,1-1.2,1.5-2.3c0.5-1.1,0.6-3.1,0.5-3.7c-0.1-0.6-0.7-2.8-0.8-3.5c-0.1-0.7,0.4-2.4,0.8-3c0.4-0.6,3-4.8,3-4.8l0.9-4.2
			l-22.8-12.2L680.9,403c0,0-1.1-3.5-1.4-4.3c-0.3-0.8-1.2-3.8-1.9-5.2c-0.7-1.4-1.9-2.7-2.3-4.4c-0.4-1.7-0.6-8.4-1-10.1
			c-0.4-1.7-0.8-1.8-0.8-2.4c0-0.6,0-4.1-0.6-5.9c-0.6-1.8-2.8-4.7-3.2-5.6s-2.6-3.3-2.8-4c-0.2-0.7-1-3.7-1.2-5
			c-0.2-1.3-0.4-4.2,0.3-5.7c0.7-1.5,1.3-3.2,1.4-5.2c0.1-2-0.8-3.3-0.8-4.5c0-1.2-0.4-5-0.3-6c0.1-1,0.5-4.9,0.9-5.7
			c0.4-0.8,0.7-2.4,0.7-2.4l18.7-1.5v-1.3l-19.1,0.2c0,0-0.1-2.2-0.9-3.6l16.4-8.5l-0.2-0.9l-18.4,5.6c0,0-1.9-1.7-2.7-2.3l9.8-11.2
			l-1-0.5l-13.8,9.8l-2.9-0.3l-2.4-14.5H650l-2.6,14.5l-3.2,0.2l-13.8-9.8l-0.7,0.6l10,11.2c0,0-2.4,1.2-3.4,2.8l-9.2-3.2
			c0,0-0.5-6.1-0.9-9c-0.4-2.8-1.5-9.8-1.8-11.6c-0.3-1.8-0.6-11.1-0.5-11.9c0.1-0.8,0.4-1.9,0.7-2.8c0.3-0.9,0.2-5.4,0.4-7.5
			c0.2-2,0-3.1-0.4-4.1c-0.4-1-1-2.7-1.4-3.2c-0.4-0.5-1.2-1-1-1.6c0.2-0.6,0.9-2.1,1-3c0.1-0.9,0-2,0.2-2.7
			c0.2-0.7,0.6-1.5,0.9-1.8s1.4-0.4,1.4-0.4l0.8-0.8h2.6V252h1.1v-1.6h-1.2v-4.6l1-0.7v-1.2h-8.2v-5.5c0,0,1.8-1.8,2.3-4.7
			c0.5-2.9-0.4-4.5-1-6.1s-2.7-5.9-2.8-8.9c0,0-1.1,4.9-2.7,5.8c-1.6,0.9-1.5,0.4-1.7-0.9c-0.2-1.2-0.6-1.8-0.6-1.8
			s-2.3,0.5-2.5,3.2c-0.1,2.7,0.5,3.4,0,4.3c-0.5,0.9-1.4,0.9-1.4,0.9s-0.5,3.6,0.5,5.4c1,1.8,2.3,2.7,2.3,2.7v5.5h-7.9v1.2l0.6,0.6
			v4.7h-1.3v1.6h1.5l0.4,1h2.3l0.1,0.7h1.7v4.3h1.1v2.7c0,0-1.4-0.2-1.5,1c-0.1,1.2,0.1,2.3,0.1,2.3s-1.1,0.2-1.4,1.2
			c-0.2,1,0,2.6,0,2.6s-1.1,0.7-1,1.7c0.1,1,1.5,2.6,1.5,2.6s-0.4,3.6,0.2,4.9c0.6,1.4,1.7,3.3,1.7,3.3v13.3c0,0-0.7,1.4-0.9,2.7
			c-0.1,1.4-0.7,8-0.9,10.2c-0.1,2.2-0.2,4.4,0,6.4c0.2,2,1.7,7.3,2,8.6c0.2,1.4-0.2,6.8-0.2,6.8s-1.6,3-3.3,4.9
			c-1.7,2-6,9-6.8,11.8c-0.7,2.8-0.5,7,0.2,8.3c0.7,1.2,2.1,2.7,2.1,2.7s-1,3.4-0.5,4.7c0.5,1.2,2.6,1.7,2.6,1.7s1.7,1.4,1.7,2.7
			c0,1.4-0.5,8.4-0.6,9.7c-0.1,1.4,0,3.3,0.1,3.9c0.1,0.6-1.2,1.7-1.1,3c0.1,1.2,1.4,3.3,1.4,3.7c0,0.4,0.7,2.8,1.4,4.2
			c0.6,1.4,0.7,3.6,0.6,4.9c-0.1,1.4,0,15.2,0,15.2s-3.9,4.6-4.3,6.3c-0.4,1.7-0.4,3.8,1.8,5.2c2.2,1.4,4.9,0.1,5.5,0.6
			c0.6,0.5,1.4,1.8,1.4,1.8l-0.1,8.4c0,0-5.2,8.5-6,9.9s-2.1,2.6-1.7,5.8c0.4,3.2,3.6,3.4,3.6,3.4s0.4,5.8,0.7,7.4
			c0.4,1.6,0.7,3.4,0.9,5.7c0.1,2.2,0.1,10.1,0.2,13.1c0.1,3,0.2,7.4,0.1,8.1c-0.1,0.7-2.2,2.3-2.2,4.2c0,1.8,0.1,2.6,0.6,3.3
			c0.5,0.7,0.5,2.1,0.5,2.8s-0.2,5.8-0.4,6.9c-0.1,1.1-1.6,4.4-1.6,6.7c0,2.2,0.1,9.5,0.1,11.7c0,2.2,0.5,8,0.5,9.5
			c0,1.5-0.6,4.1-0.5,6.4c0.1,2.3-0.1,4.6,0.1,5.8c0.2,1.2,0.1,3.7,0,4.4c-0.1,0.7-1.5,0.2-1.7,1.6c-0.2,1.4-0.6,5.9-0.6,5.9
			s-2.3,2.3-3,3.3c-0.6,1-2.3,3.1-3,4.4c-0.6,1.4-1.5,3.1-1.8,3.8c-0.4,0.7-0.1,2.2-0.4,2.6c-0.2,0.4-0.4,1.8-0.4,1.5s-4.8,0-4.8,0
			v13.9h-2.7l-8.6,3.7v7.1h2.7v8.6h-1.7v3.8H582v1.2h-4.8v5.2h1.7v7.9H575v4.7h4.6v1.8h2.5v4.9h-2.5v2.2h2.1v2.3l0.7,0.7
			c0,0,0,13.1,0,18.2c0,5.1-1.8,23-1.8,23h-3v2.6h2.3v14.5l-3.8,5.5v12.8H571v-8.7h-5.2v11.7l3,2.1h2v5.7c0,0-2.6,0.1-2.6,3.1
			c0,3,1.7,3.7,2.6,3.8v3.3l-2.2,2l-10.7,24.6h-25.3v1.6h-2v26.4"/>
		<g>
			<g class="st11">
				<path d="M38.1,155.3H27.4v-2.1l5.1-5.4c0.7-0.8,1.2-1.4,1.6-2c0.3-0.6,0.5-1.1,0.5-1.6c0-0.7-0.2-1.2-0.5-1.6s-0.9-0.6-1.5-0.6
					c-0.7,0-1.3,0.2-1.7,0.7c-0.4,0.5-0.6,1.1-0.6,1.9H27c0-1,0.2-1.8,0.7-2.6c0.5-0.8,1.1-1.4,1.9-1.9c0.8-0.5,1.8-0.7,2.8-0.7
					c1.6,0,2.9,0.4,3.8,1.2c0.9,0.8,1.3,1.9,1.3,3.3c0,0.8-0.2,1.6-0.6,2.4s-1.1,1.7-2.1,2.8l-3.6,3.8h6.8V155.3z"/>
				<path d="M50.6,148.8c0,2.2-0.5,3.8-1.4,5c-0.9,1.2-2.2,1.7-4,1.7c-1.7,0-3-0.6-3.9-1.7c-0.9-1.1-1.4-2.8-1.4-4.9V146
					c0-2.2,0.5-3.9,1.4-5c0.9-1.1,2.2-1.7,3.9-1.7c1.7,0,3,0.6,3.9,1.7c0.9,1.1,1.4,2.8,1.4,4.9V148.8z M47.5,145.6
					c0-1.3-0.2-2.3-0.5-2.9c-0.4-0.6-0.9-0.9-1.7-0.9c-0.7,0-1.3,0.3-1.6,0.9c-0.3,0.6-0.5,1.5-0.6,2.7v3.8c0,1.3,0.2,2.2,0.5,2.9
					s0.9,0.9,1.7,0.9c0.8,0,1.3-0.3,1.7-0.9c0.3-0.6,0.5-1.5,0.5-2.8V145.6z"/>
				<path d="M60.3,155.3h-3.1v-12.1l-3.7,1.2v-2.5l6.5-2.3h0.3V155.3z"/>
				<path d="M72.8,149c-0.8,0.8-1.8,1.2-2.9,1.2c-1.4,0-2.5-0.5-3.3-1.4c-0.8-1-1.3-2.2-1.3-3.9c0-1,0.2-2,0.7-2.8
					c0.5-0.9,1.1-1.5,1.9-2c0.8-0.5,1.7-0.7,2.7-0.7c1,0,2,0.3,2.8,0.8c0.8,0.5,1.4,1.3,1.9,2.2c0.4,1,0.7,2.1,0.7,3.3v1.2
					c0,2.6-0.7,4.7-2,6.2c-1.3,1.5-3.2,2.3-5.5,2.4l-0.8,0v-2.6l0.7,0C71.1,152.7,72.5,151.4,72.8,149z M70.7,147.8
					c0.5,0,0.9-0.1,1.3-0.4c0.4-0.3,0.6-0.6,0.8-0.9v-1.3c0-1.1-0.2-1.9-0.6-2.5c-0.4-0.6-0.9-0.9-1.6-0.9c-0.6,0-1.1,0.3-1.5,0.9
					c-0.4,0.6-0.6,1.3-0.6,2.2c0,0.9,0.2,1.6,0.6,2.1C69.4,147.5,70,147.8,70.7,147.8z"/>
			</g>
			<g class="st11">
				<path d="M34.1,177.2c-0.3,0.5-0.8,0.9-1.5,1.1c-0.6,0.2-1.3,0.4-2.2,0.4c-0.8,0-1.6-0.2-2.2-0.6c-0.6-0.4-1.2-1-1.5-1.7
					c-0.4-0.7-0.5-1.6-0.5-2.5V173c0-1.5,0.4-2.7,1.1-3.6c0.7-0.9,1.7-1.3,3-1.3c1.1,0,1.9,0.3,2.6,0.8c0.7,0.5,1.1,1.3,1.2,2.3
					h-1.4c-0.3-1.4-1.1-2-2.4-2c-0.9,0-1.6,0.3-2.1,1c-0.5,0.6-0.7,1.6-0.7,2.8v0.8c0,1.2,0.3,2.1,0.8,2.8c0.5,0.7,1.2,1,2.1,1
					c0.5,0,1-0.1,1.3-0.2c0.4-0.1,0.7-0.3,0.9-0.6v-2.3h-2.4v-1.1h3.7V177.2z"/>
				<path d="M35.8,174.7c0-0.7,0.1-1.4,0.4-2c0.3-0.6,0.7-1.1,1.2-1.4s1.1-0.5,1.8-0.5c1,0,1.9,0.4,2.5,1.1s1,1.7,1,2.9v0.1
					c0,0.7-0.1,1.4-0.4,2s-0.7,1-1.2,1.4c-0.5,0.3-1.1,0.5-1.8,0.5c-1,0-1.9-0.4-2.5-1.1S35.8,175.9,35.8,174.7L35.8,174.7z
					 M37.1,174.8c0,0.8,0.2,1.5,0.6,2s0.9,0.8,1.6,0.8c0.7,0,1.2-0.3,1.6-0.8c0.4-0.5,0.6-1.2,0.6-2.2c0-0.8-0.2-1.5-0.6-2
					c-0.4-0.5-0.9-0.8-1.6-0.8c-0.6,0-1.2,0.3-1.6,0.8C37.3,173.1,37.1,173.9,37.1,174.8z"/>
				<path d="M44.1,174.7c0-1.2,0.3-2.1,0.8-2.8c0.6-0.7,1.3-1.1,2.2-1.1c0.9,0,1.6,0.3,2.1,0.9v-4h1.3v10.8h-1.2l-0.1-0.8
					c-0.5,0.6-1.2,1-2.2,1c-0.9,0-1.6-0.4-2.2-1.1C44.4,176.9,44.1,175.9,44.1,174.7L44.1,174.7z M45.4,174.8c0,0.9,0.2,1.5,0.5,2
					s0.9,0.7,1.5,0.7c0.8,0,1.4-0.4,1.8-1.1V173c-0.4-0.7-1-1.1-1.8-1.1c-0.6,0-1.1,0.2-1.5,0.7C45.6,173.1,45.4,173.8,45.4,174.8z"
					/>
				<path d="M53.8,177.5h4.5v1.1h-6.1v-1l4.2-5.6h-4.1v-1.1H58v0.9L53.8,177.5z"/>
				<path d="M59.7,168.9c0-0.2,0.1-0.4,0.2-0.5c0.1-0.1,0.3-0.2,0.6-0.2c0.3,0,0.4,0.1,0.6,0.2c0.1,0.1,0.2,0.3,0.2,0.5
					c0,0.2-0.1,0.4-0.2,0.5c-0.1,0.1-0.3,0.2-0.6,0.2c-0.3,0-0.4-0.1-0.6-0.2S59.7,169.1,59.7,168.9z M61.1,178.5h-1.3v-7.6h1.3
					V178.5z"/>
				<path d="M64.6,178.5h-1.3v-10.8h1.3V178.5z"/>
				<path d="M68.1,178.5h-1.3v-10.8h1.3V178.5z"/>
				<path d="M74.9,178.5c-0.1-0.2-0.1-0.4-0.2-0.8c-0.6,0.6-1.3,0.9-2.2,0.9c-0.8,0-1.4-0.2-1.9-0.6c-0.5-0.4-0.7-1-0.7-1.6
					c0-0.8,0.3-1.4,0.9-1.9s1.5-0.7,2.6-0.7h1.3v-0.6c0-0.5-0.1-0.8-0.4-1.1c-0.3-0.3-0.7-0.4-1.2-0.4c-0.5,0-0.9,0.1-1.2,0.4
					c-0.3,0.2-0.5,0.5-0.5,0.9h-1.3c0-0.4,0.1-0.7,0.4-1.1c0.3-0.4,0.6-0.6,1.1-0.8s1-0.3,1.5-0.3c0.9,0,1.6,0.2,2.1,0.7
					s0.8,1,0.8,1.8v3.5c0,0.7,0.1,1.3,0.3,1.7v0.1H74.9z M72.8,177.5c0.4,0,0.8-0.1,1.2-0.3c0.4-0.2,0.6-0.5,0.8-0.8v-1.6h-1
					c-1.6,0-2.4,0.5-2.4,1.4c0,0.4,0.1,0.7,0.4,1C72,177.4,72.4,177.5,72.8,177.5z"/>
				<path d="M78.1,177.9c0-0.2,0.1-0.4,0.2-0.6c0.1-0.2,0.3-0.2,0.6-0.2s0.5,0.1,0.6,0.2c0.1,0.2,0.2,0.3,0.2,0.6
					c0,0.2-0.1,0.4-0.2,0.5c-0.1,0.1-0.3,0.2-0.6,0.2s-0.5-0.1-0.6-0.2C78.1,178.3,78.1,178.1,78.1,177.9z M78.1,171.6
					c0-0.2,0.1-0.4,0.2-0.6c0.1-0.2,0.3-0.2,0.6-0.2s0.5,0.1,0.6,0.2s0.2,0.3,0.2,0.6c0,0.2-0.1,0.4-0.2,0.5
					c-0.1,0.1-0.3,0.2-0.6,0.2s-0.5-0.1-0.6-0.2C78.1,172,78.1,171.8,78.1,171.6z"/>
				<path d="M88,173.8l-1.3,1.3v3.5h-1.4v-10.3h1.4v5.1l4.6-5.1h1.6l-4,4.5l4.4,5.7h-1.6L88,173.8z"/>
				<path d="M94.2,168.9c0-0.2,0.1-0.4,0.2-0.5c0.1-0.1,0.3-0.2,0.6-0.2c0.3,0,0.4,0.1,0.6,0.2c0.1,0.1,0.2,0.3,0.2,0.5
					c0,0.2-0.1,0.4-0.2,0.5c-0.1,0.1-0.3,0.2-0.6,0.2c-0.3,0-0.4-0.1-0.6-0.2S94.2,169.1,94.2,168.9z M95.6,178.5h-1.3v-7.6h1.3
					V178.5z"/>
				<path d="M99,170.9l0,1c0.6-0.7,1.3-1.1,2.3-1.1c1.6,0,2.4,0.9,2.4,2.7v5h-1.3v-5.1c0-0.6-0.1-1-0.4-1.2
					c-0.2-0.3-0.6-0.4-1.2-0.4c-0.4,0-0.8,0.1-1.1,0.3c-0.3,0.2-0.6,0.5-0.7,0.9v5.4h-1.3v-7.6H99z"/>
				<path d="M105.4,174.7c0-1.2,0.3-2.1,0.8-2.8c0.6-0.7,1.3-1.1,2.2-1.1c0.9,0,1.7,0.3,2.2,1l0.1-0.8h1.2v7.5c0,1-0.3,1.8-0.9,2.3
					c-0.6,0.6-1.4,0.9-2.4,0.9c-0.6,0-1.1-0.1-1.6-0.4s-0.9-0.6-1.2-1l0.7-0.8c0.6,0.7,1.2,1,2.1,1c0.6,0,1.1-0.2,1.5-0.5
					c0.4-0.4,0.5-0.9,0.5-1.5v-0.7c-0.5,0.6-1.2,0.9-2.1,0.9c-0.9,0-1.6-0.4-2.2-1.1S105.4,175.9,105.4,174.7z M106.7,174.8
					c0,0.9,0.2,1.5,0.5,2c0.4,0.5,0.8,0.7,1.5,0.7c0.8,0,1.4-0.4,1.8-1.1V173c-0.4-0.7-1-1.1-1.8-1.1c-0.6,0-1.1,0.2-1.5,0.7
					C106.9,173.1,106.7,173.8,106.7,174.8z"/>
				<path d="M26,192c0-0.7,0.1-1.4,0.4-2c0.3-0.6,0.7-1.1,1.2-1.4s1.1-0.5,1.8-0.5c1,0,1.9,0.4,2.5,1.1s1,1.7,1,2.9v0.1
					c0,0.7-0.1,1.4-0.4,2s-0.7,1-1.2,1.4c-0.5,0.3-1.1,0.5-1.8,0.5c-1,0-1.9-0.4-2.5-1.1S26,193.3,26,192L26,192z M27.3,192.1
					c0,0.8,0.2,1.5,0.6,2s0.9,0.8,1.6,0.8c0.7,0,1.2-0.3,1.6-0.8c0.4-0.5,0.6-1.2,0.6-2.2c0-0.8-0.2-1.5-0.6-2
					c-0.4-0.5-0.9-0.8-1.6-0.8c-0.6,0-1.2,0.3-1.6,0.8C27.5,190.5,27.3,191.2,27.3,192.1z"/>
				<path d="M35.2,195.9v-6.6H34v-1h1.2v-0.8c0-0.8,0.2-1.5,0.7-1.9s1.1-0.7,1.9-0.7c0.3,0,0.6,0,0.9,0.1l-0.1,1.1
					c-0.2,0-0.5-0.1-0.7-0.1c-0.4,0-0.8,0.1-1,0.4s-0.3,0.6-0.3,1.1v0.8h1.6v1h-1.6v6.6H35.2z"/>
				<path d="M44.9,186.4v1.8h1.4v1h-1.4v4.7c0,0.3,0.1,0.5,0.2,0.7c0.1,0.2,0.3,0.2,0.6,0.2c0.2,0,0.4,0,0.6-0.1v1.1
					c-0.3,0.1-0.7,0.1-1,0.1c-0.6,0-1-0.2-1.3-0.5c-0.3-0.4-0.4-0.9-0.4-1.5v-4.7h-1.4v-1h1.4v-1.8H44.9z"/>
				<path d="M49.2,189.2c0.6-0.7,1.3-1.1,2.3-1.1c1.6,0,2.4,0.9,2.4,2.7v5h-1.3v-5.1c0-0.6-0.1-1-0.4-1.2c-0.2-0.3-0.6-0.4-1.2-0.4
					c-0.4,0-0.8,0.1-1.1,0.3c-0.3,0.2-0.6,0.5-0.7,0.9v5.4h-1.3V185h1.3V189.2z"/>
				<path d="M59,196c-1,0-1.9-0.3-2.5-1s-1-1.6-1-2.7V192c0-0.8,0.1-1.4,0.4-2c0.3-0.6,0.7-1.1,1.2-1.4c0.5-0.3,1.1-0.5,1.7-0.5
					c1,0,1.8,0.3,2.3,1s0.8,1.6,0.8,2.8v0.5h-5.2c0,0.8,0.2,1.4,0.7,1.8s1,0.7,1.6,0.7c0.5,0,0.9-0.1,1.2-0.3s0.6-0.4,0.8-0.7
					l0.8,0.6C61.2,195.5,60.3,196,59,196z M58.8,189.2c-0.5,0-1,0.2-1.3,0.6s-0.6,0.9-0.7,1.6h3.8v-0.1c0-0.7-0.2-1.2-0.5-1.5
					C59.8,189.4,59.4,189.2,58.8,189.2z"/>
				<path d="M69,185.6l3.4,8.4l3.4-8.4h1.8v10.3h-1.4v-4l0.1-4.3l-3.4,8.3h-1l-3.4-8.3l0.1,4.3v4h-1.4v-10.3H69z"/>
				<path d="M79.3,192c0-0.7,0.1-1.4,0.4-2c0.3-0.6,0.7-1.1,1.2-1.4s1.1-0.5,1.8-0.5c1,0,1.9,0.4,2.5,1.1s1,1.7,1,2.9v0.1
					c0,0.7-0.1,1.4-0.4,2s-0.7,1-1.2,1.4c-0.5,0.3-1.1,0.5-1.8,0.5c-1,0-1.9-0.4-2.5-1.1S79.3,193.3,79.3,192L79.3,192z M80.6,192.1
					c0,0.8,0.2,1.5,0.6,2s0.9,0.8,1.6,0.8c0.7,0,1.2-0.3,1.6-0.8c0.4-0.5,0.6-1.2,0.6-2.2c0-0.8-0.2-1.5-0.6-2
					c-0.4-0.5-0.9-0.8-1.6-0.8c-0.6,0-1.2,0.3-1.6,0.8C80.8,190.5,80.6,191.2,80.6,192.1z"/>
				<path d="M89.2,188.2l0,1c0.6-0.7,1.3-1.1,2.3-1.1c1.6,0,2.4,0.9,2.4,2.7v5h-1.3v-5.1c0-0.6-0.1-1-0.4-1.2
					c-0.2-0.3-0.6-0.4-1.2-0.4c-0.4,0-0.8,0.1-1.1,0.3c-0.3,0.2-0.6,0.5-0.7,0.9v5.4h-1.3v-7.6H89.2z"/>
				<path d="M100.3,193.9c0-0.4-0.1-0.6-0.4-0.8c-0.3-0.2-0.7-0.4-1.4-0.5c-0.7-0.1-1.2-0.3-1.6-0.5c-0.4-0.2-0.7-0.4-0.9-0.7
					c-0.2-0.3-0.3-0.6-0.3-1c0-0.6,0.3-1.2,0.8-1.6c0.5-0.4,1.2-0.6,2-0.6c0.9,0,1.6,0.2,2.1,0.7s0.8,1,0.8,1.7h-1.3
					c0-0.4-0.2-0.7-0.5-0.9c-0.3-0.3-0.7-0.4-1.1-0.4c-0.5,0-0.8,0.1-1.1,0.3s-0.4,0.5-0.4,0.8c0,0.3,0.1,0.6,0.4,0.7
					c0.2,0.2,0.7,0.3,1.4,0.5c0.7,0.1,1.2,0.3,1.6,0.5c0.4,0.2,0.7,0.4,0.9,0.7s0.3,0.6,0.3,1c0,0.7-0.3,1.2-0.8,1.6
					c-0.5,0.4-1.3,0.6-2.1,0.6c-0.6,0-1.2-0.1-1.6-0.3c-0.5-0.2-0.8-0.5-1.1-0.9c-0.3-0.4-0.4-0.8-0.4-1.3h1.3c0,0.4,0.2,0.8,0.5,1
					c0.3,0.3,0.8,0.4,1.3,0.4c0.5,0,0.9-0.1,1.2-0.3S100.3,194.2,100.3,193.9z"/>
				<path d="M105.1,186.4v1.8h1.4v1h-1.4v4.7c0,0.3,0.1,0.5,0.2,0.7c0.1,0.2,0.3,0.2,0.6,0.2c0.2,0,0.4,0,0.6-0.1v1.1
					c-0.3,0.1-0.7,0.1-1,0.1c-0.6,0-1-0.2-1.3-0.5c-0.3-0.4-0.4-0.9-0.4-1.5v-4.7h-1.4v-1h1.4v-1.8H105.1z"/>
				<path d="M111.2,196c-1,0-1.9-0.3-2.5-1s-1-1.6-1-2.7V192c0-0.8,0.1-1.4,0.4-2c0.3-0.6,0.7-1.1,1.2-1.4c0.5-0.3,1.1-0.5,1.7-0.5
					c1,0,1.8,0.3,2.3,1s0.8,1.6,0.8,2.8v0.5H109c0,0.8,0.2,1.4,0.7,1.8s1,0.7,1.6,0.7c0.5,0,0.9-0.1,1.2-0.3s0.6-0.4,0.8-0.7
					l0.8,0.6C113.5,195.5,112.5,196,111.2,196z M111.1,189.2c-0.5,0-1,0.2-1.3,0.6s-0.6,0.9-0.7,1.6h3.8v-0.1c0-0.7-0.2-1.2-0.5-1.5
					C112.1,189.4,111.6,189.2,111.1,189.2z"/>
				<path d="M119.4,189.4c-0.2,0-0.4,0-0.6,0c-0.9,0-1.4,0.4-1.7,1.1v5.4h-1.3v-7.6h1.3l0,0.9c0.4-0.7,1-1,1.8-1
					c0.3,0,0.4,0,0.6,0.1V189.4z"/>
				<path d="M125.1,193.9c0-0.4-0.1-0.6-0.4-0.8c-0.3-0.2-0.7-0.4-1.4-0.5c-0.7-0.1-1.2-0.3-1.6-0.5c-0.4-0.2-0.7-0.4-0.9-0.7
					c-0.2-0.3-0.3-0.6-0.3-1c0-0.6,0.3-1.2,0.8-1.6c0.5-0.4,1.2-0.6,2-0.6c0.9,0,1.6,0.2,2.1,0.7s0.8,1,0.8,1.7H125
					c0-0.4-0.2-0.7-0.5-0.9c-0.3-0.3-0.7-0.4-1.1-0.4c-0.5,0-0.8,0.1-1.1,0.3s-0.4,0.5-0.4,0.8c0,0.3,0.1,0.6,0.4,0.7
					c0.2,0.2,0.7,0.3,1.4,0.5c0.7,0.1,1.2,0.3,1.6,0.5c0.4,0.2,0.7,0.4,0.9,0.7s0.3,0.6,0.3,1c0,0.7-0.3,1.2-0.8,1.6
					c-0.5,0.4-1.3,0.6-2.1,0.6c-0.6,0-1.2-0.1-1.6-0.3c-0.5-0.2-0.8-0.5-1.1-0.9c-0.3-0.4-0.4-0.8-0.4-1.3h1.3c0,0.4,0.2,0.8,0.5,1
					c0.3,0.3,0.8,0.4,1.3,0.4c0.5,0,0.9-0.1,1.2-0.3S125.1,194.2,125.1,193.9z"/>
				<path d="M26,209.3c0-1.2,0.3-2.1,0.8-2.8c0.6-0.7,1.3-1.1,2.2-1.1c0.9,0,1.6,0.3,2.1,0.9v-4h1.3v10.8h-1.2l-0.1-0.8
					c-0.5,0.6-1.2,1-2.2,1c-0.9,0-1.6-0.4-2.2-1.1C26.3,211.5,26,210.6,26,209.3L26,209.3z M27.3,209.5c0,0.9,0.2,1.5,0.5,2
					s0.9,0.7,1.5,0.7c0.8,0,1.4-0.4,1.8-1.1v-3.5c-0.4-0.7-1-1.1-1.8-1.1c-0.6,0-1.1,0.2-1.5,0.7C27.5,207.8,27.3,208.5,27.3,209.5z
					"/>
				<path d="M37.6,213.4c-1,0-1.9-0.3-2.5-1s-1-1.6-1-2.7v-0.2c0-0.8,0.1-1.4,0.4-2c0.3-0.6,0.7-1.1,1.2-1.4
					c0.5-0.3,1.1-0.5,1.7-0.5c1,0,1.8,0.3,2.3,1s0.8,1.6,0.8,2.8v0.5h-5.2c0,0.8,0.2,1.4,0.7,1.8s1,0.7,1.6,0.7
					c0.5,0,0.9-0.1,1.2-0.3s0.6-0.4,0.8-0.7l0.8,0.6C39.9,212.9,38.9,213.4,37.6,213.4z M37.5,206.5c-0.5,0-1,0.2-1.3,0.6
					s-0.6,0.9-0.7,1.6h3.8v-0.1c0-0.7-0.2-1.2-0.5-1.5C38.5,206.7,38,206.5,37.5,206.5z"/>
				<path d="M47.3,212.1h4.9v1.1h-6.2v-10.3h1.4V212.1z"/>
				<path d="M56.6,213.4c-1,0-1.9-0.3-2.5-1s-1-1.6-1-2.7v-0.2c0-0.8,0.1-1.4,0.4-2c0.3-0.6,0.7-1.1,1.2-1.4
					c0.5-0.3,1.1-0.5,1.7-0.5c1,0,1.8,0.3,2.3,1s0.8,1.6,0.8,2.8v0.5h-5.2c0,0.8,0.2,1.4,0.7,1.8s1,0.7,1.6,0.7
					c0.5,0,0.9-0.1,1.2-0.3s0.6-0.4,0.8-0.7l0.8,0.6C58.9,212.9,57.9,213.4,56.6,213.4z M56.5,206.5c-0.5,0-1,0.2-1.3,0.6
					s-0.6,0.9-0.7,1.6h3.8v-0.1c0-0.7-0.2-1.2-0.5-1.5C57.5,206.7,57,206.5,56.5,206.5z"/>
				<path d="M60.8,209.3c0-1.2,0.3-2.1,0.8-2.8c0.6-0.7,1.3-1.1,2.2-1.1c0.9,0,1.7,0.3,2.2,1l0.1-0.8h1.2v7.5c0,1-0.3,1.8-0.9,2.3
					c-0.6,0.6-1.4,0.9-2.4,0.9c-0.6,0-1.1-0.1-1.6-0.4s-0.9-0.6-1.2-1l0.7-0.8c0.6,0.7,1.2,1,2.1,1c0.6,0,1.1-0.2,1.5-0.5
					c0.4-0.4,0.5-0.9,0.5-1.5v-0.7c-0.5,0.6-1.2,0.9-2.1,0.9c-0.9,0-1.6-0.4-2.2-1.1S60.8,210.6,60.8,209.3z M62.1,209.5
					c0,0.9,0.2,1.5,0.5,2c0.4,0.5,0.8,0.7,1.5,0.7c0.8,0,1.4-0.4,1.8-1.1v-3.5c-0.4-0.7-1-1.1-1.8-1.1c-0.6,0-1.1,0.2-1.5,0.7
					C62.3,207.8,62.1,208.5,62.1,209.5z"/>
				<path d="M72.4,213.4c-1,0-1.9-0.3-2.5-1s-1-1.6-1-2.7v-0.2c0-0.8,0.1-1.4,0.4-2c0.3-0.6,0.7-1.1,1.2-1.4
					c0.5-0.3,1.1-0.5,1.7-0.5c1,0,1.8,0.3,2.3,1s0.8,1.6,0.8,2.8v0.5h-5.2c0,0.8,0.2,1.4,0.7,1.8s1,0.7,1.6,0.7
					c0.5,0,0.9-0.1,1.2-0.3s0.6-0.4,0.8-0.7l0.8,0.6C74.6,212.9,73.7,213.4,72.4,213.4z M72.2,206.5c-0.5,0-1,0.2-1.3,0.6
					s-0.6,0.9-0.7,1.6h3.8v-0.1c0-0.7-0.2-1.2-0.5-1.5C73.2,206.7,72.8,206.5,72.2,206.5z"/>
				<path d="M78.1,205.6l0,1c0.6-0.7,1.3-1.1,2.3-1.1c1.6,0,2.4,0.9,2.4,2.7v5h-1.3v-5.1c0-0.6-0.1-1-0.4-1.2
					c-0.2-0.3-0.6-0.4-1.2-0.4c-0.4,0-0.8,0.1-1.1,0.3c-0.3,0.2-0.6,0.5-0.7,0.9v5.4h-1.3v-7.6H78.1z"/>
				<path d="M84.5,209.3c0-1.2,0.3-2.1,0.8-2.8c0.6-0.7,1.3-1.1,2.2-1.1c0.9,0,1.6,0.3,2.1,0.9v-4H91v10.8h-1.2l-0.1-0.8
					c-0.5,0.6-1.2,1-2.2,1c-0.9,0-1.6-0.4-2.2-1.1C84.8,211.5,84.5,210.6,84.5,209.3L84.5,209.3z M85.9,209.5c0,0.9,0.2,1.5,0.5,2
					s0.9,0.7,1.5,0.7c0.8,0,1.4-0.4,1.8-1.1v-3.5c-0.4-0.7-1-1.1-1.8-1.1c-0.6,0-1.1,0.2-1.5,0.7C86,207.8,85.9,208.5,85.9,209.5z"
					/>
				<path d="M97.7,213.2c-0.1-0.2-0.1-0.4-0.2-0.8c-0.6,0.6-1.3,0.9-2.2,0.9c-0.8,0-1.4-0.2-1.9-0.6c-0.5-0.4-0.7-1-0.7-1.6
					c0-0.8,0.3-1.4,0.9-1.9s1.5-0.7,2.6-0.7h1.3V208c0-0.5-0.1-0.8-0.4-1.1c-0.3-0.3-0.7-0.4-1.2-0.4c-0.5,0-0.9,0.1-1.2,0.4
					c-0.3,0.2-0.5,0.5-0.5,0.9H93c0-0.4,0.1-0.7,0.4-1.1c0.3-0.4,0.6-0.6,1.1-0.8s1-0.3,1.5-0.3c0.9,0,1.6,0.2,2.1,0.7
					s0.8,1,0.8,1.8v3.5c0,0.7,0.1,1.3,0.3,1.7v0.1H97.7z M95.6,212.2c0.4,0,0.8-0.1,1.2-0.3c0.4-0.2,0.6-0.5,0.8-0.8v-1.6h-1
					c-1.6,0-2.4,0.5-2.4,1.4c0,0.4,0.1,0.7,0.4,1C94.8,212.1,95.1,212.2,95.6,212.2z"/>
				<path d="M104.6,206.8c-0.2,0-0.4,0-0.6,0c-0.9,0-1.4,0.4-1.7,1.1v5.4h-1.3v-7.6h1.3l0,0.9c0.4-0.7,1-1,1.8-1
					c0.3,0,0.4,0,0.6,0.1V206.8z"/>
				<path d="M108.3,211.3l1.8-5.7h1.4l-3.1,8.8c-0.5,1.3-1.2,1.9-2.3,1.9l-0.2,0l-0.5-0.1v-1.1l0.4,0c0.4,0,0.8-0.1,1-0.3
					c0.2-0.2,0.5-0.5,0.6-1l0.3-0.8l-2.7-7.5h1.4L108.3,211.3z"/>
				<path d="M122.1,208.7h-4.3v4.5h-1.4v-10.3h6.4v1.1h-5v3.5h4.3V208.7z"/>
				<path d="M124.2,203.6c0-0.2,0.1-0.4,0.2-0.5c0.1-0.1,0.3-0.2,0.6-0.2c0.3,0,0.4,0.1,0.6,0.2c0.1,0.1,0.2,0.3,0.2,0.5
					c0,0.2-0.1,0.4-0.2,0.5c-0.1,0.1-0.3,0.2-0.6,0.2c-0.3,0-0.4-0.1-0.6-0.2S124.2,203.8,124.2,203.6z M125.6,213.2h-1.3v-7.6h1.3
					V213.2z"/>
				<path d="M129.1,213.2h-1.3v-10.8h1.3V213.2z"/>
				<path d="M132.4,205.6l0,0.8c0.6-0.7,1.3-1,2.3-1c1.1,0,1.8,0.4,2.2,1.2c0.3-0.4,0.6-0.7,1-0.9c0.4-0.2,0.9-0.3,1.4-0.3
					c1.7,0,2.5,0.9,2.6,2.7v5.1h-1.3v-5c0-0.5-0.1-1-0.4-1.2s-0.7-0.4-1.3-0.4c-0.5,0-0.9,0.1-1.2,0.4c-0.3,0.3-0.5,0.7-0.6,1.2v5.1
					h-1.3v-5c0-1.1-0.5-1.7-1.6-1.7c-0.9,0-1.4,0.4-1.8,1.1v5.6h-1.3v-7.6H132.4z"/>
				<path d="M148.3,211.2c0-0.4-0.1-0.6-0.4-0.8c-0.3-0.2-0.7-0.4-1.4-0.5c-0.7-0.1-1.2-0.3-1.6-0.5c-0.4-0.2-0.7-0.4-0.9-0.7
					c-0.2-0.3-0.3-0.6-0.3-1c0-0.6,0.3-1.2,0.8-1.6c0.5-0.4,1.2-0.6,2-0.6c0.9,0,1.6,0.2,2.1,0.7s0.8,1,0.8,1.7h-1.3
					c0-0.4-0.2-0.7-0.5-0.9c-0.3-0.3-0.7-0.4-1.1-0.4c-0.5,0-0.8,0.1-1.1,0.3s-0.4,0.5-0.4,0.8c0,0.3,0.1,0.6,0.4,0.7
					c0.2,0.2,0.7,0.3,1.4,0.5c0.7,0.1,1.2,0.3,1.6,0.5c0.4,0.2,0.7,0.4,0.9,0.7s0.3,0.6,0.3,1c0,0.7-0.3,1.2-0.8,1.6
					c-0.5,0.4-1.3,0.6-2.1,0.6c-0.6,0-1.2-0.1-1.6-0.3c-0.5-0.2-0.8-0.5-1.1-0.9c-0.3-0.4-0.4-0.8-0.4-1.3h1.3c0,0.4,0.2,0.8,0.5,1
					c0.3,0.3,0.8,0.4,1.3,0.4c0.5,0,0.9-0.1,1.2-0.3S148.3,211.5,148.3,211.2z"/>
				<path d="M28.8,228.6l1.8-5.7H32l-3.1,8.8c-0.5,1.3-1.2,1.9-2.3,1.9l-0.2,0l-0.5-0.1v-1.1l0.4,0c0.4,0,0.8-0.1,1-0.3
					c0.2-0.2,0.5-0.5,0.6-1l0.3-0.8l-2.7-7.5h1.4L28.8,228.6z"/>
				<path d="M36.4,226.7c0-1.2,0.3-2.1,0.8-2.8c0.6-0.7,1.3-1.1,2.2-1.1c0.9,0,1.6,0.3,2.1,0.9v-4h1.3v10.8h-1.2l-0.1-0.8
					c-0.5,0.6-1.2,1-2.2,1c-0.9,0-1.6-0.4-2.2-1.1C36.7,228.9,36.4,227.9,36.4,226.7L36.4,226.7z M37.7,226.8c0,0.9,0.2,1.5,0.5,2
					s0.9,0.7,1.5,0.7c0.8,0,1.4-0.4,1.8-1.1V225c-0.4-0.7-1-1.1-1.8-1.1c-0.6,0-1.1,0.2-1.5,0.7C37.9,225.1,37.7,225.9,37.7,226.8z"
					/>
				<path d="M44.9,220.9c0-0.2,0.1-0.4,0.2-0.5c0.1-0.1,0.3-0.2,0.6-0.2c0.3,0,0.4,0.1,0.6,0.2c0.1,0.1,0.2,0.3,0.2,0.5
					c0,0.2-0.1,0.4-0.2,0.5c-0.1,0.1-0.3,0.2-0.6,0.2c-0.3,0-0.4-0.1-0.6-0.2S44.9,221.1,44.9,220.9z M46.3,230.6H45v-7.6h1.3V230.6
					z"/>
				<path d="M52.1,224.1c-0.2,0-0.4,0-0.6,0c-0.9,0-1.4,0.4-1.7,1.1v5.4h-1.3v-7.6h1.3l0,0.9c0.4-0.7,1-1,1.8-1c0.3,0,0.4,0,0.6,0.1
					V224.1z"/>
				<path d="M53.3,220.9c0-0.2,0.1-0.4,0.2-0.5c0.1-0.1,0.3-0.2,0.6-0.2c0.3,0,0.4,0.1,0.6,0.2c0.1,0.1,0.2,0.3,0.2,0.5
					c0,0.2-0.1,0.4-0.2,0.5c-0.1,0.1-0.3,0.2-0.6,0.2c-0.3,0-0.4-0.1-0.6-0.2S53.3,221.1,53.3,220.9z M54.7,230.6h-1.3v-7.6h1.3
					V230.6z"/>
				<path d="M56.5,226.7c0-1.2,0.3-2.1,0.8-2.8c0.6-0.7,1.3-1.1,2.2-1.1c0.9,0,1.7,0.3,2.2,1l0.1-0.8h1.2v7.5c0,1-0.3,1.8-0.9,2.3
					c-0.6,0.6-1.4,0.9-2.4,0.9c-0.6,0-1.1-0.1-1.6-0.4s-0.9-0.6-1.2-1l0.7-0.8c0.6,0.7,1.2,1,2.1,1c0.6,0,1.1-0.2,1.5-0.5
					c0.4-0.4,0.5-0.9,0.5-1.5v-0.7c-0.5,0.6-1.2,0.9-2.1,0.9c-0.9,0-1.6-0.4-2.2-1.1S56.5,227.9,56.5,226.7z M57.8,226.8
					c0,0.9,0.2,1.5,0.5,2c0.4,0.5,0.8,0.7,1.5,0.7c0.8,0,1.4-0.4,1.8-1.1V225c-0.4-0.7-1-1.1-1.8-1.1c-0.6,0-1.1,0.2-1.5,0.7
					C58,225.1,57.8,225.9,57.8,226.8z"/>
				<path d="M64.9,220.9c0-0.2,0.1-0.4,0.2-0.5c0.1-0.1,0.3-0.2,0.6-0.2c0.3,0,0.4,0.1,0.6,0.2c0.1,0.1,0.2,0.3,0.2,0.5
					c0,0.2-0.1,0.4-0.2,0.5c-0.1,0.1-0.3,0.2-0.6,0.2c-0.3,0-0.4-0.1-0.6-0.2S64.9,221.1,64.9,220.9z M66.3,230.6H65v-7.6h1.3V230.6
					z"/>
				<path d="M68.1,226.7c0-1.2,0.3-2.1,0.8-2.8c0.6-0.7,1.3-1.1,2.2-1.1c0.9,0,1.6,0.3,2.1,0.9v-4h1.3v10.8h-1.2l-0.1-0.8
					c-0.5,0.6-1.2,1-2.2,1c-0.9,0-1.6-0.4-2.2-1.1C68.4,228.9,68.1,227.9,68.1,226.7L68.1,226.7z M69.4,226.8c0,0.9,0.2,1.5,0.5,2
					s0.9,0.7,1.5,0.7c0.8,0,1.4-0.4,1.8-1.1V225c-0.4-0.7-1-1.1-1.8-1.1c-0.6,0-1.1,0.2-1.5,0.7C69.6,225.1,69.4,225.9,69.4,226.8z"
					/>
				<path d="M81.3,230.6c-0.1-0.2-0.1-0.4-0.2-0.8c-0.6,0.6-1.3,0.9-2.2,0.9c-0.8,0-1.4-0.2-1.9-0.6c-0.5-0.4-0.7-1-0.7-1.6
					c0-0.8,0.3-1.4,0.9-1.9s1.5-0.7,2.6-0.7h1.3v-0.6c0-0.5-0.1-0.8-0.4-1.1c-0.3-0.3-0.7-0.4-1.2-0.4c-0.5,0-0.9,0.1-1.2,0.4
					c-0.3,0.2-0.5,0.5-0.5,0.9h-1.3c0-0.4,0.1-0.7,0.4-1.1c0.3-0.4,0.6-0.6,1.1-0.8s1-0.3,1.5-0.3c0.9,0,1.6,0.2,2.1,0.7
					s0.8,1,0.8,1.8v3.5c0,0.7,0.1,1.3,0.3,1.7v0.1H81.3z M79.1,229.6c0.4,0,0.8-0.1,1.2-0.3c0.4-0.2,0.6-0.5,0.8-0.8v-1.6h-1
					c-1.6,0-2.4,0.5-2.4,1.4c0,0.4,0.1,0.7,0.4,1C78.3,229.4,78.7,229.6,79.1,229.6z"/>
				<path d="M94.4,226.8c0,1.2-0.3,2.1-0.8,2.8c-0.5,0.7-1.3,1.1-2.2,1.1c-0.9,0-1.7-0.3-2.2-0.9v3.7H88v-10.6h1.2l0.1,0.8
					c0.5-0.7,1.3-1,2.2-1c0.9,0,1.6,0.3,2.2,1c0.5,0.7,0.8,1.7,0.8,2.9V226.8z M93.1,226.7c0-0.9-0.2-1.5-0.6-2
					c-0.4-0.5-0.9-0.7-1.5-0.7c-0.8,0-1.4,0.4-1.8,1.1v3.6c0.4,0.7,1,1,1.8,1c0.6,0,1.1-0.2,1.5-0.7
					C92.9,228.4,93.1,227.7,93.1,226.7z"/>
				<path d="M95.7,226.7c0-0.7,0.1-1.4,0.4-2c0.3-0.6,0.7-1.1,1.2-1.4s1.1-0.5,1.8-0.5c1,0,1.9,0.4,2.5,1.1s1,1.7,1,2.9v0.1
					c0,0.7-0.1,1.4-0.4,2s-0.7,1-1.2,1.4c-0.5,0.3-1.1,0.5-1.8,0.5c-1,0-1.9-0.4-2.5-1.1S95.7,227.9,95.7,226.7L95.7,226.7z
					 M97.1,226.8c0,0.8,0.2,1.5,0.6,2s0.9,0.8,1.6,0.8c0.7,0,1.2-0.3,1.6-0.8c0.4-0.5,0.6-1.2,0.6-2.2c0-0.8-0.2-1.5-0.6-2
					c-0.4-0.5-0.9-0.8-1.6-0.8c-0.6,0-1.2,0.3-1.6,0.8C97.3,225.1,97.1,225.9,97.1,226.8z"/>
				<path d="M108,224.1c-0.2,0-0.4,0-0.6,0c-0.9,0-1.4,0.4-1.7,1.1v5.4h-1.3v-7.6h1.3l0,0.9c0.4-0.7,1-1,1.8-1c0.3,0,0.4,0,0.6,0.1
					V224.1z"/>
				<path d="M28.3,237.6l3.4,8.4l3.4-8.4h1.8v10.3h-1.4v-4l0.1-4.3l-3.4,8.3h-1l-3.4-8.3l0.1,4.3v4h-1.4v-10.3H28.3z"/>
				<path d="M38.9,238.2c0-0.2,0.1-0.4,0.2-0.5c0.1-0.1,0.3-0.2,0.6-0.2c0.3,0,0.4,0.1,0.6,0.2c0.1,0.1,0.2,0.3,0.2,0.5
					c0,0.2-0.1,0.4-0.2,0.5c-0.1,0.1-0.3,0.2-0.6,0.2c-0.3,0-0.4-0.1-0.6-0.2S38.9,238.5,38.9,238.2z M40.4,247.9H39v-7.6h1.3V247.9
					z"/>
				<path d="M45.5,247c0.5,0,0.9-0.1,1.2-0.4s0.5-0.6,0.6-1.1h1.2c0,0.4-0.2,0.9-0.5,1.2s-0.6,0.7-1.1,0.9c-0.5,0.2-1,0.4-1.5,0.4
					c-1,0-1.9-0.3-2.5-1s-0.9-1.6-0.9-2.8v-0.2c0-0.7,0.1-1.4,0.4-2c0.3-0.6,0.7-1,1.2-1.3c0.5-0.3,1.1-0.5,1.8-0.5
					c0.9,0,1.6,0.3,2.1,0.8s0.9,1.2,0.9,2h-1.2c0-0.5-0.2-0.9-0.6-1.2s-0.8-0.5-1.2-0.5c-0.7,0-1.2,0.2-1.5,0.7
					c-0.4,0.5-0.5,1.2-0.5,2.1v0.2c0,0.9,0.2,1.6,0.5,2S44.8,247,45.5,247z"/>
				<path d="M51.3,241.2c0.6-0.7,1.3-1.1,2.3-1.1c1.6,0,2.4,0.9,2.4,2.7v5h-1.3v-5.1c0-0.6-0.1-1-0.4-1.2c-0.2-0.3-0.6-0.4-1.2-0.4
					c-0.4,0-0.8,0.1-1.1,0.3c-0.3,0.2-0.6,0.5-0.7,0.9v5.4H50v-10.8h1.3V241.2z"/>
				<path d="M62.7,247.9c-0.1-0.2-0.1-0.4-0.2-0.8c-0.6,0.6-1.3,0.9-2.2,0.9c-0.8,0-1.4-0.2-1.9-0.6c-0.5-0.4-0.7-1-0.7-1.6
					c0-0.8,0.3-1.4,0.9-1.9s1.5-0.7,2.6-0.7h1.3v-0.6c0-0.5-0.1-0.8-0.4-1.1c-0.3-0.3-0.7-0.4-1.2-0.4c-0.5,0-0.9,0.1-1.2,0.4
					c-0.3,0.2-0.5,0.5-0.5,0.9h-1.3c0-0.4,0.1-0.7,0.4-1.1c0.3-0.4,0.6-0.6,1.1-0.8s1-0.3,1.5-0.3c0.9,0,1.6,0.2,2.1,0.7
					s0.8,1,0.8,1.8v3.5c0,0.7,0.1,1.3,0.3,1.7v0.1H62.7z M60.5,246.9c0.4,0,0.8-0.1,1.2-0.3c0.4-0.2,0.6-0.5,0.8-0.8v-1.6h-1
					c-1.6,0-2.4,0.5-2.4,1.4c0,0.4,0.1,0.7,0.4,1C59.7,246.8,60.1,246.9,60.5,246.9z"/>
				<path d="M69,248c-1,0-1.9-0.3-2.5-1s-1-1.6-1-2.7v-0.2c0-0.8,0.1-1.4,0.4-2c0.3-0.6,0.7-1.1,1.2-1.4c0.5-0.3,1.1-0.5,1.7-0.5
					c1,0,1.8,0.3,2.3,1s0.8,1.6,0.8,2.8v0.5h-5.2c0,0.8,0.2,1.4,0.7,1.8s1,0.7,1.6,0.7c0.5,0,0.9-0.1,1.2-0.3s0.6-0.4,0.8-0.7
					l0.8,0.6C71.2,247.5,70.3,248,69,248z M68.8,241.2c-0.5,0-1,0.2-1.3,0.6s-0.6,0.9-0.7,1.6h3.8v-0.1c0-0.7-0.2-1.2-0.5-1.5
					C69.8,241.4,69.4,241.2,68.8,241.2z"/>
				<path d="M74.9,247.9h-1.3v-10.8h1.3V247.9z"/>
				<path d="M80.8,247.9v-10.3h2.9c0.9,0,1.7,0.2,2.4,0.6c0.7,0.4,1.2,1,1.6,1.7s0.6,1.6,0.6,2.5v0.7c0,1-0.2,1.8-0.6,2.5
					s-0.9,1.3-1.6,1.7c-0.7,0.4-1.5,0.6-2.4,0.6H80.8z M82.1,238.7v8.1h1.4c1,0,1.9-0.3,2.4-1c0.6-0.6,0.9-1.6,0.9-2.8v-0.6
					c0-1.2-0.3-2.1-0.8-2.7s-1.3-1-2.3-1H82.1z"/>
				<path d="M89.7,244c0-0.7,0.1-1.4,0.4-2c0.3-0.6,0.7-1.1,1.2-1.4s1.1-0.5,1.8-0.5c1,0,1.9,0.4,2.5,1.1s1,1.7,1,2.9v0.1
					c0,0.7-0.1,1.4-0.4,2s-0.7,1-1.2,1.4c-0.5,0.3-1.1,0.5-1.8,0.5c-1,0-1.9-0.4-2.5-1.1S89.7,245.3,89.7,244L89.7,244z M91,244.2
					c0,0.8,0.2,1.5,0.6,2s0.9,0.8,1.6,0.8c0.7,0,1.2-0.3,1.6-0.8c0.4-0.5,0.6-1.2,0.6-2.2c0-0.8-0.2-1.5-0.6-2
					c-0.4-0.5-0.9-0.8-1.6-0.8c-0.6,0-1.2,0.3-1.6,0.8C91.2,242.5,91,243.2,91,244.2z"/>
				<path d="M103,247.1c-0.5,0.6-1.3,0.9-2.2,0.9c-0.8,0-1.4-0.2-1.9-0.7s-0.6-1.2-0.6-2.1v-5h1.3v4.9c0,1.2,0.5,1.7,1.4,1.7
					c1,0,1.7-0.4,2-1.1v-5.6h1.3v7.6H103L103,247.1z"/>
				<path d="M105.9,244c0-1.2,0.3-2.1,0.8-2.8c0.6-0.7,1.3-1.1,2.2-1.1c0.9,0,1.7,0.3,2.2,1l0.1-0.8h1.2v7.5c0,1-0.3,1.8-0.9,2.3
					c-0.6,0.6-1.4,0.9-2.4,0.9c-0.6,0-1.1-0.1-1.6-0.4s-0.9-0.6-1.2-1l0.7-0.8c0.6,0.7,1.2,1,2.1,1c0.6,0,1.1-0.2,1.5-0.5
					c0.4-0.4,0.5-0.9,0.5-1.5v-0.7c-0.5,0.6-1.2,0.9-2.1,0.9c-0.9,0-1.6-0.4-2.2-1.1S105.9,245.3,105.9,244z M107.2,244.2
					c0,0.9,0.2,1.5,0.5,2c0.4,0.5,0.8,0.7,1.5,0.7c0.8,0,1.4-0.4,1.8-1.1v-3.5c-0.4-0.7-1-1.1-1.8-1.1c-0.6,0-1.1,0.2-1.5,0.7
					C107.4,242.5,107.2,243.2,107.2,244.2z"/>
				<path d="M115.7,241.2c0.6-0.7,1.3-1.1,2.3-1.1c1.6,0,2.4,0.9,2.4,2.7v5h-1.3v-5.1c0-0.6-0.1-1-0.4-1.2c-0.2-0.3-0.6-0.4-1.2-0.4
					c-0.4,0-0.8,0.1-1.1,0.3c-0.3,0.2-0.6,0.5-0.7,0.9v5.4h-1.3v-10.8h1.3V241.2z"/>
				<path d="M125.5,248c-1,0-1.9-0.3-2.5-1s-1-1.6-1-2.7v-0.2c0-0.8,0.1-1.4,0.4-2c0.3-0.6,0.7-1.1,1.2-1.4c0.5-0.3,1.1-0.5,1.7-0.5
					c1,0,1.8,0.3,2.3,1s0.8,1.6,0.8,2.8v0.5h-5.2c0,0.8,0.2,1.4,0.7,1.8s1,0.7,1.6,0.7c0.5,0,0.9-0.1,1.2-0.3s0.6-0.4,0.8-0.7
					l0.8,0.6C127.7,247.5,126.8,248,125.5,248z M125.3,241.2c-0.5,0-1,0.2-1.3,0.6s-0.6,0.9-0.7,1.6h3.8v-0.1c0-0.7-0.2-1.2-0.5-1.5
					C126.3,241.4,125.9,241.2,125.3,241.2z"/>
				<path d="M133.7,241.4c-0.2,0-0.4,0-0.6,0c-0.9,0-1.4,0.4-1.7,1.1v5.4H130v-7.6h1.3l0,0.9c0.4-0.7,1-1,1.8-1c0.3,0,0.4,0,0.6,0.1
					V241.4z"/>
				<path d="M137,238.4v1.8h1.4v1H137v4.7c0,0.3,0.1,0.5,0.2,0.7c0.1,0.2,0.3,0.2,0.6,0.2c0.2,0,0.4,0,0.6-0.1v1.1
					c-0.3,0.1-0.7,0.1-1,0.1c-0.6,0-1-0.2-1.3-0.5c-0.3-0.4-0.4-0.9-0.4-1.5v-4.7h-1.4v-1h1.4v-1.8H137z"/>
				<path d="M142.4,246l1.8-5.7h1.4l-3.1,8.8c-0.5,1.3-1.2,1.9-2.3,1.9l-0.2,0l-0.5-0.1v-1.1l0.4,0c0.4,0,0.8-0.1,1-0.3
					c0.2-0.2,0.5-0.5,0.6-1l0.3-0.8l-2.7-7.5h1.4L142.4,246z"/>
			</g>
			<g class="st11">
				<path class="st12" d="M1087.7,274.6H1077v-2.1l5.1-5.4c0.7-0.8,1.2-1.4,1.6-2c0.3-0.6,0.5-1.1,0.5-1.6c0-0.7-0.2-1.2-0.5-1.6
					c-0.4-0.4-0.9-0.6-1.5-0.6c-0.7,0-1.3,0.2-1.7,0.7s-0.6,1.1-0.6,1.9h-3.1c0-1,0.2-1.8,0.7-2.6c0.5-0.8,1.1-1.4,1.9-1.9
					c0.8-0.5,1.8-0.7,2.8-0.7c1.6,0,2.9,0.4,3.8,1.2c0.9,0.8,1.3,1.9,1.3,3.3c0,0.8-0.2,1.6-0.6,2.4c-0.4,0.8-1.1,1.7-2.1,2.8
					l-3.6,3.8h6.8V274.6z"/>
				<path class="st12" d="M1100.2,268.1c0,2.2-0.5,3.8-1.4,5c-0.9,1.2-2.2,1.7-4,1.7c-1.7,0-3-0.6-3.9-1.7c-0.9-1.1-1.4-2.8-1.4-4.9
					v-2.9c0-2.2,0.5-3.9,1.4-5c0.9-1.1,2.2-1.7,3.9-1.7c1.7,0,3,0.6,3.9,1.7c0.9,1.1,1.4,2.8,1.4,4.9V268.1z M1097.1,264.9
					c0-1.3-0.2-2.3-0.5-2.9c-0.4-0.6-0.9-0.9-1.7-0.9c-0.7,0-1.3,0.3-1.6,0.9c-0.3,0.6-0.5,1.5-0.6,2.7v3.8c0,1.3,0.2,2.2,0.5,2.9
					s0.9,0.9,1.7,0.9c0.8,0,1.3-0.3,1.7-0.9s0.5-1.5,0.5-2.8V264.9z"/>
				<path class="st12" d="M1109.9,274.6h-3.1v-12.1l-3.7,1.2v-2.5l6.5-2.3h0.3V274.6z"/>
				<path class="st12" d="M1124.3,268.7h1.8v2.5h-1.8v3.4h-3.1v-3.4h-6.5l-0.1-2l6.6-10.4h3.2V268.7z M1117.7,268.7h3.5v-5.6
					l-0.2,0.4L1117.7,268.7z"/>
			</g>
			<g class="st11">
				<path class="st12" d="M1083.7,296.5c-0.3,0.5-0.8,0.9-1.5,1.1c-0.6,0.2-1.3,0.4-2.2,0.4c-0.8,0-1.6-0.2-2.2-0.6
					c-0.6-0.4-1.2-1-1.5-1.7c-0.4-0.7-0.5-1.6-0.5-2.5v-0.9c0-1.5,0.4-2.7,1.1-3.6c0.7-0.9,1.7-1.3,3-1.3c1.1,0,1.9,0.3,2.6,0.8
					c0.7,0.5,1.1,1.3,1.2,2.3h-1.4c-0.3-1.4-1.1-2-2.4-2c-0.9,0-1.6,0.3-2.1,1c-0.5,0.6-0.7,1.6-0.7,2.8v0.8c0,1.2,0.3,2.1,0.8,2.8
					c0.5,0.7,1.2,1,2.1,1c0.5,0,1-0.1,1.3-0.2c0.4-0.1,0.7-0.3,0.9-0.6v-2.3h-2.4v-1.1h3.7V296.5z"/>
				<path class="st12" d="M1085.4,294c0-0.7,0.1-1.4,0.4-2c0.3-0.6,0.7-1.1,1.2-1.4s1.1-0.5,1.8-0.5c1,0,1.9,0.4,2.5,1.1
					c0.6,0.7,1,1.7,1,2.9v0.1c0,0.7-0.1,1.4-0.4,2s-0.7,1-1.2,1.4c-0.5,0.3-1.1,0.5-1.8,0.5c-1,0-1.9-0.4-2.5-1.1
					C1085.7,296.2,1085.4,295.2,1085.4,294L1085.4,294z M1086.7,294.1c0,0.8,0.2,1.5,0.6,2c0.4,0.5,0.9,0.8,1.6,0.8
					c0.7,0,1.2-0.3,1.6-0.8c0.4-0.5,0.6-1.2,0.6-2.2c0-0.8-0.2-1.5-0.6-2c-0.4-0.5-0.9-0.8-1.6-0.8c-0.6,0-1.2,0.3-1.6,0.8
					C1086.9,292.4,1086.7,293.2,1086.7,294.1z"/>
				<path class="st12" d="M1093.7,294c0-1.2,0.3-2.1,0.8-2.8c0.6-0.7,1.3-1.1,2.2-1.1c0.9,0,1.6,0.3,2.1,0.9v-4h1.3v10.8h-1.2
					l-0.1-0.8c-0.5,0.6-1.2,1-2.2,1c-0.9,0-1.6-0.4-2.2-1.1C1094,296.2,1093.7,295.2,1093.7,294L1093.7,294z M1095,294.1
					c0,0.9,0.2,1.5,0.5,2s0.9,0.7,1.5,0.7c0.8,0,1.4-0.4,1.8-1.1v-3.5c-0.4-0.7-1-1.1-1.8-1.1c-0.6,0-1.1,0.2-1.5,0.7
					C1095.2,292.4,1095,293.1,1095,294.1z"/>
				<path class="st12" d="M1103.4,296.8h4.5v1.1h-6.1v-1l4.2-5.6h-4.1v-1.1h5.8v0.9L1103.4,296.8z"/>
				<path class="st12" d="M1109.3,288.2c0-0.2,0.1-0.4,0.2-0.5c0.1-0.1,0.3-0.2,0.6-0.2s0.4,0.1,0.6,0.2c0.1,0.1,0.2,0.3,0.2,0.5
					c0,0.2-0.1,0.4-0.2,0.5c-0.1,0.1-0.3,0.2-0.6,0.2s-0.4-0.1-0.6-0.2C1109.4,288.6,1109.3,288.4,1109.3,288.2z M1110.7,297.8h-1.3
					v-7.6h1.3V297.8z"/>
				<path class="st12" d="M1114.2,297.8h-1.3V287h1.3V297.8z"/>
				<path class="st12" d="M1117.7,297.8h-1.3V287h1.3V297.8z"/>
				<path class="st12" d="M1124.5,297.8c-0.1-0.2-0.1-0.4-0.2-0.8c-0.6,0.6-1.3,0.9-2.2,0.9c-0.8,0-1.4-0.2-1.9-0.6
					c-0.5-0.4-0.7-1-0.7-1.6c0-0.8,0.3-1.4,0.9-1.9s1.5-0.7,2.6-0.7h1.3v-0.6c0-0.5-0.1-0.8-0.4-1.1c-0.3-0.3-0.7-0.4-1.2-0.4
					c-0.5,0-0.9,0.1-1.2,0.4c-0.3,0.2-0.5,0.5-0.5,0.9h-1.3c0-0.4,0.1-0.7,0.4-1.1c0.3-0.4,0.6-0.6,1.1-0.8s1-0.3,1.5-0.3
					c0.9,0,1.6,0.2,2.1,0.7c0.5,0.4,0.8,1,0.8,1.8v3.5c0,0.7,0.1,1.3,0.3,1.7v0.1H1124.5z M1122.4,296.9c0.4,0,0.8-0.1,1.2-0.3
					c0.4-0.2,0.6-0.5,0.8-0.8v-1.6h-1c-1.6,0-2.4,0.5-2.4,1.4c0,0.4,0.1,0.7,0.4,1C1121.6,296.7,1121.9,296.9,1122.4,296.9z"/>
			</g>
			<g class="st11">
				<path class="st12" d="M1130,294c0-1.2,0.3-2.1,0.8-2.8c0.5-0.7,1.2-1.1,2.2-1.1c1,0,1.8,0.4,2.4,1.2V287h0.8v10.8h-0.8l0-1
					c-0.5,0.8-1.3,1.2-2.4,1.2c-0.9,0-1.6-0.4-2.1-1.1C1130.3,296.2,1130,295.3,1130,294L1130,294z M1130.9,294.1
					c0,1,0.2,1.7,0.6,2.3c0.4,0.6,0.9,0.8,1.7,0.8c1,0,1.8-0.5,2.2-1.4v-3.6c-0.4-1-1.2-1.5-2.2-1.5c-0.7,0-1.3,0.3-1.7,0.8
					C1131.1,292.2,1130.9,293,1130.9,294.1z"/>
				<path class="st12" d="M1141.3,298c-0.6,0-1.2-0.2-1.8-0.5c-0.5-0.3-0.9-0.8-1.2-1.3c-0.3-0.6-0.4-1.2-0.4-1.9v-0.3
					c0-0.7,0.1-1.4,0.4-2c0.3-0.6,0.7-1.1,1.2-1.4c0.5-0.3,1.1-0.5,1.7-0.5c0.9,0,1.7,0.3,2.2,0.9c0.5,0.6,0.8,1.5,0.8,2.6v0.5h-5.4
					v0.2c0,0.9,0.2,1.6,0.7,2.2c0.5,0.6,1.1,0.9,1.9,0.9c0.5,0,0.8-0.1,1.2-0.2s0.7-0.4,0.9-0.8l0.5,0.4
					C1143.4,297.5,1142.5,298,1141.3,298z M1141.2,290.8c-0.6,0-1.2,0.2-1.6,0.7c-0.4,0.5-0.7,1.1-0.8,1.9h4.6v-0.1
					c0-0.7-0.2-1.3-0.6-1.8S1141.8,290.8,1141.2,290.8z"/>
			</g>
			<g class="st11">
				<path class="st12" d="M1077.1,314.5h5.1v0.7h-5.9v-10.3h0.9V314.5z"/>
				<path class="st12" d="M1086.6,315.3c-0.6,0-1.2-0.2-1.8-0.5c-0.5-0.3-0.9-0.8-1.2-1.3c-0.3-0.6-0.4-1.2-0.4-1.9v-0.3
					c0-0.7,0.1-1.4,0.4-2c0.3-0.6,0.7-1.1,1.2-1.4c0.5-0.3,1.1-0.5,1.7-0.5c0.9,0,1.7,0.3,2.2,0.9c0.5,0.6,0.8,1.5,0.8,2.6v0.5h-5.4
					v0.2c0,0.9,0.2,1.6,0.7,2.2c0.5,0.6,1.1,0.9,1.9,0.9c0.5,0,0.8-0.1,1.2-0.2s0.7-0.4,0.9-0.8l0.5,0.4
					C1088.7,314.9,1087.8,315.3,1086.6,315.3z M1086.4,308.1c-0.6,0-1.2,0.2-1.6,0.7c-0.4,0.5-0.7,1.1-0.8,1.9h4.6v-0.1
					c0-0.7-0.2-1.3-0.6-1.8S1087.1,308.1,1086.4,308.1z"/>
				<path class="st12" d="M1090.8,311.3c0-1.2,0.3-2.1,0.8-2.8c0.5-0.7,1.2-1,2.2-1c1,0,1.8,0.4,2.4,1.2l0-1.1h0.8v7.5
					c0,1-0.3,1.8-0.8,2.3c-0.5,0.6-1.3,0.9-2.2,0.9c-0.5,0-1-0.1-1.5-0.4c-0.5-0.2-0.9-0.6-1.1-0.9l0.5-0.5c0.6,0.7,1.3,1.1,2.1,1.1
					c0.7,0,1.3-0.2,1.7-0.6c0.4-0.4,0.6-1,0.6-1.7v-1c-0.5,0.8-1.3,1.1-2.4,1.1c-0.9,0-1.6-0.4-2.1-1.1s-0.8-1.7-0.8-2.9V311.3z
					 M1091.6,311.4c0,1,0.2,1.7,0.6,2.3c0.4,0.6,0.9,0.8,1.7,0.8c1,0,1.8-0.5,2.2-1.4v-3.5c-0.2-0.5-0.5-0.9-0.9-1.1
					c-0.4-0.3-0.8-0.4-1.3-0.4c-0.7,0-1.3,0.3-1.7,0.8C1091.8,309.5,1091.6,310.4,1091.6,311.4z"/>
				<path class="st12" d="M1102.1,315.3c-0.6,0-1.2-0.2-1.8-0.5c-0.5-0.3-0.9-0.8-1.2-1.3c-0.3-0.6-0.4-1.2-0.4-1.9v-0.3
					c0-0.7,0.1-1.4,0.4-2c0.3-0.6,0.7-1.1,1.2-1.4c0.5-0.3,1.1-0.5,1.7-0.5c0.9,0,1.7,0.3,2.2,0.9c0.5,0.6,0.8,1.5,0.8,2.6v0.5h-5.4
					v0.2c0,0.9,0.2,1.6,0.7,2.2c0.5,0.6,1.1,0.9,1.9,0.9c0.5,0,0.8-0.1,1.2-0.2s0.7-0.4,0.9-0.8l0.5,0.4
					C1104.2,314.9,1103.3,315.3,1102.1,315.3z M1101.9,308.1c-0.6,0-1.2,0.2-1.6,0.7c-0.4,0.5-0.7,1.1-0.8,1.9h4.6v-0.1
					c0-0.7-0.2-1.3-0.6-1.8S1102.6,308.1,1101.9,308.1z"/>
				<path class="st12" d="M1107.4,307.6l0,1.3c0.3-0.5,0.6-0.8,1.1-1.1c0.4-0.2,0.9-0.4,1.4-0.4c0.8,0,1.4,0.2,1.8,0.7
					c0.4,0.5,0.6,1.2,0.6,2.1v5h-0.8v-5c0-0.7-0.1-1.2-0.4-1.5c-0.3-0.3-0.7-0.5-1.4-0.5c-0.5,0-1,0.2-1.4,0.5
					c-0.4,0.3-0.7,0.8-0.9,1.3v5.2h-0.8v-7.6H1107.4z"/>
				<path class="st12" d="M1114.2,311.3c0-1.2,0.3-2.1,0.8-2.8c0.5-0.7,1.2-1.1,2.2-1.1c1,0,1.8,0.4,2.4,1.2v-4.3h0.8v10.8h-0.8l0-1
					c-0.5,0.8-1.3,1.2-2.4,1.2c-0.9,0-1.6-0.4-2.1-1.1C1114.5,313.6,1114.2,312.6,1114.2,311.3L1114.2,311.3z M1115,311.4
					c0,1,0.2,1.7,0.6,2.3c0.4,0.6,0.9,0.8,1.7,0.8c1,0,1.8-0.5,2.2-1.4v-3.6c-0.4-1-1.2-1.5-2.2-1.5c-0.7,0-1.3,0.3-1.7,0.8
					C1115.2,309.5,1115,310.4,1115,311.4z"/>
				<path class="st12" d="M1127.4,315.2c-0.1-0.2-0.1-0.6-0.2-1.1c-0.3,0.4-0.7,0.7-1.1,0.9s-0.9,0.3-1.5,0.3
					c-0.7,0-1.3-0.2-1.8-0.6c-0.5-0.4-0.7-0.9-0.7-1.6c0-0.7,0.3-1.3,0.9-1.8c0.6-0.4,1.5-0.6,2.6-0.6h1.5v-0.9c0-0.5-0.2-1-0.5-1.3
					c-0.3-0.3-0.8-0.5-1.5-0.5c-0.6,0-1.1,0.2-1.5,0.5c-0.4,0.3-0.6,0.7-0.6,1.1l-0.8,0c0-0.6,0.3-1.1,0.8-1.6
					c0.6-0.4,1.3-0.7,2.1-0.7c0.9,0,1.5,0.2,2,0.6c0.5,0.4,0.7,1,0.8,1.8v3.6c0,0.7,0.1,1.3,0.2,1.7v0.1H1127.4z M1124.7,314.6
					c0.6,0,1.1-0.1,1.5-0.4c0.4-0.3,0.8-0.6,1-1.1v-1.7h-1.5c-0.8,0-1.5,0.2-2,0.5c-0.5,0.3-0.7,0.7-0.7,1.2c0,0.4,0.2,0.8,0.5,1.1
					S1124.2,314.6,1124.7,314.6z"/>
				<path class="st12" d="M1133.8,308.3c-0.2,0-0.4,0-0.6,0c-0.5,0-1,0.1-1.3,0.4s-0.6,0.7-0.8,1.3v5.2h-0.8v-7.6h0.8l0,1.2
					c0.4-0.9,1.2-1.4,2.2-1.4c0.2,0,0.4,0,0.6,0.1L1133.8,308.3z"/>
				<path class="st12" d="M1137.6,314l2.2-6.4h0.9l-3.3,8.9l-0.2,0.4c-0.4,0.9-1.1,1.4-1.9,1.4c-0.2,0-0.4,0-0.6-0.1l0-0.7l0.4,0
					c0.4,0,0.7-0.1,1-0.3c0.3-0.2,0.5-0.6,0.7-1.1l0.4-1l-2.9-7.6h0.9L1137.6,314z"/>
				<path class="st12" d="M1151.4,310.4h-4.8v4.8h-0.9v-10.3h6.4v0.7h-5.5v4h4.8V310.4z"/>
				<path class="st12" d="M1153.6,305.3c0-0.2,0.1-0.3,0.2-0.4s0.2-0.2,0.4-0.2s0.3,0.1,0.4,0.2s0.2,0.2,0.2,0.4
					c0,0.2-0.1,0.3-0.2,0.4s-0.2,0.2-0.4,0.2s-0.3-0.1-0.4-0.2S1153.6,305.5,1153.6,305.3z M1154.6,315.2h-0.8v-7.6h0.8V315.2z"/>
				<path class="st12" d="M1157.8,315.2h-0.8v-10.8h0.8V315.2z"/>
				<path class="st12" d="M1160.9,307.6l0,1.2c0.3-0.5,0.6-0.8,1.1-1c0.4-0.2,0.9-0.3,1.4-0.3c1.2,0,2,0.5,2.3,1.5
					c0.3-0.5,0.6-0.8,1.1-1.1s1-0.4,1.5-0.4c1.6,0,2.5,0.9,2.5,2.7v5.1h-0.8v-5c0-0.7-0.2-1.2-0.4-1.5c-0.3-0.3-0.8-0.5-1.4-0.5
					c-0.6,0-1.1,0.2-1.5,0.6c-0.4,0.4-0.7,0.9-0.7,1.4v5.1h-0.8v-5.1c0-0.7-0.2-1.1-0.5-1.5c-0.3-0.3-0.8-0.5-1.4-0.5
					c-0.5,0-1,0.2-1.4,0.5s-0.7,0.8-0.8,1.4v5.2h-0.8v-7.6H1160.9z"/>
				<path class="st12" d="M1177.5,313.2c0-0.4-0.2-0.8-0.5-1c-0.3-0.3-0.8-0.5-1.5-0.6c-0.7-0.1-1.2-0.3-1.6-0.5
					c-0.4-0.2-0.7-0.4-0.8-0.7s-0.3-0.6-0.3-1c0-0.6,0.3-1.1,0.8-1.5c0.5-0.4,1.1-0.6,1.9-0.6c0.9,0,1.5,0.2,2,0.6
					c0.5,0.4,0.8,1,0.8,1.6h-0.8c0-0.4-0.2-0.8-0.6-1.1s-0.8-0.4-1.4-0.4c-0.6,0-1,0.1-1.3,0.4c-0.3,0.2-0.5,0.6-0.5,1
					c0,0.4,0.1,0.7,0.4,0.9c0.3,0.2,0.8,0.4,1.5,0.6c0.7,0.2,1.3,0.4,1.7,0.6c0.4,0.2,0.6,0.4,0.8,0.7c0.2,0.3,0.3,0.6,0.3,1
					c0,0.6-0.3,1.2-0.8,1.5c-0.5,0.4-1.2,0.6-2,0.6c-0.9,0-1.6-0.2-2.2-0.6c-0.6-0.4-0.8-1-0.8-1.6h0.8c0,0.5,0.2,0.9,0.6,1.2
					c0.4,0.3,0.9,0.4,1.5,0.4c0.6,0,1.1-0.1,1.4-0.4C1177.3,314,1177.5,313.6,1177.5,313.2z"/>
				<path class="st12" d="M1078.4,331.3l2.2-6.4h0.9l-3.3,8.9l-0.2,0.4c-0.4,0.9-1.1,1.4-1.9,1.4c-0.2,0-0.4,0-0.6-0.1l0-0.7l0.4,0
					c0.4,0,0.7-0.1,1-0.3c0.3-0.2,0.5-0.6,0.7-1.1l0.4-1l-2.9-7.6h0.9L1078.4,331.3z"/>
				<path class="st12" d="M1086.1,328.6c0-1.2,0.3-2.1,0.8-2.8c0.5-0.7,1.2-1.1,2.2-1.1c1,0,1.8,0.4,2.4,1.2v-4.3h0.8v10.8h-0.8l0-1
					c-0.5,0.8-1.3,1.2-2.4,1.2c-0.9,0-1.6-0.4-2.1-1.1C1086.3,330.9,1086.1,329.9,1086.1,328.6L1086.1,328.6z M1086.9,328.8
					c0,1,0.2,1.7,0.6,2.3c0.4,0.6,0.9,0.8,1.7,0.8c1,0,1.8-0.5,2.2-1.4V327c-0.4-1-1.2-1.5-2.2-1.5c-0.7,0-1.3,0.3-1.7,0.8
					C1087.1,326.9,1086.9,327.7,1086.9,328.8z"/>
				<path class="st12" d="M1094.4,322.7c0-0.2,0.1-0.3,0.2-0.4s0.2-0.2,0.4-0.2s0.3,0.1,0.4,0.2s0.2,0.2,0.2,0.4
					c0,0.2-0.1,0.3-0.2,0.4s-0.2,0.2-0.4,0.2s-0.3-0.1-0.4-0.2S1094.4,322.8,1094.4,322.7z M1095.4,332.5h-0.8v-7.6h0.8V332.5z"/>
				<path class="st12" d="M1101.2,325.6c-0.2,0-0.4,0-0.6,0c-0.5,0-1,0.1-1.3,0.4s-0.6,0.7-0.8,1.3v5.2h-0.8v-7.6h0.8l0,1.2
					c0.4-0.9,1.2-1.4,2.2-1.4c0.2,0,0.4,0,0.6,0.1L1101.2,325.6z"/>
				<path class="st12" d="M1102.5,322.7c0-0.2,0.1-0.3,0.2-0.4s0.2-0.2,0.4-0.2s0.3,0.1,0.4,0.2s0.2,0.2,0.2,0.4
					c0,0.2-0.1,0.3-0.2,0.4s-0.2,0.2-0.4,0.2s-0.3-0.1-0.4-0.2S1102.5,322.8,1102.5,322.7z M1103.5,332.5h-0.8v-7.6h0.8V332.5z"/>
				<path class="st12" d="M1105.4,328.6c0-1.2,0.3-2.1,0.8-2.8c0.5-0.7,1.2-1,2.2-1c1,0,1.8,0.4,2.4,1.2l0-1.1h0.8v7.5
					c0,1-0.3,1.8-0.8,2.3c-0.5,0.6-1.3,0.9-2.2,0.9c-0.5,0-1-0.1-1.5-0.4c-0.5-0.2-0.9-0.6-1.1-0.9l0.5-0.5c0.6,0.7,1.3,1.1,2.1,1.1
					c0.7,0,1.3-0.2,1.7-0.6c0.4-0.4,0.6-1,0.6-1.7v-1c-0.5,0.8-1.3,1.1-2.4,1.1c-0.9,0-1.6-0.4-2.1-1.1s-0.8-1.7-0.8-2.9V328.6z
					 M1106.3,328.8c0,1,0.2,1.7,0.6,2.3c0.4,0.6,0.9,0.8,1.7,0.8c1,0,1.8-0.5,2.2-1.4V327c-0.2-0.5-0.5-0.9-0.9-1.1
					c-0.4-0.3-0.8-0.4-1.3-0.4c-0.7,0-1.3,0.3-1.7,0.8C1106.5,326.9,1106.3,327.7,1106.3,328.8z"/>
				<path class="st12" d="M1113.7,322.7c0-0.2,0.1-0.3,0.2-0.4s0.2-0.2,0.4-0.2s0.3,0.1,0.4,0.2s0.2,0.2,0.2,0.4
					c0,0.2-0.1,0.3-0.2,0.4s-0.2,0.2-0.4,0.2s-0.3-0.1-0.4-0.2S1113.7,322.8,1113.7,322.7z M1114.7,332.5h-0.8v-7.6h0.8V332.5z"/>
				<path class="st12" d="M1116.7,328.6c0-1.2,0.3-2.1,0.8-2.8c0.5-0.7,1.2-1.1,2.2-1.1c1,0,1.8,0.4,2.4,1.2v-4.3h0.8v10.8h-0.8l0-1
					c-0.5,0.8-1.3,1.2-2.4,1.2c-0.9,0-1.6-0.4-2.1-1.1C1117,330.9,1116.7,329.9,1116.7,328.6L1116.7,328.6z M1117.5,328.8
					c0,1,0.2,1.7,0.6,2.3c0.4,0.6,0.9,0.8,1.7,0.8c1,0,1.8-0.5,2.2-1.4V327c-0.4-1-1.2-1.5-2.2-1.5c-0.7,0-1.3,0.3-1.7,0.8
					C1117.7,326.9,1117.5,327.7,1117.5,328.8z"/>
				<path class="st12" d="M1129.9,332.5c-0.1-0.2-0.1-0.6-0.2-1.1c-0.3,0.4-0.7,0.7-1.1,0.9s-0.9,0.3-1.5,0.3
					c-0.7,0-1.3-0.2-1.8-0.6c-0.5-0.4-0.7-0.9-0.7-1.6c0-0.7,0.3-1.3,0.9-1.8c0.6-0.4,1.5-0.6,2.6-0.6h1.5v-0.9c0-0.5-0.2-1-0.5-1.3
					c-0.3-0.3-0.8-0.5-1.5-0.5c-0.6,0-1.1,0.2-1.5,0.5c-0.4,0.3-0.6,0.7-0.6,1.1l-0.8,0c0-0.6,0.3-1.1,0.8-1.6
					c0.6-0.4,1.3-0.7,2.1-0.7c0.9,0,1.5,0.2,2,0.6c0.5,0.4,0.7,1,0.8,1.8v3.6c0,0.7,0.1,1.3,0.2,1.7v0.1H1129.9z M1127.2,331.9
					c0.6,0,1.1-0.1,1.5-0.4c0.4-0.3,0.8-0.6,1-1.1v-1.7h-1.5c-0.8,0-1.5,0.2-2,0.5c-0.5,0.3-0.7,0.7-0.7,1.2c0,0.4,0.2,0.8,0.5,1.1
					S1126.7,331.9,1127.2,331.9z"/>
				<path class="st12" d="M1142.5,328.8c0,1.2-0.3,2.1-0.8,2.8c-0.5,0.7-1.2,1-2.1,1c-1,0-1.8-0.4-2.4-1.1v3.9h-0.8v-10.6h0.8l0,1.1
					c0.6-0.8,1.3-1.2,2.4-1.2c0.9,0,1.6,0.3,2.1,1c0.5,0.7,0.8,1.7,0.8,2.9V328.8z M1141.6,328.6c0-1-0.2-1.7-0.6-2.3
					c-0.4-0.6-1-0.8-1.7-0.8c-0.5,0-1,0.1-1.3,0.4c-0.4,0.2-0.7,0.6-0.9,1.1v3.7c0.2,0.4,0.5,0.8,0.9,1c0.4,0.2,0.8,0.3,1.3,0.3
					c0.7,0,1.3-0.3,1.7-0.9C1141.4,330.5,1141.6,329.7,1141.6,328.6z"/>
				<path class="st12" d="M1143.9,328.6c0-0.7,0.1-1.4,0.4-2c0.3-0.6,0.7-1,1.2-1.4c0.5-0.3,1.1-0.5,1.8-0.5c1,0,1.8,0.4,2.5,1.1
					c0.6,0.7,0.9,1.7,0.9,2.8v0.2c0,0.7-0.1,1.4-0.4,2c-0.3,0.6-0.7,1-1.2,1.4c-0.5,0.3-1.1,0.5-1.8,0.5c-1,0-1.8-0.4-2.5-1.1
					c-0.6-0.7-0.9-1.7-0.9-2.8V328.6z M1144.7,328.8c0,0.9,0.2,1.7,0.7,2.2c0.5,0.6,1.1,0.9,1.9,0.9c0.8,0,1.4-0.3,1.9-0.9
					c0.5-0.6,0.7-1.4,0.7-2.3v-0.2c0-0.6-0.1-1.1-0.3-1.6c-0.2-0.5-0.5-0.9-0.9-1.1c-0.4-0.3-0.8-0.4-1.3-0.4
					c-0.8,0-1.4,0.3-1.8,0.9c-0.5,0.6-0.7,1.4-0.7,2.3V328.8z"/>
				<path class="st12" d="M1155.9,325.6c-0.2,0-0.4,0-0.6,0c-0.5,0-1,0.1-1.3,0.4s-0.6,0.7-0.8,1.3v5.2h-0.8v-7.6h0.8l0,1.2
					c0.4-0.9,1.2-1.4,2.2-1.4c0.2,0,0.4,0,0.6,0.1L1155.9,325.6z"/>
				<path class="st12" d="M1083.6,348.6c-0.3,0.4-0.8,0.8-1.4,1c-0.6,0.2-1.4,0.4-2.2,0.4c-0.8,0-1.5-0.2-2.1-0.6
					c-0.6-0.4-1.1-0.9-1.5-1.6c-0.3-0.7-0.5-1.5-0.5-2.4v-1.3c0-1.4,0.4-2.6,1.1-3.4c0.7-0.8,1.7-1.2,2.9-1.2c1.1,0,1.9,0.3,2.6,0.8
					s1,1.3,1.2,2.2h-0.9c-0.1-0.8-0.4-1.3-0.9-1.7c-0.5-0.4-1.1-0.6-1.9-0.6c-1,0-1.7,0.3-2.3,1c-0.6,0.7-0.8,1.6-0.8,2.9v1.2
					c0,0.8,0.1,1.5,0.4,2.1c0.3,0.6,0.6,1.1,1.1,1.4s1.1,0.5,1.7,0.5c0.7,0,1.4-0.1,1.9-0.4c0.3-0.2,0.6-0.3,0.8-0.5v-2.7h-2.8V345
					h3.6V348.6z"/>
				<path class="st12" d="M1090.7,349.9c-0.1-0.2-0.1-0.6-0.2-1.1c-0.3,0.4-0.7,0.7-1.1,0.9s-0.9,0.3-1.5,0.3
					c-0.7,0-1.3-0.2-1.8-0.6c-0.5-0.4-0.7-0.9-0.7-1.6c0-0.7,0.3-1.3,0.9-1.8c0.6-0.4,1.5-0.6,2.6-0.6h1.5v-0.9c0-0.5-0.2-1-0.5-1.3
					c-0.3-0.3-0.8-0.5-1.5-0.5c-0.6,0-1.1,0.2-1.5,0.5c-0.4,0.3-0.6,0.7-0.6,1.1l-0.8,0c0-0.6,0.3-1.1,0.8-1.6
					c0.6-0.4,1.3-0.7,2.1-0.7c0.9,0,1.5,0.2,2,0.6c0.5,0.4,0.7,1,0.8,1.8v3.6c0,0.7,0.1,1.3,0.2,1.7v0.1H1090.7z M1088.1,349.3
					c0.6,0,1.1-0.1,1.5-0.4c0.4-0.3,0.8-0.6,1-1.1v-1.7h-1.5c-0.8,0-1.5,0.2-2,0.5c-0.5,0.3-0.7,0.7-0.7,1.2c0,0.4,0.2,0.8,0.5,1.1
					S1087.6,349.3,1088.1,349.3z"/>
				<path class="st12" d="M1097.2,343c-0.2,0-0.4,0-0.6,0c-0.5,0-1,0.1-1.3,0.4s-0.6,0.7-0.8,1.3v5.2h-0.8v-7.6h0.8l0,1.2
					c0.4-0.9,1.2-1.4,2.2-1.4c0.2,0,0.4,0,0.6,0.1L1097.2,343z"/>
				<path class="st12" d="M1101.5,350c-0.6,0-1.2-0.2-1.8-0.5c-0.5-0.3-0.9-0.8-1.2-1.3c-0.3-0.6-0.4-1.2-0.4-1.9V346
					c0-0.7,0.1-1.4,0.4-2c0.3-0.6,0.7-1.1,1.2-1.4c0.5-0.3,1.1-0.5,1.7-0.5c0.9,0,1.7,0.3,2.2,0.9c0.5,0.6,0.8,1.5,0.8,2.6v0.5h-5.4
					v0.2c0,0.9,0.2,1.6,0.7,2.2c0.5,0.6,1.1,0.9,1.9,0.9c0.5,0,0.8-0.1,1.2-0.2s0.7-0.4,0.9-0.8l0.5,0.4
					C1103.5,349.6,1102.6,350,1101.5,350z M1101.3,342.8c-0.6,0-1.2,0.2-1.6,0.7c-0.4,0.5-0.7,1.1-0.8,1.9h4.6v-0.1
					c0-0.7-0.2-1.3-0.6-1.8S1101.9,342.8,1101.3,342.8z"/>
				<path class="st12" d="M1107.3,340.3v2h1.6v0.7h-1.6v5.1c0,0.4,0.1,0.7,0.2,0.9c0.2,0.2,0.4,0.3,0.8,0.3c0.1,0,0.4,0,0.7-0.1
					l0,0.7c-0.2,0.1-0.5,0.1-0.9,0.1c-0.6,0-1-0.2-1.3-0.5c-0.3-0.3-0.4-0.8-0.4-1.5v-5.1h-1.4v-0.7h1.4v-2H1107.3z"/>
				<path class="st12" d="M1111.5,343.5c0.3-0.5,0.6-0.8,1.1-1.1s0.9-0.4,1.4-0.4c0.8,0,1.4,0.2,1.8,0.7c0.4,0.5,0.6,1.2,0.6,2.1v5
					h-0.8v-5c0-0.7-0.1-1.2-0.4-1.5c-0.3-0.3-0.7-0.5-1.4-0.5c-0.5,0-1,0.2-1.4,0.5c-0.4,0.3-0.7,0.8-0.9,1.3v5.2h-0.8V339h0.8
					V343.5z"/>
				<path class="st12" d="M1127.9,344.9h-4.8v4.2h5.5v0.7h-6.4v-10.3h6.4v0.7h-5.5v3.9h4.8V344.9z"/>
				<path class="st12" d="M1129.9,346c0-1.2,0.3-2.1,0.8-2.8c0.5-0.7,1.2-1.1,2.2-1.1c1,0,1.8,0.4,2.4,1.2V339h0.8v10.8h-0.8l0-1
					c-0.5,0.8-1.3,1.2-2.4,1.2c-0.9,0-1.6-0.4-2.1-1.1C1130.2,348.2,1129.9,347.3,1129.9,346L1129.9,346z M1130.8,346.1
					c0,1,0.2,1.7,0.6,2.3c0.4,0.6,0.9,0.8,1.7,0.8c1,0,1.8-0.5,2.2-1.4v-3.6c-0.4-1-1.2-1.5-2.2-1.5c-0.7,0-1.3,0.3-1.7,0.8
					C1131,344.2,1130.8,345,1130.8,346.1z"/>
				<path class="st12" d="M1140.1,348.1l0.1,0.7l0.2-0.7l1.8-5.8h0.7l1.8,5.8l0.2,0.8l0.2-0.7l1.6-5.9h0.9l-2.2,7.6h-0.7l-2-6.1
					l-0.1-0.4l-0.1,0.4l-1.9,6h-0.7l-2.2-7.6h0.9L1140.1,348.1z"/>
				<path class="st12" d="M1154,349.9c-0.1-0.2-0.1-0.6-0.2-1.1c-0.3,0.4-0.7,0.7-1.1,0.9s-0.9,0.3-1.5,0.3c-0.7,0-1.3-0.2-1.8-0.6
					c-0.5-0.4-0.7-0.9-0.7-1.6c0-0.7,0.3-1.3,0.9-1.8c0.6-0.4,1.5-0.6,2.6-0.6h1.5v-0.9c0-0.5-0.2-1-0.5-1.3
					c-0.3-0.3-0.8-0.5-1.5-0.5c-0.6,0-1.1,0.2-1.5,0.5c-0.4,0.3-0.6,0.7-0.6,1.1l-0.8,0c0-0.6,0.3-1.1,0.8-1.6
					c0.6-0.4,1.3-0.7,2.1-0.7c0.9,0,1.5,0.2,2,0.6c0.5,0.4,0.7,1,0.8,1.8v3.6c0,0.7,0.1,1.3,0.2,1.7v0.1H1154z M1151.4,349.3
					c0.6,0,1.1-0.1,1.5-0.4c0.4-0.3,0.8-0.6,1-1.1v-1.7h-1.5c-0.8,0-1.5,0.2-2,0.5c-0.5,0.3-0.7,0.7-0.7,1.2c0,0.4,0.2,0.8,0.5,1.1
					S1150.9,349.3,1151.4,349.3z"/>
				<path class="st12" d="M1160.5,343c-0.2,0-0.4,0-0.6,0c-0.5,0-1,0.1-1.3,0.4s-0.6,0.7-0.8,1.3v5.2h-0.8v-7.6h0.8l0,1.2
					c0.4-0.9,1.2-1.4,2.2-1.4c0.2,0,0.4,0,0.6,0.1L1160.5,343z"/>
				<path class="st12" d="M1161.5,346c0-1.2,0.3-2.1,0.8-2.8c0.5-0.7,1.2-1.1,2.2-1.1c1,0,1.8,0.4,2.4,1.2V339h0.8v10.8h-0.8l0-1
					c-0.5,0.8-1.3,1.2-2.4,1.2c-0.9,0-1.6-0.4-2.1-1.1C1161.7,348.2,1161.5,347.3,1161.5,346L1161.5,346z M1162.3,346.1
					c0,1,0.2,1.7,0.6,2.3c0.4,0.6,0.9,0.8,1.7,0.8c1,0,1.8-0.5,2.2-1.4v-3.6c-0.4-1-1.2-1.5-2.2-1.5c-0.7,0-1.3,0.3-1.7,0.8
					C1162.5,344.2,1162.3,345,1162.3,346.1z"/>
				<path class="st12" d="M1174.4,347.9c0-0.4-0.2-0.8-0.5-1c-0.3-0.3-0.8-0.5-1.5-0.6c-0.7-0.1-1.2-0.3-1.6-0.5
					c-0.4-0.2-0.7-0.4-0.8-0.7s-0.3-0.6-0.3-1c0-0.6,0.3-1.1,0.8-1.5c0.5-0.4,1.1-0.6,1.9-0.6c0.9,0,1.5,0.2,2,0.6
					c0.5,0.4,0.8,1,0.8,1.6h-0.8c0-0.4-0.2-0.8-0.6-1.1s-0.8-0.4-1.4-0.4c-0.6,0-1,0.1-1.3,0.4c-0.3,0.2-0.5,0.6-0.5,1
					c0,0.4,0.1,0.7,0.4,0.9c0.3,0.2,0.8,0.4,1.5,0.6c0.7,0.2,1.3,0.4,1.7,0.6c0.4,0.2,0.6,0.4,0.8,0.7c0.2,0.3,0.3,0.6,0.3,1
					c0,0.6-0.3,1.2-0.8,1.5c-0.5,0.4-1.2,0.6-2,0.6c-0.9,0-1.6-0.2-2.2-0.6c-0.6-0.4-0.8-1-0.8-1.6h0.8c0,0.5,0.2,0.9,0.6,1.2
					c0.4,0.3,0.9,0.4,1.5,0.4c0.6,0,1.1-0.1,1.4-0.4C1174.2,348.7,1174.4,348.3,1174.4,347.9z"/>
				<path class="st12" d="M1177.1,349.4c0-0.2,0.1-0.3,0.2-0.4c0.1-0.1,0.3-0.2,0.4-0.2c0.2,0,0.3,0.1,0.4,0.2s0.2,0.3,0.2,0.4
					s-0.1,0.3-0.2,0.4c-0.1,0.1-0.3,0.2-0.4,0.2c-0.2,0-0.3-0.1-0.4-0.2C1177.1,349.7,1177.1,349.5,1177.1,349.4z"/>
			</g>
			<line class="st13" x1="175.7" y1="52.3" x2="615.1" y2="52.3"/>
			<line class="st14" x1="683.6" y1="126.7" x2="1089.2" y2="126.7"/>
			<g class="st11">
				<path d="M637.9,61.3h-1.9V48.6l-3.9,1.4v-1.7l5.5-2.1h0.3V61.3z"/>
				<path d="M649.8,61.3h-1.9V48.6L644,50v-1.7l5.5-2.1h0.3V61.3z"/>
				<path d="M662.7,54.7c-0.4,0.5-0.9,0.9-1.4,1.1c-0.6,0.3-1.2,0.4-1.8,0.4c-0.9,0-1.6-0.2-2.3-0.6c-0.6-0.4-1.1-1-1.5-1.8
					c-0.4-0.8-0.5-1.6-0.5-2.6c0-1,0.2-1.9,0.6-2.7s0.9-1.4,1.6-1.9c0.7-0.4,1.5-0.6,2.5-0.6c1.5,0,2.7,0.6,3.5,1.7
					c0.9,1.1,1.3,2.6,1.3,4.6v0.6c0,2.9-0.6,5.1-1.7,6.4s-2.9,2-5.2,2.1h-0.4v-1.6h0.4c1.6,0,2.8-0.4,3.6-1.2
					C662.2,57.7,662.6,56.4,662.7,54.7z M659.8,54.7c0.6,0,1.2-0.2,1.8-0.6c0.5-0.4,0.9-0.9,1.2-1.5v-0.8c0-1.3-0.3-2.3-0.8-3.1
					c-0.5-0.8-1.2-1.2-2.1-1.2c-0.8,0-1.5,0.3-2,1c-0.5,0.6-0.8,1.5-0.8,2.6c0,1,0.2,1.9,0.7,2.5C658.3,54.4,658.9,54.7,659.8,54.7z
					"/>
				<path d="M667.5,60.3c0-0.3,0.1-0.6,0.3-0.8s0.5-0.3,0.9-0.3s0.7,0.1,0.9,0.3c0.2,0.2,0.3,0.5,0.3,0.8c0,0.3-0.1,0.6-0.3,0.8
					c-0.2,0.2-0.5,0.3-0.9,0.3s-0.7-0.1-0.9-0.3S667.5,60.7,667.5,60.3z"/>
				<path d="M682,50.2c0,0.8-0.2,1.4-0.6,2c-0.4,0.6-0.9,1-1.6,1.4c0.8,0.3,1.4,0.8,1.9,1.5c0.5,0.6,0.7,1.4,0.7,2.2
					c0,1.3-0.4,2.3-1.3,3.1c-0.9,0.8-2,1.2-3.5,1.2c-1.4,0-2.6-0.4-3.5-1.2c-0.9-0.8-1.3-1.8-1.3-3.1c0-0.8,0.2-1.5,0.7-2.2
					c0.4-0.7,1.1-1.2,1.8-1.5c-0.7-0.3-1.2-0.8-1.6-1.4c-0.4-0.6-0.6-1.3-0.6-2c0-1.3,0.4-2.3,1.2-3c0.8-0.7,1.9-1.1,3.2-1.1
					c1.3,0,2.4,0.4,3.2,1.1C681.6,47.9,682,48.9,682,50.2z M680.4,57.2c0-0.8-0.3-1.5-0.8-2.1c-0.5-0.5-1.2-0.8-2.1-0.8
					s-1.6,0.3-2.1,0.8c-0.5,0.5-0.8,1.2-0.8,2.1s0.3,1.5,0.8,2s1.2,0.7,2.1,0.7c0.9,0,1.6-0.2,2.1-0.7
					C680.2,58.8,680.4,58.1,680.4,57.2z M677.5,47.6c-0.8,0-1.4,0.2-1.8,0.7c-0.5,0.5-0.7,1.1-0.7,1.9c0,0.8,0.2,1.4,0.7,1.9
					s1.1,0.7,1.8,0.7s1.4-0.2,1.8-0.7s0.7-1.1,0.7-1.9c0-0.8-0.2-1.4-0.7-1.9C678.9,47.9,678.3,47.6,677.5,47.6z"/>
			</g>
			<g class="st11">
				<path d="M636.5,71l0,0.8c0.6-0.7,1.3-1,2.3-1c1.1,0,1.8,0.4,2.2,1.2c0.3-0.4,0.6-0.7,1-0.9c0.4-0.2,0.9-0.3,1.4-0.3
					c1.7,0,2.5,0.9,2.6,2.7v5.1h-1.3v-5c0-0.5-0.1-1-0.4-1.2s-0.7-0.4-1.3-0.4c-0.5,0-0.9,0.1-1.2,0.4c-0.3,0.3-0.5,0.7-0.6,1.2v5.1
					H640v-5c0-1.1-0.5-1.7-1.6-1.7c-0.9,0-1.4,0.4-1.8,1.1v5.6h-1.3V71H636.5z"/>
				<path d="M651.2,78.8c-1,0-1.9-0.3-2.5-1s-1-1.6-1-2.7v-0.2c0-0.8,0.1-1.4,0.4-2c0.3-0.6,0.7-1.1,1.2-1.4
					c0.5-0.3,1.1-0.5,1.7-0.5c1,0,1.8,0.3,2.3,1c0.6,0.7,0.8,1.6,0.8,2.8v0.5H649c0,0.8,0.2,1.4,0.7,1.8s1,0.7,1.6,0.7
					c0.5,0,0.9-0.1,1.2-0.3c0.3-0.2,0.6-0.4,0.8-0.7l0.8,0.6C653.4,78.3,652.4,78.8,651.2,78.8z M651,72c-0.5,0-1,0.2-1.3,0.6
					s-0.6,0.9-0.7,1.6h3.8v-0.1c0-0.7-0.2-1.2-0.5-1.5C652,72.2,651.5,72,651,72z"/>
				<path d="M657.4,69.2V71h1.4v1h-1.4v4.7c0,0.3,0.1,0.5,0.2,0.7c0.1,0.2,0.3,0.2,0.6,0.2c0.2,0,0.4,0,0.6-0.1v1.1
					c-0.3,0.1-0.7,0.1-1,0.1c-0.6,0-1-0.2-1.3-0.5c-0.3-0.4-0.4-0.9-0.4-1.5v-4.7h-1.4v-1h1.4v-1.8H657.4z"/>
				<path d="M664,72.2c-0.2,0-0.4,0-0.6,0c-0.9,0-1.4,0.4-1.7,1.1v5.4h-1.3V71h1.3l0,0.9c0.4-0.7,1-1,1.8-1c0.3,0,0.4,0,0.6,0.1
					V72.2z"/>
				<path d="M664.8,74.8c0-0.7,0.1-1.4,0.4-2c0.3-0.6,0.7-1.1,1.2-1.4s1.1-0.5,1.8-0.5c1,0,1.9,0.4,2.5,1.1c0.6,0.7,1,1.7,1,2.9V75
					c0,0.7-0.1,1.4-0.4,2s-0.7,1-1.2,1.4c-0.5,0.3-1.1,0.5-1.8,0.5c-1,0-1.9-0.4-2.5-1.1C665.1,77,664.8,76.1,664.8,74.8L664.8,74.8
					z M666.1,75c0,0.8,0.2,1.5,0.6,2c0.4,0.5,0.9,0.8,1.6,0.8c0.7,0,1.2-0.3,1.6-0.8c0.4-0.5,0.6-1.2,0.6-2.2c0-0.8-0.2-1.5-0.6-2
					c-0.4-0.5-0.9-0.8-1.6-0.8c-0.6,0-1.2,0.3-1.6,0.8C666.3,73.3,666.1,74,666.1,75z"/>
				<path d="M677.8,76.7c0-0.4-0.1-0.6-0.4-0.8c-0.3-0.2-0.7-0.4-1.4-0.5c-0.7-0.1-1.2-0.3-1.6-0.5c-0.4-0.2-0.7-0.4-0.9-0.7
					s-0.3-0.6-0.3-1c0-0.6,0.3-1.2,0.8-1.6c0.5-0.4,1.2-0.6,2-0.6c0.9,0,1.6,0.2,2.1,0.7c0.5,0.4,0.8,1,0.8,1.7h-1.3
					c0-0.4-0.2-0.7-0.5-0.9c-0.3-0.3-0.7-0.4-1.1-0.4c-0.5,0-0.8,0.1-1.1,0.3c-0.3,0.2-0.4,0.5-0.4,0.8c0,0.3,0.1,0.6,0.4,0.7
					c0.2,0.2,0.7,0.3,1.4,0.5c0.7,0.1,1.2,0.3,1.6,0.5s0.7,0.4,0.9,0.7s0.3,0.6,0.3,1c0,0.7-0.3,1.2-0.8,1.6
					c-0.5,0.4-1.3,0.6-2.1,0.6c-0.6,0-1.2-0.1-1.6-0.3c-0.5-0.2-0.8-0.5-1.1-0.9c-0.3-0.4-0.4-0.8-0.4-1.3h1.3c0,0.4,0.2,0.8,0.5,1
					s0.8,0.4,1.3,0.4c0.5,0,0.9-0.1,1.2-0.3C677.6,77.3,677.8,77,677.8,76.7z"/>
			</g>
			<g class="st11">
				<path class="st12" d="M646.4,133.3h-1.9v-12.8l-3.9,1.4v-1.7l5.5-2.1h0.3V133.3z"/>
				<path class="st12" d="M661.5,126.9c0,2.2-0.4,3.9-1.1,5c-0.8,1.1-2,1.6-3.6,1.6c-1.6,0-2.8-0.5-3.6-1.6
					c-0.8-1.1-1.2-2.7-1.2-4.8v-2.6c0-2.2,0.4-3.9,1.1-4.9s2-1.6,3.6-1.6c1.6,0,2.8,0.5,3.6,1.6c0.8,1,1.2,2.6,1.2,4.8V126.9z
					 M659.6,124.3c0-1.6-0.2-2.8-0.7-3.5c-0.5-0.7-1.2-1.1-2.2-1.1c-1,0-1.7,0.4-2.1,1.1s-0.7,1.9-0.7,3.4v3.1
					c0,1.6,0.2,2.8,0.7,3.6c0.5,0.8,1.2,1.2,2.1,1.2c0.9,0,1.6-0.4,2.1-1.1c0.5-0.7,0.7-1.9,0.7-3.5V124.3z"/>
				<path class="st12" d="M673.1,122.2c0,0.8-0.2,1.4-0.6,2c-0.4,0.6-0.9,1-1.6,1.4c0.8,0.3,1.4,0.8,1.9,1.5
					c0.5,0.6,0.7,1.4,0.7,2.2c0,1.3-0.4,2.3-1.3,3.1c-0.9,0.8-2,1.2-3.5,1.2c-1.4,0-2.6-0.4-3.5-1.2c-0.9-0.8-1.3-1.8-1.3-3.1
					c0-0.8,0.2-1.5,0.7-2.2c0.4-0.7,1.1-1.2,1.8-1.5c-0.7-0.3-1.2-0.8-1.6-1.4c-0.4-0.6-0.6-1.3-0.6-2c0-1.3,0.4-2.3,1.2-3
					c0.8-0.7,1.9-1.1,3.2-1.1c1.3,0,2.4,0.4,3.2,1.1C672.7,119.9,673.1,120.9,673.1,122.2z M671.5,129.2c0-0.8-0.3-1.5-0.8-2.1
					c-0.5-0.5-1.2-0.8-2.1-0.8s-1.6,0.3-2.1,0.8c-0.5,0.5-0.8,1.2-0.8,2.1s0.3,1.5,0.8,2s1.2,0.7,2.1,0.7c0.9,0,1.6-0.2,2.1-0.7
					C671.3,130.8,671.5,130.1,671.5,129.2z M668.7,119.6c-0.8,0-1.4,0.2-1.8,0.7c-0.5,0.5-0.7,1.1-0.7,1.9c0,0.8,0.2,1.4,0.7,1.9
					s1.1,0.7,1.8,0.7s1.4-0.2,1.8-0.7s0.7-1.1,0.7-1.9c0-0.8-0.2-1.4-0.7-1.9C670,119.9,669.4,119.6,668.7,119.6z"/>
			</g>
			<g class="st11">
				<path class="st12" d="M636.5,143.1l0,0.8c0.6-0.7,1.3-1,2.3-1c1.1,0,1.8,0.4,2.2,1.2c0.3-0.4,0.6-0.7,1-0.9
					c0.4-0.2,0.9-0.3,1.4-0.3c1.7,0,2.5,0.9,2.6,2.7v5.1h-1.3v-5c0-0.5-0.1-1-0.4-1.2s-0.7-0.4-1.3-0.4c-0.5,0-0.9,0.1-1.2,0.4
					c-0.3,0.3-0.5,0.7-0.6,1.2v5.1H640v-5c0-1.1-0.5-1.7-1.6-1.7c-0.9,0-1.4,0.4-1.8,1.1v5.6h-1.3v-7.6H636.5z"/>
				<path class="st12" d="M651.2,150.8c-1,0-1.9-0.3-2.5-1s-1-1.6-1-2.7v-0.2c0-0.8,0.1-1.4,0.4-2c0.3-0.6,0.7-1.1,1.2-1.4
					c0.5-0.3,1.1-0.5,1.7-0.5c1,0,1.8,0.3,2.3,1c0.6,0.7,0.8,1.6,0.8,2.8v0.5H649c0,0.8,0.2,1.4,0.7,1.8s1,0.7,1.6,0.7
					c0.5,0,0.9-0.1,1.2-0.3c0.3-0.2,0.6-0.4,0.8-0.7l0.8,0.6C653.4,150.3,652.4,150.8,651.2,150.8z M651,144c-0.5,0-1,0.2-1.3,0.6
					s-0.6,0.9-0.7,1.6h3.8v-0.1c0-0.7-0.2-1.2-0.5-1.5C652,144.2,651.5,144,651,144z"/>
				<path class="st12" d="M657.4,141.2v1.8h1.4v1h-1.4v4.7c0,0.3,0.1,0.5,0.2,0.7c0.1,0.2,0.3,0.2,0.6,0.2c0.2,0,0.4,0,0.6-0.1v1.1
					c-0.3,0.1-0.7,0.1-1,0.1c-0.6,0-1-0.2-1.3-0.5c-0.3-0.4-0.4-0.9-0.4-1.5v-4.7h-1.4v-1h1.4v-1.8H657.4z"/>
				<path class="st12" d="M664,144.2c-0.2,0-0.4,0-0.6,0c-0.9,0-1.4,0.4-1.7,1.1v5.4h-1.3v-7.6h1.3l0,0.9c0.4-0.7,1-1,1.8-1
					c0.3,0,0.4,0,0.6,0.1V144.2z"/>
				<path class="st12" d="M664.8,146.8c0-0.7,0.1-1.4,0.4-2c0.3-0.6,0.7-1.1,1.2-1.4s1.1-0.5,1.8-0.5c1,0,1.9,0.4,2.5,1.1
					c0.6,0.7,1,1.7,1,2.9v0.1c0,0.7-0.1,1.4-0.4,2s-0.7,1-1.2,1.4c-0.5,0.3-1.1,0.5-1.8,0.5c-1,0-1.9-0.4-2.5-1.1
					C665.1,149,664.8,148.1,664.8,146.8L664.8,146.8z M666.1,147c0,0.8,0.2,1.5,0.6,2c0.4,0.5,0.9,0.8,1.6,0.8
					c0.7,0,1.2-0.3,1.6-0.8c0.4-0.5,0.6-1.2,0.6-2.2c0-0.8-0.2-1.5-0.6-2c-0.4-0.5-0.9-0.8-1.6-0.8c-0.6,0-1.2,0.3-1.6,0.8
					C666.3,145.3,666.1,146,666.1,147z"/>
				<path class="st12" d="M677.8,148.7c0-0.4-0.1-0.6-0.4-0.8c-0.3-0.2-0.7-0.4-1.4-0.5c-0.7-0.1-1.2-0.3-1.6-0.5
					c-0.4-0.2-0.7-0.4-0.9-0.7s-0.3-0.6-0.3-1c0-0.6,0.3-1.2,0.8-1.6c0.5-0.4,1.2-0.6,2-0.6c0.9,0,1.6,0.2,2.1,0.7
					c0.5,0.4,0.8,1,0.8,1.7h-1.3c0-0.4-0.2-0.7-0.5-0.9c-0.3-0.3-0.7-0.4-1.1-0.4c-0.5,0-0.8,0.1-1.1,0.3c-0.3,0.2-0.4,0.5-0.4,0.8
					c0,0.3,0.1,0.6,0.4,0.7c0.2,0.2,0.7,0.3,1.4,0.5c0.7,0.1,1.2,0.3,1.6,0.5s0.7,0.4,0.9,0.7s0.3,0.6,0.3,1c0,0.7-0.3,1.2-0.8,1.6
					c-0.5,0.4-1.3,0.6-2.1,0.6c-0.6,0-1.2-0.1-1.6-0.3c-0.5-0.2-0.8-0.5-1.1-0.9c-0.3-0.4-0.4-0.8-0.4-1.3h1.3c0,0.4,0.2,0.8,0.5,1
					s0.8,0.4,1.3,0.4c0.5,0,0.9-0.1,1.2-0.3C677.6,149.3,677.8,149,677.8,148.7z"/>
			</g>
			<g class="st11">
				<path class="st15" d="M630.1,203.5c-0.4,0.5-0.9,0.9-1.4,1.1c-0.6,0.3-1.2,0.4-1.8,0.4c-0.9,0-1.6-0.2-2.3-0.6
					c-0.6-0.4-1.1-1-1.5-1.8c-0.4-0.8-0.5-1.6-0.5-2.6c0-1,0.2-1.9,0.6-2.7s0.9-1.4,1.6-1.9c0.7-0.4,1.5-0.6,2.5-0.6
					c1.5,0,2.7,0.6,3.5,1.7c0.9,1.1,1.3,2.6,1.3,4.6v0.6c0,2.9-0.6,5.1-1.7,6.4s-2.9,2-5.2,2.1h-0.4v-1.6h0.4c1.6,0,2.8-0.4,3.6-1.2
					C629.5,206.5,630,205.3,630.1,203.5z M627.1,203.5c0.6,0,1.2-0.2,1.8-0.6c0.5-0.4,0.9-0.9,1.2-1.5v-0.8c0-1.3-0.3-2.3-0.8-3.1
					c-0.5-0.8-1.2-1.2-2.1-1.2c-0.8,0-1.5,0.3-2,1c-0.5,0.6-0.8,1.5-0.8,2.6c0,1,0.2,1.9,0.7,2.5
					C625.6,203.2,626.3,203.5,627.1,203.5z"/>
				<path class="st15" d="M637.4,201.7h1.4c0.9,0,1.6-0.3,2.1-0.7c0.5-0.5,0.8-1.1,0.8-1.9c0-1.8-0.9-2.6-2.6-2.6
					c-0.8,0-1.5,0.2-2,0.7s-0.7,1.1-0.7,1.9h-1.9c0-1.2,0.4-2.2,1.3-3c0.9-0.8,2-1.2,3.3-1.2c1.4,0,2.5,0.4,3.3,1.1
					c0.8,0.8,1.2,1.8,1.2,3.1c0,0.7-0.2,1.3-0.6,1.9s-1,1.1-1.7,1.4c0.8,0.3,1.5,0.7,1.9,1.3c0.5,0.6,0.7,1.3,0.7,2.2
					c0,1.4-0.4,2.4-1.3,3.2c-0.9,0.8-2,1.2-3.4,1.2c-1.4,0-2.6-0.4-3.5-1.1c-0.9-0.8-1.3-1.8-1.3-3h1.9c0,0.8,0.3,1.4,0.8,1.9
					s1.2,0.7,2.1,0.7c0.9,0,1.6-0.2,2.1-0.7s0.7-1.2,0.7-2.1c0-0.9-0.3-1.5-0.8-2s-1.3-0.7-2.3-0.7h-1.4V201.7z"/>
			</g>
			<g class="st11">
				<path class="st15" d="M649.4,202.5l0,0.8c0.6-0.7,1.3-1,2.3-1c1.1,0,1.8,0.4,2.2,1.2c0.3-0.4,0.6-0.7,1-0.9
					c0.4-0.2,0.9-0.3,1.4-0.3c1.7,0,2.5,0.9,2.6,2.7v5.1h-1.3v-5c0-0.5-0.1-1-0.4-1.2s-0.7-0.4-1.3-0.4c-0.5,0-0.9,0.1-1.2,0.4
					c-0.3,0.3-0.5,0.7-0.6,1.2v5.1h-1.3v-5c0-1.1-0.5-1.7-1.6-1.7c-0.9,0-1.4,0.4-1.8,1.1v5.6h-1.3v-7.6H649.4z"/>
				<path class="st15" d="M664,210.3c-1,0-1.9-0.3-2.5-1s-1-1.6-1-2.7v-0.2c0-0.8,0.1-1.4,0.4-2c0.3-0.6,0.7-1.1,1.2-1.4
					c0.5-0.3,1.1-0.5,1.7-0.5c1,0,1.8,0.3,2.3,1c0.6,0.7,0.8,1.6,0.8,2.8v0.5h-5.2c0,0.8,0.2,1.4,0.7,1.8s1,0.7,1.6,0.7
					c0.5,0,0.9-0.1,1.2-0.3c0.3-0.2,0.6-0.4,0.8-0.7l0.8,0.6C666.2,209.8,665.3,210.3,664,210.3z M663.8,203.5c-0.5,0-1,0.2-1.3,0.6
					s-0.6,0.9-0.7,1.6h3.8v-0.1c0-0.7-0.2-1.2-0.5-1.5C664.8,203.6,664.4,203.5,663.8,203.5z"/>
				<path class="st15" d="M670.2,200.7v1.8h1.4v1h-1.4v4.7c0,0.3,0.1,0.5,0.2,0.7c0.1,0.2,0.3,0.2,0.6,0.2c0.2,0,0.4,0,0.6-0.1v1.1
					c-0.3,0.1-0.7,0.1-1,0.1c-0.6,0-1-0.2-1.3-0.5c-0.3-0.4-0.4-0.9-0.4-1.5v-4.7h-1.4v-1h1.4v-1.8H670.2z"/>
				<path class="st15" d="M676.9,203.7c-0.2,0-0.4,0-0.6,0c-0.9,0-1.4,0.4-1.7,1.1v5.4h-1.3v-7.6h1.3l0,0.9c0.4-0.7,1-1,1.8-1
					c0.3,0,0.4,0,0.6,0.1V203.7z"/>
				<path class="st15" d="M677.6,206.3c0-0.7,0.1-1.4,0.4-2c0.3-0.6,0.7-1.1,1.2-1.4s1.1-0.5,1.8-0.5c1,0,1.9,0.4,2.5,1.1
					c0.6,0.7,1,1.7,1,2.9v0.1c0,0.7-0.1,1.4-0.4,2s-0.7,1-1.2,1.4c-0.5,0.3-1.1,0.5-1.8,0.5c-1,0-1.9-0.4-2.5-1.1
					C677.9,208.5,677.6,207.5,677.6,206.3L677.6,206.3z M678.9,206.4c0,0.8,0.2,1.5,0.6,2c0.4,0.5,0.9,0.8,1.6,0.8
					c0.7,0,1.2-0.3,1.6-0.8c0.4-0.5,0.6-1.2,0.6-2.2c0-0.8-0.2-1.5-0.6-2c-0.4-0.5-0.9-0.8-1.6-0.8c-0.6,0-1.2,0.3-1.6,0.8
					C679.1,204.7,678.9,205.5,678.9,206.4z"/>
				<path class="st15" d="M690.6,208.1c0-0.4-0.1-0.6-0.4-0.8c-0.3-0.2-0.7-0.4-1.4-0.5c-0.7-0.1-1.2-0.3-1.6-0.5
					c-0.4-0.2-0.7-0.4-0.9-0.7s-0.3-0.6-0.3-1c0-0.6,0.3-1.2,0.8-1.6c0.5-0.4,1.2-0.6,2-0.6c0.9,0,1.6,0.2,2.1,0.7
					c0.5,0.4,0.8,1,0.8,1.7h-1.3c0-0.4-0.2-0.7-0.5-0.9c-0.3-0.3-0.7-0.4-1.1-0.4c-0.5,0-0.8,0.1-1.1,0.3c-0.3,0.2-0.4,0.5-0.4,0.8
					c0,0.3,0.1,0.6,0.4,0.7c0.2,0.2,0.7,0.3,1.4,0.5c0.7,0.1,1.2,0.3,1.6,0.5s0.7,0.4,0.9,0.7s0.3,0.6,0.3,1c0,0.7-0.3,1.2-0.8,1.6
					c-0.5,0.4-1.3,0.6-2.1,0.6c-0.6,0-1.2-0.1-1.6-0.3c-0.5-0.2-0.8-0.5-1.1-0.9c-0.3-0.4-0.4-0.8-0.4-1.3h1.3c0,0.4,0.2,0.8,0.5,1
					s0.8,0.4,1.3,0.4c0.5,0,0.9-0.1,1.2-0.3C690.5,208.7,690.6,208.5,690.6,208.1z"/>
			</g>
			<g class="st11">
				<path class="st15" d="M592.4,183h-4.5v3.6h5.2v1.1h-6.5v-10.3h6.5v1.1h-5.1v3.3h4.5V183z"/>
				<path class="st15" d="M599,185.7c0-0.4-0.1-0.6-0.4-0.8c-0.3-0.2-0.7-0.4-1.4-0.5c-0.7-0.1-1.2-0.3-1.6-0.5
					c-0.4-0.2-0.7-0.4-0.9-0.7c-0.2-0.3-0.3-0.6-0.3-1c0-0.6,0.3-1.2,0.8-1.6c0.5-0.4,1.2-0.6,2-0.6c0.9,0,1.6,0.2,2.1,0.7
					s0.8,1,0.8,1.7H599c0-0.4-0.2-0.7-0.5-0.9c-0.3-0.3-0.7-0.4-1.1-0.4c-0.5,0-0.8,0.1-1.1,0.3s-0.4,0.5-0.4,0.8
					c0,0.3,0.1,0.6,0.4,0.7c0.2,0.2,0.7,0.3,1.4,0.5c0.7,0.1,1.2,0.3,1.6,0.5c0.4,0.2,0.7,0.4,0.9,0.7s0.3,0.6,0.3,1
					c0,0.7-0.3,1.2-0.8,1.6s-1.3,0.6-2.1,0.6c-0.6,0-1.2-0.1-1.6-0.3c-0.5-0.2-0.8-0.5-1.1-0.9c-0.3-0.4-0.4-0.8-0.4-1.3h1.3
					c0,0.4,0.2,0.8,0.5,1c0.3,0.3,0.8,0.4,1.3,0.4c0.5,0,0.9-0.1,1.2-0.3S599,186,599,185.7z"/>
				<path class="st15" d="M603.8,178.2v1.8h1.4v1h-1.4v4.7c0,0.3,0.1,0.5,0.2,0.7c0.1,0.2,0.3,0.2,0.6,0.2c0.2,0,0.4,0,0.6-0.1v1.1
					c-0.3,0.1-0.7,0.1-1,0.1c-0.6,0-1-0.2-1.3-0.5c-0.3-0.4-0.4-0.9-0.4-1.5v-4.7h-1.4v-1h1.4v-1.8H603.8z"/>
				<path class="st15" d="M611.5,187.7c-0.1-0.2-0.1-0.4-0.2-0.8c-0.6,0.6-1.3,0.9-2.2,0.9c-0.8,0-1.4-0.2-1.9-0.6
					c-0.5-0.4-0.7-1-0.7-1.6c0-0.8,0.3-1.4,0.9-1.9s1.5-0.7,2.6-0.7h1.3v-0.6c0-0.5-0.1-0.8-0.4-1.1c-0.3-0.3-0.7-0.4-1.2-0.4
					c-0.5,0-0.9,0.1-1.2,0.4c-0.3,0.2-0.5,0.5-0.5,0.9h-1.3c0-0.4,0.1-0.7,0.4-1.1c0.3-0.4,0.6-0.6,1.1-0.8c0.5-0.2,1-0.3,1.5-0.3
					c0.9,0,1.6,0.2,2.1,0.7c0.5,0.4,0.8,1,0.8,1.8v3.5c0,0.7,0.1,1.3,0.3,1.7v0.1H611.5z M609.3,186.7c0.4,0,0.8-0.1,1.2-0.3
					c0.4-0.2,0.6-0.5,0.8-0.8V184h-1c-1.6,0-2.4,0.5-2.4,1.4c0,0.4,0.1,0.7,0.4,1C608.5,186.6,608.9,186.7,609.3,186.7z"/>
				<path class="st15" d="M616.4,178.2v1.8h1.4v1h-1.4v4.7c0,0.3,0.1,0.5,0.2,0.7c0.1,0.2,0.3,0.2,0.7,0.2c0.2,0,0.4,0,0.6-0.1v1.1
					c-0.3,0.1-0.7,0.1-1,0.1c-0.6,0-1-0.2-1.3-0.5c-0.3-0.4-0.4-0.9-0.4-1.5v-4.7h-1.4v-1h1.4v-1.8H616.4z"/>
				<path class="st15" d="M624.1,187c-0.5,0.6-1.3,0.9-2.2,0.9c-0.8,0-1.4-0.2-1.9-0.7s-0.6-1.2-0.6-2.1v-5h1.3v4.9
					c0,1.2,0.5,1.7,1.4,1.7c1,0,1.7-0.4,2-1.1v-5.6h1.3v7.6h-1.2L624.1,187z"/>
				<path class="st15" d="M632,187.7c-0.1-0.2-0.1-0.4-0.2-0.8c-0.6,0.6-1.3,0.9-2.2,0.9c-0.8,0-1.4-0.2-1.9-0.6
					c-0.5-0.4-0.7-1-0.7-1.6c0-0.8,0.3-1.4,0.9-1.9s1.5-0.7,2.6-0.7h1.3v-0.6c0-0.5-0.1-0.8-0.4-1.1c-0.3-0.3-0.7-0.4-1.2-0.4
					c-0.5,0-0.9,0.1-1.2,0.4c-0.3,0.2-0.5,0.5-0.5,0.9h-1.3c0-0.4,0.1-0.7,0.4-1.1c0.3-0.4,0.6-0.6,1.1-0.8s1-0.3,1.5-0.3
					c0.9,0,1.6,0.2,2.1,0.7c0.5,0.4,0.8,1,0.8,1.8v3.5c0,0.7,0.1,1.3,0.3,1.7v0.1H632z M629.9,186.7c0.4,0,0.8-0.1,1.2-0.3
					c0.4-0.2,0.6-0.5,0.8-0.8V184h-1c-1.6,0-2.4,0.5-2.4,1.4c0,0.4,0.1,0.7,0.4,1C629.1,186.6,629.4,186.7,629.9,186.7z"/>
				<path class="st15" d="M638.4,183.8c0-1.2,0.3-2.1,0.8-2.8c0.6-0.7,1.3-1.1,2.2-1.1c0.9,0,1.6,0.3,2.1,0.9v-4h1.3v10.8h-1.2
					l-0.1-0.8c-0.5,0.6-1.2,1-2.2,1c-0.9,0-1.6-0.4-2.2-1.1C638.7,186.1,638.4,185.1,638.4,183.8L638.4,183.8z M639.7,184
					c0,0.9,0.2,1.5,0.5,2s0.9,0.7,1.5,0.7c0.8,0,1.4-0.4,1.8-1.1v-3.5c-0.4-0.7-1-1.1-1.8-1.1c-0.6,0-1.1,0.2-1.5,0.7
					C639.9,182.3,639.7,183,639.7,184z"/>
				<path class="st15" d="M650.1,187.9c-1,0-1.9-0.3-2.5-1s-1-1.6-1-2.7v-0.2c0-0.8,0.1-1.4,0.4-2c0.3-0.6,0.7-1.1,1.2-1.4
					c0.5-0.3,1.1-0.5,1.7-0.5c1,0,1.8,0.3,2.3,1c0.6,0.7,0.8,1.6,0.8,2.8v0.5h-5.2c0,0.8,0.2,1.4,0.7,1.8s1,0.7,1.6,0.7
					c0.5,0,0.9-0.1,1.2-0.3c0.3-0.2,0.6-0.4,0.8-0.7l0.8,0.6C652.3,187.4,651.3,187.9,650.1,187.9z M649.9,181c-0.5,0-1,0.2-1.3,0.6
					s-0.6,0.9-0.7,1.6h3.8v-0.1c0-0.7-0.2-1.2-0.5-1.5C650.9,181.2,650.4,181,649.9,181z"/>
				<path class="st15" d="M659.5,187.7h-1.3v-10.8h1.3V187.7z"/>
				<path class="st15" d="M666.3,187.7c-0.1-0.2-0.1-0.4-0.2-0.8c-0.6,0.6-1.3,0.9-2.2,0.9c-0.8,0-1.4-0.2-1.9-0.6
					c-0.5-0.4-0.7-1-0.7-1.6c0-0.8,0.3-1.4,0.9-1.9s1.5-0.7,2.6-0.7h1.3v-0.6c0-0.5-0.1-0.8-0.4-1.1c-0.3-0.3-0.7-0.4-1.2-0.4
					c-0.5,0-0.9,0.1-1.2,0.4c-0.3,0.2-0.5,0.5-0.5,0.9h-1.3c0-0.4,0.1-0.7,0.4-1.1c0.3-0.4,0.6-0.6,1.1-0.8s1-0.3,1.5-0.3
					c0.9,0,1.6,0.2,2.1,0.7c0.5,0.4,0.8,1,0.8,1.8v3.5c0,0.7,0.1,1.3,0.3,1.7v0.1H666.3z M664.2,186.7c0.4,0,0.8-0.1,1.2-0.3
					c0.4-0.2,0.6-0.5,0.8-0.8V184h-1c-1.6,0-2.4,0.5-2.4,1.4c0,0.4,0.1,0.7,0.4,1C663.4,186.6,663.8,186.7,664.2,186.7z"/>
				<path class="st15" d="M674.6,186.6h4.9v1.1h-6.2v-10.3h1.4V186.6z"/>
				<path class="st15" d="M680.9,178.1c0-0.2,0.1-0.4,0.2-0.5c0.1-0.1,0.3-0.2,0.6-0.2s0.4,0.1,0.6,0.2c0.1,0.1,0.2,0.3,0.2,0.5
					c0,0.2-0.1,0.4-0.2,0.5c-0.1,0.1-0.3,0.2-0.6,0.2s-0.4-0.1-0.6-0.2C680.9,178.5,680.9,178.3,680.9,178.1z M682.3,187.7H681v-7.6
					h1.3V187.7z"/>
				<path class="st15" d="M690.8,184c0,1.2-0.3,2.1-0.8,2.8c-0.5,0.7-1.3,1.1-2.2,1.1c-1,0-1.7-0.3-2.2-1l-0.1,0.9h-1.2v-10.8h1.3v4
					c0.5-0.7,1.3-1,2.2-1s1.7,0.4,2.2,1.1c0.5,0.7,0.8,1.7,0.8,2.9V184z M689.5,183.8c0-0.9-0.2-1.6-0.5-2.1
					c-0.3-0.5-0.8-0.7-1.5-0.7c-0.9,0-1.5,0.4-1.9,1.2v3.3c0.4,0.8,1,1.2,1.9,1.2c0.6,0,1.1-0.2,1.5-0.7
					C689.3,185.5,689.5,184.8,689.5,183.8z"/>
				<path class="st15" d="M695.6,187.9c-1,0-1.9-0.3-2.5-1s-1-1.6-1-2.7v-0.2c0-0.8,0.1-1.4,0.4-2c0.3-0.6,0.7-1.1,1.2-1.4
					c0.5-0.3,1.1-0.5,1.7-0.5c1,0,1.8,0.3,2.3,1c0.6,0.7,0.8,1.6,0.8,2.8v0.5h-5.2c0,0.8,0.2,1.4,0.7,1.8s1,0.7,1.6,0.7
					c0.5,0,0.9-0.1,1.2-0.3c0.3-0.2,0.6-0.4,0.8-0.7l0.8,0.6C697.9,187.4,696.9,187.9,695.6,187.9z M695.5,181c-0.5,0-1,0.2-1.3,0.6
					s-0.6,0.9-0.7,1.6h3.8v-0.1c0-0.7-0.2-1.2-0.5-1.5C696.4,181.2,696,181,695.5,181z"/>
				<path class="st15" d="M703.8,181.3c-0.2,0-0.4,0-0.6,0c-0.9,0-1.4,0.4-1.7,1.1v5.4h-1.3v-7.6h1.3l0,0.9c0.4-0.7,1-1,1.8-1
					c0.3,0,0.4,0,0.6,0.1V181.3z"/>
				<path class="st15" d="M707.1,178.2v1.8h1.4v1h-1.4v4.7c0,0.3,0.1,0.5,0.2,0.7c0.1,0.2,0.3,0.2,0.6,0.2c0.2,0,0.4,0,0.6-0.1v1.1
					c-0.3,0.1-0.7,0.1-1,0.1c-0.6,0-1-0.2-1.3-0.5c-0.3-0.4-0.4-0.9-0.4-1.5v-4.7h-1.4v-1h1.4v-1.8H707.1z"/>
				<path class="st15" d="M714.8,187.7c-0.1-0.2-0.1-0.4-0.2-0.8c-0.6,0.6-1.3,0.9-2.2,0.9c-0.8,0-1.4-0.2-1.9-0.6
					c-0.5-0.4-0.7-1-0.7-1.6c0-0.8,0.3-1.4,0.9-1.9s1.5-0.7,2.6-0.7h1.3v-0.6c0-0.5-0.1-0.8-0.4-1.1c-0.3-0.3-0.7-0.4-1.2-0.4
					c-0.5,0-0.9,0.1-1.2,0.4c-0.3,0.2-0.5,0.5-0.5,0.9H710c0-0.4,0.1-0.7,0.4-1.1c0.3-0.4,0.6-0.6,1.1-0.8s1-0.3,1.5-0.3
					c0.9,0,1.6,0.2,2.1,0.7c0.5,0.4,0.8,1,0.8,1.8v3.5c0,0.7,0.1,1.3,0.3,1.7v0.1H714.8z M712.6,186.7c0.4,0,0.8-0.1,1.2-0.3
					c0.4-0.2,0.6-0.5,0.8-0.8V184h-1c-1.6,0-2.4,0.5-2.4,1.4c0,0.4,0.1,0.7,0.4,1C711.8,186.6,712.2,186.7,712.6,186.7z"/>
				<path class="st15" d="M717.6,183.8c0-1.2,0.3-2.1,0.8-2.8c0.6-0.7,1.3-1.1,2.2-1.1c0.9,0,1.6,0.3,2.1,0.9v-4h1.3v10.8h-1.2
					l-0.1-0.8c-0.5,0.6-1.2,1-2.2,1c-0.9,0-1.6-0.4-2.2-1.1C717.9,186.1,717.6,185.1,717.6,183.8L717.6,183.8z M718.9,184
					c0,0.9,0.2,1.5,0.5,2s0.9,0.7,1.5,0.7c0.8,0,1.4-0.4,1.8-1.1v-3.5c-0.4-0.7-1-1.1-1.8-1.1c-0.6,0-1.1,0.2-1.5,0.7
					C719.1,182.3,718.9,183,718.9,184z"/>
			</g>
		</g>
	</g>
</g>
</svg>
